<?xml version="1.0" encoding="UTF-8"?>
<svg id="Layer_2" data-name="Layer 2" xmlns="http://www.w3.org/2000/svg" viewBox="0 0 685.97 704.19">
  <g id="Layer_1-2" data-name="Layer 1">
    <path d="M110.43,354.62h13.92v14.4h-13.92v-14.4ZM122.91,356.06l-11.52-.48v12h11.52v-11.52Z"/>
    <path d="M144.03,354.62h13.92v14.4h-13.92v-14.4ZM156.51,356.06l-11.52-.48v12h11.52v-11.52Z"/>
    <path d="M160.83,354.62h13.92v14.4h-13.92v-14.4ZM173.31,356.06l-11.52-.48v12h11.52v-11.52Z"/>
    <path d="M93.15,354.62h13.92v14.4h-13.92v-14.4ZM106.11,356.06c-3.86.03-7.62-.81-11.52-.48v12h11.52v-11.52Z"/>
    <path d="M227.55,354.62h13.92v14.4h-13.92v-14.4ZM240.51,356.06c-3.86.03-7.62-.81-11.52-.48v12h11.52v-11.52Z"/>
    <path d="M193.95,354.62h13.92v14.4h-13.92v-14.4ZM206.91,356.06c-3.86.03-7.62-.81-11.52-.48v12h11.52v-11.52Z"/>
    <path d="M177.15,354.62h13.92v14.4h-13.92v-14.4ZM190.11,356.06c-3.86.03-7.62-.81-11.52-.48v12h11.52v-11.52Z"/>
    <path d="M140.67,355.1v13.92h-13.92v-14.4c4.69-.3,9.27.42,13.92.48ZM139.71,356.06h-11.52v12h11.52v-12Z"/>
    <path d="M224.67,355.1v13.92h-13.92v-14.4l13.92.48ZM223.23,356.06h-11.52v12h11.52v-12Z"/>
    <path d="M258.27,355.1v13.92h-13.92v-14.4l13.92.48ZM256.83,356.06h-11.52v12h11.52v-12Z"/>
    <path d="M90.75,355.1v13.92h-13.92v-14.4l13.92.48ZM89.31,356.06h-11.52v12h11.52v-12Z"/>
    <path d="M283.71,273.04c-.73,0-.66-1.67-.8-2.31-.31-1.44-.72-2.9-.63-4.4l1.22,4.29.21,2.42Z"/>
    <polygon points="178.11 314.31 180.03 314.31 177.63 314.79 177.16 309.51 178.06 312.7 178.11 314.31"/>
    <rect x="201.15" y="291.76" width="23.04" height=".48"/>
    <rect x="174.75" y="279.28" width="4.32" height=".48" transform="translate(-102.66 456.35) rotate(-89.98)"/>
    <rect x="183.19" y="310.58" width="35" height=".73" transform="translate(-47.25 36.19) rotate(-9.22)"/>
    <polygon points="242.91 310.47 241.36 310.83 234.27 309.03 242.91 310.47"/>
    <polygon points="252.03 312.39 250.48 312.75 243.39 310.95 252.03 312.39"/>
    <polygon points="278.43 309.03 278.08 307.48 281.31 293.68 278.43 309.03"/>
    <path d="M182.91,313.83c1.26.58-3.66.58-2.4,0,.15-.07,2.25-.07,2.4,0Z"/>
    <rect x="281.46" y="261.51" width=".67" height="4.38" transform="translate(-42.11 53.86) rotate(-10.16)"/>
    <polygon points="233.79 253.85 229.67 254.76 223.23 255.28 227.36 254.37 233.79 253.85"/>
    <polygon points="252.51 251.45 248.39 252.36 238.11 253.36 242.24 252.45 252.51 251.45"/>
    <path d="M237.63,253.37c1.32.61-4.68.61-3.36,0,.16-.07,3.2-.07,3.36,0Z"/>
    <path d="M281.31,261.04c-.31.68-.78-1.25-.47-1.92s.78,1.25.47,1.92Z"/>
    <path d="M78.27,16.32h16.8V3.13c0-.44,1.31-2.16.96-3.12h12v16.79h14.88c.3-5.05-.93-10.09-.5-15.14.04-.49.22-1.66.74-1.66h108.48c.17,0,2.28,2.17,2.4,2.41.32.65.05,1.86.51,1.93h27.27s2.71-4.1,2.71-4.1l42.45-.21c8.15,1.78,14.19,8.74,15.17,16.98v196.78c-.34,2.08-.31,4.23-1.92,5.76-.28.26-1.53,1.18-1.7,1.18h-6.96v16.79h6.96c.77,0,3.03,2.57,3.34,3.38l.26,76.52c-1.06,9.75-8,17.85-17.98,18.97l-287.33-.24c-6-1.57-10.25-4.77-13.62-9.9-1.07-1.63-.95-3.16-3.19-3.6L.15,17.64C1.63,9.37,7.75,2.6,15.65.03l60.95-.03,1.12.78c-.83,1.29.55,3.05.55,3.79v11.76ZM76.35,16.8V3.61c0-.56-1.67-2.55-2.62-2.18l-56.62.07c-7.45,1.43-13.04,7.57-15.06,14.7l-.13,301.26c.8,7.2,5.22,13.17,11.85,15.99,3.23,1.37,3.56.99,6.63,1.01,94.89.59,189.79-.41,284.68.04,9.22-1.06,14.98-9.7,15.58-18.49v-73.44c.29-1.18-1.74-3.58-2.64-3.58h-14.64c0,2.85-.37,5.3.99,7.89l-.03,70.33h-113.28v4.8c-2.23-.39-4.38.4-6.46.5-8.13.38-16.58-.33-24.74-.02v-5.28s-138.48,0-138.48,0l-.72-.72V17.28c.49.18,1.06-.48,1.2-.48h54.48ZM106.59,16.8V2.17l-.72-.72h-7.68c-.71.4-1.68,2.47-1.68,3.12v12.24h10.08ZM231.87,15.84l.96.48c-.38-2.45.76-12.5-.59-13.81-.08-.08-1.93-1.07-2.05-1.07h-105.84v15.36h102.24v-3.84c.96-.38,1.56.37,1.92.48-.45-.07-.98.03-1.44,0v3.36s4.5.01,4.5.01l.3-.97ZM263.55,4.09c-.71,3.39.53,9.05,0,12.72h38.16c.09,0,1.68.6,1.71.76.06,6.06-.17,12.15-.05,18.21,1.2,60.52.16,121.26.48,181.86-.13.49.35,1.66.74,1.66h12.96c.12,0,1.96-1,2.04-1.08.46-.45,1.01-2.26,1.09-2.99l-.14-198.55c-1.33-7.46-6.63-13.56-14.16-15.11l-39.25-.14c-1.34-.12-3.33,1.45-3.59,2.65ZM234.27,5.74v11.06h27.84V5.74h-27.84ZM94.59,16.8h-16.32l-.05,65.45-1.15.29-11.09-18.21-8.83,5.02-.5.94,21.61,37.93c.34,1.13-1.27.91-1.67.22l-9.85-17.75c-1.55.29-9.86,5.26-10.02,6.06l21.55,38.8c-.75,1.06-1.03.58-1.66-.26-3.49-4.67-6.68-12.13-9.97-17.41-.23-.37-.29-.84-.4-1.26-.65-.17-1.19.08-1.76.35-2.67,1.24-5.64,3.7-8.29,5.17l10.06,17.64c1.66.61,1.18,1.73,1.74,2.7,3.01,5.17,7.33,11.39,9.74,16.65.22.48.85,1.77.54,2.1-.43.44-1.1.08-1.55-.61-3.76-5.79-6.7-12.42-10.73-18.08-1.49.78-9.55,5.08-9.74,6.04l21.81,39.02c1.3,9.9-1.02,21.76.25,31.42.82,6.22,12.04,18.33,18.44,19l54.76.02,2.82-1.02,114.03.03v7.92l.72.72h33.12c1.19,0,.76-5.16.24-6.24h-27.36v-1.92h27.12l.72-.72v-16.08h-40.08l-.72-.72v-27.83l-.72-.72h-12.24v26.39c-.49-.18-1.06.48-1.2.48h-6.96v-26.15l-.72-.72h-11.76v27.59c0,.21-1.92,1.68-2.16,1.68h-44.64c-.09,0-1.07-.97-1.13-1.28-.08-.46.41-.77.41-.88v-12l-.72-.72h-49.92l-.72.72v14.16h-1.44v-18.23h-7.68v17.03c0,.54-1.92,1.69-1.92.48v-17.51h-8.16v17.99l-.72.72h-7.68c-.32,0-2.42-1.1-2.89-1.43-.81-.59-3.59-3.77-3.59-4.56v-17.99s.56.11.81-.15.1-.81.15-.81h113.28c-.15-30.47.19-60.96.02-91.43,0-1.15-.52-2.17-.53-3.31-.11-17.29.15-34.58,0-51.87-.22-.61.86-2.13,1.22-2.13h52.56l.48,158.83h7.2c-.58-6.11-.5-12.26-.51-18.43,1.8-.65,3.24-1.39,2.91-3.64l-2.88.48v-14.4c1.9-.54.53,2.93.96,3.36,3.03.25,2.41-2.61,3.33-4.1.59-.96,2.13-1.56,2.91-2.38.27-1.11-2.62-2.46-3.1-3.13-.73-1-.77-2.99-2.42-3.82-.94-.47-.71.78-.72,1.19-.02,1.03.61,3.57-.96,3.12v-28.31c1.57-.44.94,2.09.96,3.12,0,.42-.23,1.65.72,1.19,1.74-.85,1.47-3.44,1.76-3.76.14-.15,1.08-.14,1.62-.53.74-.54,1.38-1.58,2.14-2.18-.92-1.12-2.54-1.67-3.36-2.87-.98-1.43-.77-3.44-2.63-4.09-.49,1.03-.18,2.45-.24,3.6-.04.79-.42,1.34-.96.71v-26.39c2.12-.57-.06,3.87,1.67,3.35,2.37-.7,2.68-3.18,2.87-5.29l2.65-1.66c-.32-1.16-2.66-1.6-2.8-1.76-.2-.22-.07-1.27-.3-1.85-.63-1.59-1.34-2.58-2.9-3.35-.83.86.75,3.76-1.2,3.36v-27.35c1.01-.04.91-.22.96.71.06,1.15-.25,2.58.24,3.6,2.24-.59,2.04-2.73,2.77-3.71.4-.54,3.71-2.18,3.7-2.77-.83-1.08-2.38-2.04-3.1-3.14-1.07-1.62-1-3.43-3.38-4.3-.49,1.21-.17,2.77-.24,4.08-.05.93.05.75-.96.71v-25.67c1.41-1.18,4.06-.42,4.32-3.12-.26-.23-3.16.2-4.01,0-.36-.08-.2-.8-.65-.94s-1.13.04-1.6-.23c-.81-.47-.41-3.71-.46-4.83-.03-.59.13-.96-.71-.71-3.17.95-3.05,4.07-3.66,6.66-.63.43-7.93-1.01-4.49,2.92,1.42,1.62,4.48.06,4.06,2.9h-54.24v-1.44c3,.52,4.64-2.04,4.32-4.8-1.76-.6-4.93,1.43-5.29-.71-.16-.96.11-2.13,0-3.13-4.95.29-4.16.02-4.32-4.09-.02-.6.13-.95-.71-.7-3.19.95-2.74,2.71-4.08,4.56-.65.9-3.64,2.24-3.38,3.33.8.99,2.65,1.47,3.38,2.39.44.56.48,1.37.93,1.95.98,1.26,2.16,2.03,3.61,2.63.69-1.23-.24-3.12.46-4.33.55-.95,1.69-.09,1.69.25v27.59h-1.92c-.05-1.35.06-2.73,0-4.09-.03-.59.13-.96-.71-.71-1.54.46-3.09,2.6-3.59,4.09l-3.86,3.33c.06.22,3.15,2.07,3.58,2.66.39.53.42,1.42.8,2.08.84,1.43,2.24,1.85,3.54,2.7l.24-4.32h1.92v26.87h-1.92s0-4.32,0-4.32c-2.95-.22-3.44,2.39-4.8,4.08-.75.93-3.57,2.49-3.36,3.35.69.89,2.6,1.59,3.22,2.3,1.41,1.61.92,3.67,4.23,4.65.85.25.68-.1.71-.7.06-1.36-.05-2.73,0-4.09h1.92v27.83h-1.92s0-4.32,0-4.32c-1.17-.1-2.63.15-3.31,1.25-.54.87-.33,2-.64,2.48s-4.2,2.46-4.2,3.23c.71,1.18,2.91,1.74,3.57,2.66.57.79.95,2.94,1.82,3.69.64.55,1.88.42,2.52,1.08.67-1.06-.4-4.98.96-5.27.47-.1,1.2.54,1.2.72v27.11h-1.92s0-4.32,0-4.32c-3.08-.49-3.6,2.92-5.26,4.58-.58.58-2.89,1.74-2.92,1.91-.2,1.59,2.43,2.39,3.39,3.82,1.3,1.95,1,3.64,4.08,4.56.85.25.68-.1.71-.7.05-1.2-.04-2.41,0-3.61h1.92v20.88l-.72.72h-19.2c-.17,0-1.4,2.09-2.18,2.62-.64.44-2.79,1.6-2.86.04-.04-.88.03-1.78,0-2.65h-12.48c-.07-1.53-.31-3.95-1.65-4.82-.76-.49-2.13-1.1-2.19.25-.07,1.52.05,3.06,0,4.57h-22.56v-1.44s3.84,0,3.84,0c.15-1.33-.31-2.78-1.45-3.59-1.07-.75-2.25-.5-2.77-.84-.42-.27-2.22-4.21-2.75-4.21-1.28.9-1.79,2.91-2.86,3.85-1.64,1.44-4.64,1.07-4.1,4.78h4.32s0,1.44,0,1.44h-22.56c-.04-1.36.06-2.74,0-4.09-.04-.82.19-.72-.73-.72-3.09-.01-3.83,2.01-3.6,4.82h-11.76c-.26,0-.76-.8-.73-1.19-.13-8.16.19-16.34.03-24.5-.08-3.85-1.25-7.95,0-11.95V19c-1.26-.56-2.16-.4-1.94-2.2ZM203.55,18.24l-31.2.48v15.84h4.32s0,4.32,0,4.32c2.62.12,3.65-1.88,3.36-4.32l14.55-.09c.88-.87,2.55-1.6,3.23-2.53.52-.72.58-1.62,1.01-2.35.99-1.68,2.91-2.36,4.74-2.7v-8.64ZM215.07,18.72c-1.48-.29-3.03-.05-4.42-.12-.6-.03-1.27-.4-2.06-.41-1.11-.02-2.06.73-3.12.05v12.96h9.6v-12.48ZM232.83,18.24c-1.63.88-2.71.01-4.09-.01-1.86-.04-3.97.37-5.8.47-1.55.08-4.08-.96-5.95-.46v18.23h-2.88c.17,1.84-.36,3.35-1.44,4.8h20.16v-3.84s3.36-.24,3.36-.24c0-2.62-3.36-2.87-3.36-3.12v-15.84ZM240.03,18.72l-5.28-.48c-.04,3.85.23,7.72-.48,11.51h5.76c.49-1.88-1.69-1.96-2.43-3.09-.8-1.22-.39-2.74-.43-4.09l2.81-.55.06-3.31ZM48.03,18.72h-25.92v15.84h10.56c.35,2.25,1.38,3.36,3.6,3.84l.22-3.62,4.82-.22v1.44c-1.03.07-2.91-.42-3.3.78-.27.82-.15,10.32.15,10.76l3.63.45v1.44h-16.08c-1.21-1.62-.94-4.33-3.6-4.32v19.19h17.04c.78-1.25,2.57-1.88,3.39-2.85.93-1.09.88-2.31,2.36-3.4,1.08-.79,2.21-.8,3.12-1.68v-6.96h-2.88v-1.44h2.88v-12c-1.03-.13-4.53.49-4.78-.75.52-2.51,2.11-5.05,4.78-5.49v-11.04ZM58.59,177.55c.17-1.18-1.56-2.61-2.55-3.69-.59-.65-2.04-.69-1.8-2.28.21-45.92-.2-91.84,0-137.76.01-3.45.14-6.6.02-10.05-.06-1.68.06-3.37,0-5.05h-4.8v11.52c-2.17.43-4.27,1.83-4.81,4.06-.02.75,4.06.85,4.81.74v26.87h-1.44s0-3.84,0-3.84c-3.01-.29-3.25,2.38-4.53,3.87-.66.77-2.93,1.77-3.12,2.66-.22,1.04,2.41,2.23,3.08,3.07,1.31,1.66,1.39,4.58,4.57,4.3v-3.84s1.44,0,1.44,0v39.83s-1.44,0-1.44,0c-.05-1.35.06-2.73,0-4.09-.03-.65.16-.9-.73-.72-2.46.48-2.11,2.13-3.1,3.62-.71,1.06-3.42,2.46-3.4,3.34.03,1.43,2.34,2.04,2.94,2.85,1.18,1.57.36,4.66,4.29,4.11v-3.84s1.44,0,1.44,0v39.83h-1.44s0-4.32,0-4.32c-3.3-.43-2.98,2.88-3.96,4.19-.48.64-3.18,1.51-3.71,2.76,0,.61,2.84,2.32,3.23,2.76,1.21,1.38.6,4.86,4.45,4.2v-4.32s1.37.79,1.37.79v14.26c-.38,1.2-2.43.74-3.54.78-.6.02-.95-.12-.71.71.5,1.69,2.55,2.89,4.3,2.66v10.55c.91.04,4.81-.35,4.81.72v13.2h-1.44s0-3.36,0-3.36c-2.9-.5-3.61,2.68-5.07,4.29-.89.98-2.55,1.51-3.09,2.91.65.29,4.1,2.28,4.23,2.49.27.43-.06,1.5.33,2.31.5,1.06,2.36,2.3,3.6,1.92v-4.8s1.44,0,1.44,0v27.83c-2.41.29-1.05-3.93-1.44-4.32-3-.3-2.95,2.44-4.31,4.09-.83,1-3.38,2.06-3.37,3.35.48.69,3.63,2.07,3.76,2.25.21.3.14,1.59.62,2.5.63,1.18,2.01,1.96,3.06,2.7.93-1.71-1.06-5.45,1.68-5.76v15.36l-4.8.24c.55,2.19,2.5,3.84,4.8,3.6v12.96h-2.88s.48,4.8.48,4.8h-18.72c-.16-.13.61-.96.72-.96h6.96v-3.84c-1.53.75-2.6.01-4.06-.03-3.6-.09-7.22.12-10.82.03-.06.94,1.62.21,1.91,1.23s-1.03,2.02-.87,2.77c.34,1.59,3.82,3.79-1.52,3.68.12,1.94-.78,3.67,1.66,3.86,2.99.24,9.65.36,12.48-.05,1.56-.22,1.97-.65,2.2-2.13.1-.61-.31-.89.71-.74s1.22.94,1.98,1.41l2.81-1.41c.84.56.79,1.51.73,2.4h32.64v1.44c-.88.02-1.76-.02-2.65,0-.65.01-1.47-.31-1.19.71.52,1.92,2.44,1.59,3.61,2.63,1,.88,2.77,5.02,4.09,3.55.7-.78,1.83-2.8,2.85-3.29,1.79-.86,4.4.33,4.32-3.6h-4.8s0-1.44,0-1.44h27.36v1.44c-.88.02-1.76-.02-2.65,0-.65.01-1.47-.31-1.19.71.48,1.73,2.94,2.23,4.32,3.36,1.27,1.04,1.96,2.48,3.11,3.6,1.3-.93,1.9-2.67,3.1-3.62,1.44-1.13,4.12-1.59,3.86-4.05h-4.32s0-1.44,0-1.44h27.36v1.44c-1.19.04-2.41-.05-3.61,0-.59.03-.96-.13-.71.71.57,1.92,2.41,2.11,3.6,3.12s2.18,2.51,3.59,3.36c.35-.9,1.12-2.7,1.7-3.35.97-1.09,2.97-1.08,3.58-3.14.41-1.39-2.03-.4-2.4-.71v-1.44h12.48v-5.28c-20.4-.15-40.82.2-61.22.02-1.15,0-2.17-.51-3.31-.53-12.82-.12-27.9,1.1-40.37.05-.49-.04-1.66-.22-1.66-.74v-36.71h13.92c.45,2.09-.86,1.01-1.92,2.16v29.03h9.36c1.4.65.37,4.45.72,4.8h6.24c.04-.94-.34-4.8.72-4.8h8.4v-11.04l16.01-.5c.28.09.79,1.15.79,1.22v15.12h5.76s.45-4.11.45-4.11h27.9s.45,4.11.45,4.11h3.84v-36.95h-3.84c-.16,1.13.44,4-.45,4.59h-27.9c-1.04-.69.14-3.68-.9-4.38-.74-.49-5.79-.43-5.79.51v15.12h-16.32v-10.08h-9.84c-1.28,0-.67-5.99-.2-7.16l4.28-.28c-6.05-4.16-13.97-12.61-14.84-20.2-1.06-9.28.78-20.15-.14-29.61l-16.61-29.94-3.45-5.43v19.43l14.17,13.67.23,1.45c-.45.07-1.04-.1-1.44,0,.04-.57-.82-.35-.96-.48-.18-.17-.81-.8-.96-.96-.13-.14.27-1-.24-.96-.44.64-1.15.98-1.68,1.44.07-.28-.06-.67,0-.96.8-.65,1.44-.52.48-1.44-.41-.39-.91-.43-.96-.48-.15-.15-.84-.83-.96-.96-.13-.14.27-1-.24-.96-.44.64-1.15.98-1.68,1.44.24-.39.2-1.33.96-1.68l-.96-.24-.24-.96-2.64,2.87,2.88-1.92c.51.63-1.48,2.1-1.92,2.64-.04.5.82.11.96.24.07.07.9.9.96.96.09.1-.07.69,0,.96.07.1,1.15-.75,1.44-.96-.19.44-.29,1.14-.42,1.64.05.3.35.22.42.28.4.37.92.44.96.48.06.06-.12.57.14.83.24.24.79.08.82.13.09.12-.15.66.06.87l.9-.39.24.96c.31-.44.79-.65,1.2-.96-.75,1.32-1.19,2.78-.96,4.32,1.45.15,3.31-.55,4.32.72v8.4h-9.84c-.21,0-.98.78-1.68.48v-17.51c0-.49-5.25-4.11-3.8-5.49.18-.17.73.06.92-.02-.07.24.03.65,0,.96l2.88-2.64-.96-.24ZM76.83,18.72h-20.64v49.42c6.84-4.03,13.57-8.38,20.64-12V18.72ZM97.95,18.72v147.31h72.48V18.72h-72.48ZM256.83,18.72h-14.88l-.06,4.26-3.79.54c-.68,3.73,2.09,2.69,3.84,4.56v13.2h16.8c-1.4-1.93-2.03-3.68-.48-5.75-.41.03-1.44-.46-1.44-.73v-16.08ZM288.51,22.56c2.24.62,6.19-3.3,3.13-3.84h-32.89v15.36l4.28-.04c.99-4.99,7.13-7.63,5.8.04h19.68v-11.52ZM301.95,18.72h-8.16c.16,1.42-.48,3.04-1.66,3.85-1.53,1.06-2.65.36-2.18,3.34h11.28c.14,0,.34.59.72.48v-7.68ZM301.95,27.84h-12v6.24c3.39.93,3.15-1.75,5.1-2.82.83-.45,1.38-.57,2.33-.56s.69-.12.73.72c.04.88-.03,1.78,0,2.66h3.84s0-6.24,0-6.24ZM240.03,31.2h-5.76c-.51,2.7.44,2.02,1.46,3.08s1.46,1.83,1.44,3.39c-.02,1.44-1.9.47-2.9.72v2.88s5.76,0,5.76,0v-10.08ZM271.71,40.31v10.56h30.24v-14.88c-1.49-.22-4.53.81-4.81-1.19-.13-.96.6-3.36-.72-3.13-2.17.38-2.43,3.8-3.92,4.24l-16.94.1c.18,2.44-1.36,4.33-3.85,4.31ZM215.07,32.63h-5.76v2.4h5.76v-2.4ZM28.35,36h-6.24v7.44c2.04,1.24,3.36,1.96,3.9,4.49l2.34.06v-12ZM29.79,36v12h6.72v-8.64c-.89,0-2.34-.44-3.02-.94-1.38-1.03-.64-3.23-3.7-2.42ZM172.35,36v6.72h11.04v-6.72l-2.36.04c-.18,3.03-2.47,4.17-5.32,3.8v-3.84s-3.36,0-3.36,0ZM203.55,43.67c-3.56-.23-4.23-3.53-5.99-5.29-.53-.53-2.88-1.97-3.59-2.17-1.31-.37-6.59-.47-7.94-.23-.4.07-1.19.4-1.19.73v10.32c-2.36-.06-3.6,1.55-3.36,3.84h22.08v-7.2ZM183.39,44.15h-11.04v6.72h8.16c-.88-3.43,3.26-3.87,2.88-6.72ZM259.23,49.43l-46.8-.48c-.73.27.58.9.72.96-.49-.04-1.86-.2-1.93.27v139.13c.05.39,2.84-.15,3.37-.24-.33.16-1.95.58-1.2.96h44.88c.11-.51-1-.79-1.44-.96l4.8.96V49.19s-2.4.24-2.4.24ZM203.55,52.31h-31.2v15.36h3.84c.03,1.04-.05,2.09,0,3.13.03.77-.19.76.73.72s1.75-.33,2.4-.96l.23-2.9c.52-.54,12.66.44,15.03-.09.64-.14,3.25-2.01,3.71-2.53,1.46-1.64,2.05-4.76,5.26-4.57v-8.16ZM301.95,52.31h-29.52c-.96,0-.96,6.45-.65,7.37.21.62,1.7,1.21,2.34,1.98,1.47,1.76,2.06,5.22,5.01,5.55,2.29.26,13.83-.63,14.59.54.41.63.12,3.11,2.24,3.28l.24-3.36c1.28-.22,5.89.63,6.22-.77.14-.6-.42-1.29-.39-1.87.1-2.07-.01-2.88-.07-4.79-.08-2.64.07-5.29,0-7.92ZM76.83,58.07l-9.15,5.07c-.12.62.26.98.49,1.43,1.76,3.49,4.67,8.07,6.84,11.4.5.77.96,1.88,1.82,2.25v-20.15ZM48.03,80.62v-6.96c-1.04-.96-2.26-.87-3.38-1.9-1.2-1.1-1.31-2.62-2.16-3.6-.19-.22-2.67-2.42-2.86-2.42h-17.52v14.88h11.52c-.18,2.58.47,4.35,3.36,3.84.4-1-.93-3.05-.02-3.62l4.34-.22v1.44c-.95.02-2.46-.32-2.82.78-.77,2.36.44,7.98-.06,10.74h3.36s0,1.44,0,1.44h-15.36c-.26-2.22-2.14-3.64-4.32-3.84v18.23h17.52c.24,0,3.36-2.74,3.61-3.11.63-.93.62-2.13,1.44-2.87.72-.66,2.35-1.22,3.35-1.21v-7.2h-2.88v-1.44h2.88v-10.8c0-.75-2.18-.83-2.88-.72v-1.44s2.88,0,2.88,0ZM288.51,69.11h-9.84c-.2,0-2.76,2.18-3.12,2.64-.67.83-.9,1.86-1.65,2.67-.44.47-2.18,1.44-2.18,1.65v8.4h16.8c.1,0,.05-1.23.95-1.69.74-.37,2.43-.03,2.42-.47-.18-1.54-1.68-1.6-2.88-1.92l-.48-.48v-10.8ZM289.95,75.34h12.48v-6.24s-5.28,0-5.28,0v2.88c-1.96.31-2.67-.33-3.85-1.7-.43-.5-.32-1.35-1.17-1.22l-2.18.03v6.24ZM172.35,69.59v6.72h10.56v-6.72c-3.17-.67-2.05.98-3.37,2.15-1.13,1-2.9.72-4.31.73v-2.88s-2.88,0-2.88,0ZM203.55,77.26c-1.85-.33-3.74-1.62-4.74-3.18-.4-.63-.4-1.52-.8-2.08-.19-.27-3.13-2.42-3.34-2.42h-9.84v10.8c-1.32.95-4,1.62-3.33,3.8.07.21.59.76.69.76h21.36v-7.68ZM56.19,94.54l8.14-4.58.93-1-9.07-15.53v21.11ZM302.43,77.26h-12.48c-.45,3.17.41,1.89,1.71,2.84,1.09.81,1.74,2.9.21,3.64-.77.37-1.98-.14-1.92.72h12.48v-7.2ZM182.91,77.74h-10.56v7.2h8.16c-.07-.98-.03-1.83.36-2.76.75-1.76,3.32-2.04,2.04-4.44ZM28.35,93.58v-10.8c0-1.18-5.15-.59-6.24-.72v8.16c2.21.14,4.58,1.46,4.81,3.84l1.43-.48ZM29.79,82.06v11.52h7.2v-8.16c-2.51.27-4.26-.67-4.36-3.32l-2.84-.04ZM302.43,85.9h-30.72v7.44c0,.14,1.67,1.19,2.14,1.7,1.65,1.84,1.65,4.53,4.43,5.65l14.73.15c1.24.37.4,3.69,2.69,3.78l.45-3.63,6.27-.21v-14.88ZM203.55,86.38h-31.2v14.88h4.32c.11,1.29-.5,2.92.71,3.82,2.6-.51,2.05-2.3,3.42-3.76l13.3-.14c.66-1.08,3.62-2.35,4.04-2.92.3-.41.28-1.33.66-1.97.94-1.57,2.85-2.97,4.74-2.7v-7.2ZM56.19,119.97l8.62-5.08c.13-.59-4.89-9.29-5.65-10.6-.84-1.46-1.74-3.37-2.97-4.47v20.15ZM288.51,102.21c-3.22.49-10.98-1.41-12.7,1.94-.95,1.86-.42,3.52-2.81,4.9-.44.25-1.3.29-1.3.36v7.44l.72.72h19.44c.59-3.01-1.48-3.12-3.36-4.56v-10.8ZM289.95,108.45h12.48v-6.24s-5.31.21-5.31.21c-1.17.78.44,3.23-1.18,3.16-3.35-.14-2.89-3.32-3.39-3.4l-2.6.03v6.24ZM172.35,108.93h11.04v-6.24c-3.16-.65-2.04.94-3.38,2.15-2.41,2.18-5.15,1.57-4.3-2.15h-3.36s0,6.24,0,6.24ZM194.67,102.69c-2.33-.62-7.19.46-9.84,0v10.32c0,.31-4.6,1.95-3.36,4.56h22.08v-7.68c-2.55-.38-3.44-1.13-4.82-3.11-.33-.47-.32-1.19-.6-1.55-.13-.17-3.25-2.48-3.46-2.54ZM302.43,109.89h-12.48c-.7,3.16.91,2.8,2.15,4.33.66.82,1.22,2.28,1.21,3.35h9.12v-7.68ZM48.03,118.05c-4.27.7-3.63-2.35-5.06-4.3-.21-.28-3.58-2.9-3.82-2.9h-17.04v14.88h11.52c-.5,4.68,4.46,6.5,3.36,0h4.8s0,1.44,0,1.44h-3.36v11.52c.93-.03,4.2-.36,3.84,1.19-.02.08-.67.72-.72.72h-13.92c-1.21,0-1.2-1.58-1.65-2.18-.87-1.16-3.87-1.68-3.87-.46v17.03h17.52c.21,0,3.34-2.35,3.47-2.52.55-.72.45-2.3,1.6-3.44.82-.82,2.16-1.41,3.33-1.23v-7.2h-2.4v-1.92h2.4v-10.8c-.55-.83-1.5-.77-2.4-.72v-1.44s2.4,0,2.4,0v-7.68ZM183.39,110.85h-11.04v6.72h8.16c-.21-1.78.22-2.86,1.42-4.11.88-.92,1.95-.36,1.46-2.6ZM203.55,119.01h-31.2v14.88c3.69-.36,4.2.16,3.84,3.84,3.33.31,3.07-1.52,4.14-3.86,3.89-.58,10.63.9,14.13-.19.37-.11,4-2.57,4.16-2.79.54-.71.49-2.5,1.58-3.46.91-.79,2.2-.79,3.35-.73v-7.68ZM302.43,119.01h-30.72v6.96c0,.18,1.98,1.79,2.34,2.46.49.91.37,2.03.65,2.47.12.18,3.33,2.33,3.59,2.4,2.73.74,8.63-.14,11.9.1,1.17.09,2.33.71,3.59.49v3.36c1.66-.65,2.66-1.42,2.41-3.35h6.23v-14.89ZM56.19,146.36l9.11-5.52-9.11-15.12v20.63ZM27.87,127.17h-5.76v9.12l3.24.37,2.52,2.51v-12ZM36.99,131.01c-1,0-2.61-.55-3.34-1.22-1.17-1.06-.82-3.44-3.56-2.57l-.78.66v10.8h7.68v-7.68ZM288.51,134.84h-10.32c-.15,0-1.79,1.82-2.15,2.18-1.65,1.65-1.47,2.38-2.63,3.6-.71.75-1.7.84-1.7.93v8.16h20.16c.42-2.01-1.73-2.25-3.36-2.4v-12.48ZM290.43,134.84v6.72h12v-6.24s-4.96-.02-4.96-.02c-1.77,3.09-5.28,4.71-4.64-.46h-2.4ZM172.35,135.32v6.72h11.04v-6.72l-2.84.04c-.13,3.24-2.53,3.57-5.32,3.32v-3.36s-2.88,0-2.88,0ZM194.19,135.32c-2.48-.54-6.66.4-9.36,0v11.04c-2.42-.28-3.75,1.51-3.36,3.84h22.08v-7.2c-1.86-.14-3.8-1.62-4.74-3.18-.39-.64-.36-1.57-.66-1.97-.14-.19-3.73-2.47-3.95-2.52ZM302.43,143h-12l.05,3.79c1.97-.59,2.58,2.93,3.07,2.93h8.88v-6.72ZM183.39,143.48h-11.04v6.72h8.16c-.1-1.33,0-2.61.94-3.61s2.45-.87,1.94-3.1ZM302.43,151.64h-30.72v7.44c0,.18,2.11,1.4,2.63,2.17s.54,1.83.86,2.26c.15.2,3.7,3,3.95,3h12.24v-9.36c0-.29.99-.92,1.44-.72l.72,2.39c1.88-.66,1.85-2.11,2.94-3.29l5.95.42v-4.32ZM172.35,152.12v6.72h6.72c1.11-3.86-3.28-3.27-2.89-6.71h-3.83ZM203.55,152.12h-26.4c-.73,2.16,2.52,2.53,2.82,2.94.17.23.15,3.41.07,4.02-.04.26-.06.52-.22.74-.78,1.17-3.91-.56-3.1,1.6.46,1.23,2.55,1.87,3.78,1.74v2.87h14.65c.15,0,2.15-1.6,2.42-1.9,1.72-1.86,2.43-5.55,5.98-4.82v-7.2ZM302.43,156.92l-4.97-.44c-1.38,1.55-2.17,3.34-4.59,3.36.04,1.12-.49,6.68.68,6.68h8.88v-9.6ZM48.03,163.64c-1.52.32-3.79-.64-4.44-2.04-.33-.71-.23-1.68-.61-2.27-.1-.16-2.68-2.41-2.87-2.41h-18v14.4h25.92v-7.68ZM172.35,166.04h6.72l.48-1.92c-2.57.02-3.46-1.66-4.12-3.87l-3.08.03v5.76ZM112.83,167.95h-14.88v23.03h9.36c1.61-2.74,2.23-4.69,6-4.32l.02-9.29c-2.56-1.17-4.6-2.37-5.31-5.34l4.75-.78.06-3.3ZM120.99,167.95h-6.72c0,4.5.91,4.75-3.61,4.8-.41,0-1.66-.22-1.19.72,1.13,2.24,4.56,2.49,4.74,2.7.3.36-.32,1.94.84,2.28,1.54.45,4.23-.2,5.94.06v-10.56ZM137.79,167.95h-14.88v14.4c4.28-.8,5.78,1.22,2.67,4.35-1.57,1.58-3.38.63-2.67,4.29h6.96c1.06-1.03.61-2.44,1.66-3.61.9-1,2.45-1.15,3.35-1.93.19-.16,2.9-3.58,2.9-3.82v-13.68ZM154.11,167.95h-14.88v13.68c0,.23,2.31,3.85,2.51,3.97.4.25,1.43.15,2.17.47,2.61,1.14,2.32,4.24,2.97,4.71l6.75.21v-14.4c-1.59.05-3-.88-3.72-2.27-1.77-3.41,1.77-2.43,4.2-2.52v-3.84ZM162.75,167.95h-7.2v4.8s-5.28,0-5.28,0c.83,2.7,2.77,2.61,5.07,3.32l.21,2.91h7.2v-11.04ZM164.19,167.95v15.36c-1.78.15-3.91.8-3.84,2.88,4.18-.24,8.4-.47,8.64,4.8h9.6l.48-23.03h-14.88ZM180.51,167.95v11.04h5.76s.01-3.35.01-3.35c1.37-.01,3.96-.58,4.82-1.66.5-.63,1.08-2.13-.26-2.19s-2.71.12-4.04-.05l-.53-3.79h-5.76ZM203.55,176.11c-3.86,0-4.12-2.81-5.75-5.04-.38-.52-2.88-2.64-3.37-2.86-1.61-.72-4.43,0-6.23-.25v2.4c2.84.15,4.99-.65,4.32,3.11-.3,1.67-2.37,2.47-3.85,2.87l-.4.56c-.46,3.96-.91,8.45-.57,12.43.04.49.22,1.66.74,1.66h15.12v-14.88ZM292.35,167.95h-14.16c-.19,0-2.72,2.06-2.87,2.4-.39.85-.1,1.72-.69,2.67-.5.79-1.96,1.59-2.91,1.65v8.16c1.88.48,1.96-1.68,3.09-2.43,2.55-1.7,2.36.43,2.19,2.43h11.52v-9.84c0-1.42,2.27-1.24,3.11-2.17.68-.76.8-1.89.73-2.87ZM302.43,167.95h-9.12c.31,2.43-.85,4.46-3.35,4.81l.23,1.43.49.47h11.76v-6.72ZM29.31,172.75h-7.2v6.72h11.04c.42-2.96-.28-1.97-1.61-2.94-1.25-.91-2.34-2.11-2.23-3.78ZM47.55,172.75h-17.28c.18,2.16,2.12,3.6,4.32,3.36v12h13.44v-9.6c-2.55-.38-4.23-2.72-3.84-5.28l3.36-.48ZM302.43,176.11h-11.76c-.98,0-1.08,5.97-.27,6.51,3.34,1.11,1.95-.74,3.16-2.18,1.95-2.32,4.47-.62,3.59,2.39h5.28v-6.72ZM60.51,178.99l-.24-.96-2.64,2.88h.96s-.48.96-.48.96c.65.58,2.74-2.16,3.36-2.64l-.96-.24ZM114.75,179.95v10.32c0,1.18,5.15.59,6.24.72l.03-3.81c2.48-.24,4.64-.92,5.25-3.63l-5.29-.24v-3.36s-6.24,0-6.24,0ZM162.75,180.43h-7.2v10.56c1.4-.24,6.34.52,6.99-.45l.21-3.39c-3.22.53-5.15-.54-2.63-3.34,1.06-1.18,3.24-.75,2.63-3.37ZM186.27,180.43h-5.76v10.56l.98.3v3.54c1.77-.64,2.82-1.86,2.9-3.8l1.88-.04v-10.56ZM293.79,184.27h-17.76v-3.36c-2.53,1.08-1.46,3.78-2.28,5.64-.34.76-2.04,2.13-2.04,2.28v11.52l.72.72h30v-16.79h-6.24s-.24-3.84-.24-3.84c-2.3.37-2.37,1.79-2.16,3.84ZM33.15,181.39h-11.04v6.72h2.4c.03-.88-.04-1.77,0-2.66.07-1.56,2.22-.4,2.86.04,1.06.72,1.29,1.84,2.25,2.55l3.53.07v-6.72ZM28.35,189.55c.22-1.27-1.34-3.81-2.64-3.84l.02,3.37-3.63.47v15.36h21.36c.24,0,3.52-2.55,3.82-2.9.45-.53.56-1.34,1-1.88,1.21-1.49,2.51-2.74,4.54-2.9v-7.68h-24.48ZM60.99,187.15v12.72c.94,1.12,3.38,1.12,4.32,0v-8.64c0-.44-3.59-2.84-3.37-4.08h-.95ZM226.59,191.47h-16.32v4.8h10.32l.72.72v21.83h5.28v-27.35ZM247.71,191.47l-3.36.24,3.36,3.12v-3.36ZM247.71,198.67c.53-2.39-1.92-4.28-3.6-5.76-.54-.47-.79-1.15-1.68-.96-.53,3.32,3.15,4.9,5.27,6.72ZM66.75,194.34c.21,1.32-.49,5.38.45,6.03,2.78,1.93,2.86-3.72,2.37-5.25-.36-1.1-1.87-.77-2.82-.78ZM247.71,202.98c.86-3.75-3.15-4.99-5.27-7.2-.5,3.15,3.27,5.18,5.27,7.2ZM219.87,198.19c-1.19-.07-2.42.11-3.61,0-7.34-.68-14.7-.35-22.07,0-1.99.1-4.02-.08-6,0v16.31c-1.78-.89-3.84-.35-5.76-.48v4.8h37.44v-20.63ZM180.99,198.19h-84v17.51c0,.67,3.41,4.08,4.08,4.08h7.44v-17.03c0-.14.66-.71.48-1.2h20.64v2.88h50.64c1.18,0,.59-5.15.72-6.24ZM182.43,198.18v.48s4.8,0,4.8,0v-.48s-4.8,0-4.8,0ZM182.43,199.14v.48s4.8,0,4.8,0v-.48s-4.8,0-4.8,0ZM247.71,207.3c.73-3.5-3.08-5.5-5.27-7.68,0,.81-.14,1.63.24,2.4.52,1.04,4.04,4.1,5.03,5.28ZM182.43,200.1v.96s4.8,0,4.8,0v-.96s-4.8,0-4.8,0ZM182.43,201.54v.48s4.8,0,4.8,0v-.48s-4.8,0-4.8,0ZM302.43,202.02h-12.96v5.28h-25.2l-.72.72v10.8h38.88v-16.79ZM182.43,202.5v.48s4.8,0,4.8,0v-.48s-4.8,0-4.8,0ZM273.15,205.86c.07-.16.07-3.2,0-3.36-.61-1.32-.61,4.68,0,3.36ZM274.11,205.86c.07-.16.07-3.2,0-3.36-.61-1.32-.61,4.68,0,3.36ZM276.51,202.5h-1.92v3.36h1.92s0-3.36,0-3.36ZM277.47,205.86c.07-.16.07-3.2,0-3.36-.61-1.32-.61,4.68,0,3.36ZM278.43,205.86c.07-.16.07-3.2,0-3.36-.61-1.32-.61,4.68,0,3.36ZM278.91,202.5v3.36s.96,0,.96,0v-3.36s-.96,0-.96,0ZM280.83,205.86c.07-.16.07-3.2,0-3.36-.61-1.32-.61,4.68,0,3.36ZM281.79,205.86c.07-.16.07-3.2,0-3.36-.61-1.32-.61,4.68,0,3.36ZM282.75,205.86c.07-.16.07-3.2,0-3.36-.61-1.32-.61,4.68,0,3.36ZM285.15,202.5h-1.92s-.03,2.57-.03,2.57c2.79,2.14,1.83-.53,1.94-2.57ZM286.11,205.86c.07-.16.07-3.2,0-3.36-.61-1.32-.61,4.68,0,3.36ZM287.07,205.86c.07-.16.07-3.2,0-3.36-.61-1.32-.61,4.68,0,3.36ZM287.55,202.5v3.36s.96,0,.96,0v-3.36s-.96,0-.96,0ZM272.19,205.38c.07-.15.07-2.24,0-2.4-.58-1.26-.58,3.66,0,2.4ZM182.43,203.46v.48s4.8,0,4.8,0v-.48s-4.8,0-4.8,0ZM247.71,211.62l-.24-2.88-5.04-5.28c-.57,2.46,1.51,4.49,3.11,6.25.61.67,1.38,1.48,2.17,1.91ZM182.43,204.42v.96s4.8,0,4.8,0v-.96s-4.8,0-4.8,0ZM187.23,205.86h-4.8s0,1.93,0,1.93h4.8s0-1.93,0-1.93ZM28.83,206.34h-6.72v6.72h10.56c.71-3.67-.96-2.49-2.66-4.3-.63-.67-1.13-1.47-1.18-2.42ZM52.83,221.22v-6.96c-.64-.86-1.72-.61-2.66-1.18-1.9-1.15-1.91-3.18-2.87-4.33-.25-.3-3.14-2.41-3.35-2.41h-14.16c.69,1.95,2.17,3.09,4.32,2.88v12h18.72ZM247.71,214.98l-.45-2.18-4.82-5.01c-.83,3.71,3.06,5.11,5.27,7.2ZM182.43,208.26v.48s4.8,0,4.8,0v-.48s-4.8,0-4.8,0ZM182.43,209.22v.96s4.8,0,4.8,0v-.96s-4.8,0-4.8,0ZM182.43,210.66v.48s4.8,0,4.8,0v-.48s-4.8,0-4.8,0ZM182.43,211.62v.48s4.8,0,4.8,0v-.48s-4.8,0-4.8,0ZM247.23,216.42c-1.17-1.86-3.1-3.02-4.8-4.32-.28,2.42,2.38,4.82,4.8,4.32ZM182.43,212.58v.96s4.8,0,4.8,0v-.96s-4.8,0-4.8,0ZM32.67,214.5h-10.56v6.72h2.88c.55-.55-1.62-5.46,2.85-2.62,1.09.7,1.76,2.34,2.03,2.53.51.36,2.05-.05,2.8.09v-6.72ZM243.39,215.94h-.96v.47h.96v-.47ZM52.83,223.14h-22.8c-1.25-1.71-1.82-3.62-4.08-4.32l-.21,3.87-3.63.45v14.4h22.32c.72-1.18,2.34-1.75,3.13-2.63,1.59-1.75,1.51-5.12,5.27-4.57v-7.2ZM311.07,220.26c-2.57.1-5.2-.34-7.68.48v16.79h6.96l.72-.72v-16.55ZM266.91,238.97h-112.8v37.43h12.24c.07,0,1.13.51,1.22.79l.39,39.23c-.3,1.44-5.33.52-6.65.77l.21,3.39,28.11-.03v-3.36h-15.84l.48-71.5h44.64v2.88h47.28l.72-.72v-8.88ZM29.79,239.45h-7.68v6.72h10.56c.76-3.58-.83-3.12-2.15-4.81-.49-.63-.65-1.85-.73-1.91ZM52.83,254.33v-6.96c-1.46-.92-3.09-1.59-4.05-3.15-.5-.8-.47-1.78-1.21-2.63-.28-.32-2.95-2.14-3.14-2.14h-13.68c-.15.66.61,1.59,1.17,1.95.89.55,2.67.25,2.67,1.65v11.28h18.24ZM111.87,239.45h-8.64c-.2.55.48,1.09.48,1.2v12.72h8.16v-13.92ZM146.91,239.45h-25.92v2.88h25.92v-2.88ZM101.79,240.41h-13.44v3.36h8.88c.1,0,.25-.35.48-.4.15,0,.72.58.72.64v10.8h3.36v-14.4ZM64.35,241.85h-3.36v34.55h3.36v-34.55ZM70.11,241.85h-3.84v34.55h14.88v-2.88h-9.84c-.14,0-.71-.66-1.2-.48v-31.19ZM217.49,247.13h-41.77v19.67h41.77v-19.67ZM283.23,314.79l1.44.48v-33.59c-.94.17-.8,1-.98,1.66-.71,2.67-1.6,6.45-1.89,9.15-.14,1.32-.55,1.43-.5-.02l2.89-15.12h-60v-.48h60l-.48-3.36.95.49v-25.91s-3.59,2.4-3.59,2.4c-2.68,1.94-.05,5.42-.25,8.15l-1.65-6.74-5.55-1.17c2.08-.78,4.22.81,6.4.15.66-.2,3.45-3.01,4.17-3.75h-15.84v2.38s4.8.97,4.8.97l-7.92-.48-12.23,1.44,7.2-1.44h-41.28l3.76,5.62-.89,7.81c-.83.1-.53-1.66-.48-2.16.13-1.28,1.09-4.79.89-5.65-.1-.44-1.95-2.88-2.41-3.38-.43-.47-.42-1.03-1.35-.81v15.12c0,.15.64.72.48,1.2l1.46-.22.94-3.62v3.84s2.88.48,2.88.48h-48.48l3.12,2.88,24,.96,21.36,2.65c0,.82-11.21-1.1-12.24-1.21-3-.32-6.15-.22-9.12-.96l-5.76-.48-19.45-.48c-.01,1.04.02,2.08,0,3.13-.01.58.35,1.79-.48,1.67-.38-2.32,1.11-5.96-1.44-7.2v17.27c.84.1.31-5.72.96-4.32.51,1.1-.36,4.19-.48,5.51-.14,1.4.34,2.79-.47,4.09h19.2v.48h-19.2c-.33,5.55.24,10.68,1.46,16.06h-.48s-.98-4.07-.98-4.07v10.56c1.07.06,1.99.42,3.1.5,9.04.66,19.61-.06,28.84-.05,2.1,0,4.12.03,6.21.02,3.44-.03,6.89.03,10.33,0v-7.68l-5.76.48,6.29-1.17c2.76.34,5.62,1.35,8.36,1.64,1.32.14,1.43.55-.02.5l-8.4-1.45v7.68h36.48l-8.64-2.4c3.36.22,6.59,1.39,9.89,1.87.88.13,1.76-.04,2.58.05,5.83.6,12.77.94,18.24,0ZM302.93,247.13h-16.82v68.14h16.82v-68.14ZM32.67,247.61h-10.56v6.72h2.88c-.27-2.53.54-4.49,3.36-3.12,1.65.8,1.83,3.83,4.32,3.12v-6.72ZM22.11,255.77v15.36h30.72v-10.56c-2.24-.37-4.23-2.49-4.36-4.76h-18.4c-.47-1.63-2.18-5.42-4.05-3.09l-.07,3.05h-3.84ZM101.79,261.05c-1.03.06-2.91-.41-3.3.78-.43,1.33-.08,6.7-.08,8.6,0,.67.7,3.09-.7,3.09h-9.36v2.88h13.44v-15.36ZM111.87,261.53h-8.16v14.88h8.16v-14.88ZM22.11,272.56v11.52h1.92s.21-4.35.21-4.35c1.21-1.11,2.99.56,2.68-1.65-.06-.39-1.48-.62-1.92-.72l1.44-2.87c-2.22.26-1.82-2.6-4.32-1.92ZM42.27,276.4c-.11-1.25.57-3.23-.96-3.84.31,1.05-.89,4.22.96,3.84ZM42.75,272.56v3.84s.48,0,.48,0v-3.84s-.48,0-.48,0ZM45.15,272.56v3.84s.48,0,.48,0v-3.84s-.48,0-.48,0ZM47.07,276.4l-.24-3.84c-.98.77-.79,2.04-.72,3.12.05.77.41,1.36.96.71ZM47.55,272.56v3.84s.48,0,.48,0v-3.84s-.48,0-.48,0ZM49.47,276.4l-.24-3.84c-.98.77-.79,2.04-.72,3.12.05.77.41,1.36.96.71ZM50.91,276.4c-.11-1.25.57-3.23-.96-3.84.31,1.05-.89,4.22.96,3.84ZM43.71,273.04v3.36s.96,0,.96,0v-3.36s-.96,0-.96,0ZM146.91,274h-25.92v2.4h25.92v-2.4ZM42.03,285.04h-19.92v30.23h44.16v-30.23h-19.2c-.15-.52.54-2.81-.72-2.4-1.12,2.52-1.97,1.28-3.6,0,.04.91.12,1.85-.72,2.4ZM75.87,285.04h-8.16v22.07c2.1.05,4.21-1.62,3.84-3.84h11.52v-9.84c0-.27-3.03-3.99-3.38-4.3-1.44-1.25-4.1-1.05-3.82-4.1ZM99.87,285.04h-7.2c.13,4.61-2.97,3.45-5.07,4.77-.66.41-2.79,3-2.99,3.73l-.07,14.25c-.04.23-3.03.85-3.4,2.92-.25,1.42,2.52.47,3.37.72v3.84s15.36,0,15.36,0v-30.23ZM109.47,285.04h-7.44l-.72.72v20.15c0,1.21,2.38.26,3.07-.29.77-.6,1.06-2.35,1.49-2.35h11.28v-9.84c0-.24-2.6-3.21-3.12-3.6-1.91-1.44-4.71-1.6-4.56-4.8ZM133.95,285.04h-7.68c-.2,2.94-3.21,3.53-4.82,5.01-.95.88-1.74,2.51-2.77,3.47l-.06,14.27c-1.86.62-3.21,1.1-3.87,3.16l3.63.45.21,3.87h15.36v-30.23ZM142.59,285.04h-7.2v22.07c2.32-.12,2.23-2.9,3.6-4.32h10.8v-9.84c0-1.54-8.1-5.03-7.2-7.92ZM166.11,285.04h-9.12c-.43,3.8-4.42,3.77-5.54,7.66s.35,10.84-.19,15.09c-3.72.98-5.11,3.55-.03,3.16v4.32s14.88,0,14.88,0v-30.23ZM74.91,304.71c-2.62-.44-1.99.26-3.09,1.45s-2.28,2.12-4.11,1.91v7.2h7.2v-10.56ZM83.07,304.71h-6.72v10.56h6.72v-2.88c-2.61.34-3.71-.59-2.33-3.05.89-1.59,3.05-2.05,2.33-4.62ZM108.51,304.71c-2.42-.61-2.26.73-3.23,1.45-1.27.94-2.77,1.21-3.97,2.15v6.96h7.2v-10.56ZM117.15,304.71h-7.2v10.56h7.2v-3.36c-.88-.03-1.77.04-2.66,0-1.56-.07-.4-2.22.04-2.86,1.14-1.66,3.33-1.49,2.62-4.34ZM142.11,304.71l-3.31.06c-.32,2-1.22,3.44-3.41,3.3v7.2h6.72v-10.56ZM143.55,304.71v10.56h6.24s0-3.36,0-3.36l-3.39-.76c0-3.25,4.25-3.12,3.39-6.44h-6.24Z"/>
    <path d="M229.95,13.92c-.07-.03-1.37-.47-1.44-.48.64.19.61-.04,1.44.48Z"/>
    <path d="M283.23,314.79l-.48-.48.48.48Z"/>
    <path d="M266.43,314.31c-.14.04-.59.82-1.44.48l.24-.48c.35-.11.87.09,1.2,0Z"/>
    <path d="M282.75,314.31l-.48-.48.48.48Z"/>
    <path d="M267.87,313.83c-.53.18-.88.31-1.44.48.35-.1.99-.33,1.44-.48Z"/>
    <path d="M282.27,313.83c-.17-.15-.32-.32-.48-.48.18.14.33.31.48.48Z"/>
    <path d="M269.31,313.35c-.49.17-.97.31-1.44.48.46-.15.99-.32,1.44-.48Z"/>
    <path d="M281.79,313.35c-.16-.16-.32-.31-.48-.48.18.14.31.35.48.48Z"/>
    <path d="M270.27,312.87c-.2.07-.51.32-.96.48.19-.07.5-.32.96-.48Z"/>
    <path d="M281.31,312.87c-.15-.16-.32-.32-.48-.48.19.13.31.35.48.48Z"/>
    <path d="M271.71,312.39c-.53.19-1,.32-1.44.48.48-.17.98-.31,1.44-.48Z"/>
    <path d="M273.15,311.91c-.54.2-1,.32-1.44.48.51-.18,1-.32,1.44-.48Z"/>
    <path d="M274.59,311.43c-.55.21-1.03.33-1.44.48.53-.19,1.01-.32,1.44-.48Z"/>
    <path d="M230.43,14.4c-.21-.14-.39-.44-.48-.48.21.13.33.36.48.48Z"/>
    <path d="M275.55,310.95c-.26.11-.51.31-.96.48.2-.07.51-.32.96-.48Z"/>
    <path d="M230.91,14.88c-.16-.15-.34-.38-.48-.48.18.13.32.32.48.48Z"/>
    <path d="M276.99,310.47c-.75.53-.96.31-1.44.48.54-.23.52-.47,1.44-.48Z"/>
    <path d="M231.39,15.36c-.16-.16-.32-.33-.48-.48.16.16.35.29.48.48Z"/>
    <path d="M280.83,312.39c-.13-.1-.61-.04-.94-.26-1.2-.8-.97-1.68-2.9-1.66.22-.15.37-1.13,1.16-.95,1.08.73,1.82,2.01,2.68,2.87Z"/>
    <path d="M231.87,15.84c-.53.09-.46-.46-.48-.48l.48.48Z"/>
    <path d="M256.83,189.07c-.66.28-1.18-.41-1.44-.48.72.18.84.25,1.44.48Z"/>
    <path d="M216.03,188.59c-.28.07-.57.33-1.44.48.74-.36.81-.29,1.44-.48Z"/>
    <path d="M255.39,188.59c-.71-.18-1.18-.27-1.92-.48.63.16,1.31.32,1.92.48Z"/>
    <path d="M217.95,188.11c-.73.21-1.19.3-1.92.48.77-.23,1.26-.3,1.92-.48Z"/>
    <path d="M67.71,188.59c.12-.09.3-.32.48-.48-.15.18-.42.37-.48.48Z"/>
    <path d="M66.27,188.59c-.09-.53.46-.46.48-.48-.02.02.06.57-.48.48Z"/>
    <path d="M253.47,188.11c-.62-.16-1.08-.38-1.44-.48.8.16,1.01.36,1.44.48Z"/>
    <path d="M219.39,187.63c-.4.11-.84.32-1.44.48.4-.12.8-.31,1.44-.48Z"/>
    <path d="M68.19,188.11c.16-.14.32-.32.48-.48-.12.08-.37.35-.48.48Z"/>
    <path d="M66.75,188.11c.16-.16.32-.32.48-.48-.16.16-.32.32-.48.48Z"/>
    <path d="M252.03,187.63c-.89-.17-1.16-.26-1.92-.48.63.16,1.31.32,1.92.48Z"/>
    <path d="M221.31,187.15c-.61.16-1.3.32-1.92.48.75-.21,1.02-.32,1.92-.48Z"/>
    <path d="M68.67,187.63c.1-.07.17-.41.48-.48.05.52-.4.4-.48.48Z"/>
    <path d="M67.23,187.63c.16-.16.31-.32.48-.48-.16.17-.32.32-.48.48Z"/>
    <path d="M250.11,187.15c-.62-.16-1.08-.38-1.44-.48.8.16,1.01.36,1.44.48Z"/>
    <path d="M223.23,186.67c-.88.31-.97.31-1.92.48.61-.16,1.29-.32,1.92-.48Z"/>
    <path d="M67.71,187.15s-.06-.57.48-.48c.09.53-.46.46-.48.48Z"/>
    <path d="M64.35,187.15c-.08-.54.45-.45.48-.48l-.48.48Z"/>
    <path d="M248.67,186.67c-.89-.17-1.16-.26-1.92-.48.63.16,1.31.32,1.92.48Z"/>
    <path d="M224.67,186.19c-.36.1-.82.32-1.44.48.53-.18.62-.32,1.44-.48Z"/>
    <rect x="64.75" y="186.56" width="3.05" height=".71" transform="translate(-111.85 99.73) rotate(-44.4)"/>
    <path d="M64.83,186.67c.16-.16.31-.33.48-.48-.05.2-.3.36-.48.48Z"/>
    <path d="M63.39,186.67l.48-.48-.48.48Z"/>
    <path d="M246.75,186.19c-.62-.16-1.08-.38-1.44-.48.8.16,1.01.36,1.44.48Z"/>
    <path d="M226.59,185.71c-.76.22-1.03.31-1.92.48.61-.16,1.29-.32,1.92-.48Z"/>
    <rect x="64.75" y="186.56" width="3.05" height=".71" transform="translate(-111.88 99.79) rotate(-44.42)"/>
    <path d="M245.31,185.71c-.89-.17-1.16-.26-1.92-.48.63.16,1.31.32,1.92.48Z"/>
    <path d="M228.03,185.23c-.4.11-.8.32-1.44.48.42-.12.8-.31,1.44-.48Z"/>
    <path d="M243.39,185.23c-.62-.16-1.08-.38-1.44-.48.8.16,1.01.36,1.44.48Z"/>
    <path d="M229.95,184.75c-.61.16-1.29.32-1.92.48.75-.21,1.02-.32,1.92-.48Z"/>
    <path d="M241.95,184.75c-.89-.17-1.16-.26-1.92-.48.63.16,1.31.32,1.92.48Z"/>
    <path d="M231.87,184.27c-.88.31-.97.31-1.92.48.6-.16,1.45-.34,1.92-.48Z"/>
    <path d="M65.31,185.23c-.44.36-.98.62-1.44.96,0-1.16.72-1.37,1.44-1.92-.04.31.06.68,0,.96Z"/>
    <path d="M63.39,184.75c.12-.26.4-.36.48-.48-.16.14-.28.33-.48.48Z"/>
    <path d="M240.03,184.27c-.65-.17-1.02-.36-1.44-.48.82.15,1.01.36,1.44.48Z"/>
    <path d="M233.31,183.79c-.47.14-.94.33-1.44.48.54-.19.7-.31,1.44-.48Z"/>
    <path d="M65.31,184.27s-.06-.56.48-.48l-.48.48Z"/>
    <path d="M63.87,184.27c.13-.19.32-.33.48-.48-.14.18-.31.33-.48.48Z"/>
    <path d="M238.59,183.79c-.63-.12-1.6.32-1.92-.48,1.2.04,1.2.27,1.92.48Z"/>
    <path d="M235.23,183.31c-.1.01-1.49.38-1.92.48.49-.15,1.05-.81,1.92-.48Z"/>
    <path d="M64.35,183.79s-.06-.57.48-.48l-.48.48Z"/>
    <path d="M60.99,183.79c-.08-.54.45-.45.48-.48l-.48.48Z"/>
    <path d="M61.47,183.31c.16-.16.31-.33.48-.48-.12.19-.3.34-.48.48Z"/>
    <rect x="61.39" y="183.2" width="3.05" height=".69" transform="translate(-110.95 97.41) rotate(-44.72)"/>
    <path d="M58.59,180.91c-.09-.53.46-.46.48-.48-.02.02.06.57-.48.48Z"/>
    <path d="M59.07,180.43c.16-.16.32-.32.48-.48-.16.16-.32.32-.48.48Z"/>
    <path d="M259.23,49.43c-.12.68-1.11.75-1.68.96-5.79,2.14-13.53,4.99-19.44,6.24,5.82-3.32,14.66-4.88,21.12-7.2Z"/>
    <path d="M59.55,179.95c.16-.16.31-.32.48-.48-.16.17-.32.32-.48.48Z"/>
    <path d="M60.03,179.47s-.06-.57.48-.48c.09.53-.46.46-.48.48Z"/>
    <path d="M56.67,179.47c.09-.04.28-.34.48-.48-.14.22-.47.45-.48.48Z"/>
    <path d="M214.59,50.39c-.59-.19-.78-.2-1.44-.48,1.04.09.95.3,1.44.48Z"/>
    <path d="M216.03,50.87c-.85-.18-.9-.28-1.44-.48.57.18.88.27,1.44.48Z"/>
    <path d="M222.27,52.79c-2.09-.69-3.92-1.05-6.24-1.92,2.64.55,3.88,1.17,6.24,1.92Z"/>
    <path d="M57.15,178.99c.14-.1.32-.33.48-.48-.15.16-.39.35-.48.48Z"/>
    <path d="M57.63,178.51c.16-.15.32-.32.48-.48-.16.16-.33.32-.48.48Z"/>
    <path d="M223.71,53.27c-.48-.16-.97-.32-1.44-.48.5.16.97.33,1.44.48Z"/>
    <path d="M58.11,178.03s-.05-.57.48-.48c.09.53-.46.46-.48.48Z"/>
    <path d="M225.15,53.75c-.49-.16-.96-.32-1.44-.48.49.16.97.33,1.44.48Z"/>
    <path d="M226.59,54.23c-.49-.16-.96-.32-1.44-.48.49.16.96.32,1.44.48Z"/>
    <path d="M228.03,54.71c-.48-.16-.97-.33-1.44-.48.49.16.96.32,1.44.48Z"/>
    <path d="M229.47,55.19c-.47-.16-.97-.33-1.44-.48.48.16.98.33,1.44.48Z"/>
    <path d="M230.91,55.67c-.47-.16-.96-.32-1.44-.48.49.16.97.33,1.44.48Z"/>
    <path d="M232.35,56.15c-.46-.16-.96-.32-1.44-.48.48.15.98.34,1.44.48Z"/>
    <path d="M233.79,56.63c-.37-.14-.95-.31-1.44-.48.5.15,1.07.38,1.44.48Z"/>
    <path d="M236.67,57.11v126.2c-.17,0-1.36,0-1.44,0V57.11h1.44Z"/>
    <path d="M235.23,57.11c-.71.26-1.08-.34-1.44-.48.45.12,1.17-.21,1.44.48Z"/>
    <path d="M238.11,56.63c-.4.23-.63.74-1.44.48.23-.72.94-.37,1.44-.48Z"/>
    <path d="M167.55,163.16c-.5.05-.99-.96-1.2-.96h-65.04v.96s-.48,0-.48,0V23.04h.48v138.68h65.76V22.56h-66.24v-.48h66.24c.14-.91-.44-2.54.48-2.4v143.48Z"/>
    <path d="M71.29,206.8v29.26h-11.74v-29.26h11.74ZM60.99,234.17c2.05-.19,4.13.92,4.34-1.66.6-7.34-.44-15.56-.08-22.99-.43-1.33-3.09-.63-4.26-.78v25.43ZM66.75,234.17c1.79.04,2.74.39,2.9-1.66.59-7.41-.31-15.87-.23-23.33l-2.67-.45v25.43Z"/>
    <path d="M124.35,533.6c-.34-.11-.86.09-1.43-.24-.33-.19-.39-.66-.49-.72.45.21,1.81.93,1.92.96Z"/>
    <path d="M117.15,506.25c-.38-.18-.52-.19-.96-.48.04.04.59.22.96.48Z"/>
    <path d="M203.07,506.73c-.41-.23-1.26-.03-1.44-.96.9-.21,1.24.85,1.44.96Z"/>
    <path d="M107.55,655.96c.19-.51.2-.52.48-.96-.04.06-.34.69-.48.96Z"/>
    <path d="M108.03,655c.13-.2.35-.32.48-.48-.15.17-.37.33-.48.48Z"/>
    <path d="M108.51,654.52c.15-.17.32-.32.48-.48-.16.14-.34.32-.48.48Z"/>
    <path d="M122.43,532.64c-.39-.18-.51-.21-.96-.48.06.05.58.23.96.48Z"/>
    <path d="M121.47,532.16c-.2-.13-.32-.36-.48-.48.17.15.33.37.48.48Z"/>
    <path d="M120.99,531.68c-.18-.14-.32-.32-.48-.48.16.16.32.33.48.48Z"/>
    <path d="M109.47,506.73c.12-.07.28-.33.48-.48-.17.15-.31.33-.48.48Z"/>
    <path d="M117.63,506.73c-.2-.12-.32-.37-.48-.48.21.1.37.45.48.48Z"/>
    <path d="M109.47,506.73c-.12.1-.14.52-.49.72-.56.32-1.04.13-1.43.24.11-.03,1.72-.84,1.92-.96Z"/>
    <path d="M120.51,531.2c-.16-.16-.34-.3-.48-.48.13.16.33.32.48.48Z"/>
    <path d="M120.03,530.72c-.13-.16-.34-.28-.48-.48.09.14.33.29.48.48Z"/>
    <path d="M184.35,544.16c-.7-1.26-.95-1-.96-2.88.67,1.23.64,2.24.96,2.88Z"/>
    <path d="M185.31,545.6c-.6-.74-.5-.61-.96-1.44.04.08.74,1.11.96,1.44Z"/>
    <path d="M246.27,545.6c-.43-.13-.91-.47-.96-.48.47.17.55.22.96.48Z"/>
    <path d="M185.79,546.08c-.15-.17-.34-.3-.48-.48.09.13.33.29.48.48Z"/>
    <path d="M247.23,546.08c-.07-.06-.62-.26-.96-.48.52.16.62.3.96.48Z"/>
    <path d="M186.27,546.56c-.17-.16-.32-.31-.48-.48.13.16.33.32.48.48Z"/>
    <path d="M249.63,548.48c-.1-.14-2.21-2.24-2.4-2.4.43.23.83.11,1.47.68.78.7.63,1.22.93,1.72Z"/>
    <path d="M186.75,547.04c-.18-.14-.32-.33-.48-.48.15.15.33.37.48.48Z"/>
    <path d="M187.23,547.52c-.2-.14-.32-.36-.48-.48.19.14.35.4.48.48Z"/>
    <path d="M188.19,548c-.36-.18-.51-.18-.96-.48.16.09.84.44.96.48Z"/>
    <path d="M189.63,548.48c-.67-.18-.73-.13-1.44-.48.22.08,1.36.47,1.44.48Z"/>
    <path d="M250.59,550.4c-.06-.15-.89-1.83-.96-1.92.06.1.56.18.71.5.29.6.14,1.15.25,1.42Z"/>
    <path d="M251.07,551.84c-.01-.07-.42-1.29-.48-1.44.24.61.3.83.48,1.44Z"/>
    <path d="M108.99,654.04c.16-.16.29-.34.48-.48-.13.08-.3.33-.48.48Z"/>
    <path d="M110.43,653.08c-.26.12-.76.36-.96.48.42-.32.73-.34.96-.48Z"/>
    <path d="M112.35,652.13c-.11.03-1.47.75-1.92.96.36-.23.7-1.34,1.92-.96Z"/>
    <path d="M191.07,555.2c-.31.03-.68-.06-.96,0,.07-.01.28-.52.66-.43.33.03.22.35.3.43Z"/>
    <path d="M190.11,555.2c-.09.02-.34.36-.74.46-.42.1-.95-.05-1.18.02.94-.37.95-.32,1.92-.48Z"/>
    <path d="M188.19,555.67c-.05.02-.92.45-.96.48.36-.2.53-.31.96-.48Z"/>
    <path d="M187.23,556.15c-.15.11-.33.68-.7.98-.43.36-1.17.4-1.22.46,1.02-1.16.75-.79,1.92-1.44Z"/>
    <path d="M234.27,556.15c-.1.03-1.66.82-1.92.96.92-.57.4-.51,1.92-.96Z"/>
    <path d="M223.23,557.11c-.31-.1-1.37-.47-1.44-.48.69.18.72.12,1.44.48Z"/>
    <path d="M224.19,557.59c-.25-.12-.85-.44-.96-.48.33.17.48.07.96.48Z"/>
    <path d="M232.35,557.11c-.08.04-1.37.9-1.44.96.78-.69.75-.54,1.44-.96Z"/>
    <path d="M184.35,559.03c.1-.15,0-.63.25-.95s.6-.37.71-.49c-.06.07-.61.98-.96,1.44Z"/>
    <path d="M224.67,558.07c-.2-.13-.35-.42-.48-.48.18.15.31.33.48.48Z"/>
    <path d="M226.59,559.99c-.08-.11-1.62-1.64-1.92-1.92.22.14.77.05,1.23.44.63.53.48,1.13.69,1.48Z"/>
    <path d="M230.43,558.55c.16-.16.31-.33.48-.48-.08.06-.46.44-.48.48Z"/>
    <path d="M228.99,560.47c.64-1.47.54-.99,1.44-1.92-.69,1.12-.62.98-1.44,1.92Z"/>
    <path d="M183.87,559.51c.13-.22.39-.34.48-.48-.14.19-.39.33-.48.48Z"/>
    <path d="M183.39,560.47c.19-.46.26-.57.48-.96-.1.15-.33.68-.48.96Z"/>
    <path d="M227.55,561.91l-.47-.25c-.25-.42-.28-1.36-.49-1.67.37.61.81.04.96,1.92Z"/>
    <path d="M182.91,561.91c.1-.96.25-.86.48-1.44-.04.08-.3.97-.48,1.44Z"/>
    <path d="M228.51,561.43c.16-.57.36-.69.48-.96-.09.1,0,.54-.48.96Z"/>
    <path d="M107.55,612.3c-.2-.36-.31-.51-.48-.96.01.05.45.92.48.96Z"/>
    <path d="M108.99,614.22c-.21-.21-.7-.32-.99-.69-.38-.5-.31-.96-.45-1.23.28.4,1.63.73,1.44,1.92Z"/>
    <path d="M109.47,614.7c-.17-.15-.32-.32-.48-.48l.48.48Z"/>
    <path d="M110.91,615.66c-.69-.42-.66-.27-1.44-.96.91-.2,1.2.82,1.44.96Z"/>
    <path d="M112.83,616.62c-1.88-.15-1.3-.58-1.92-.96.53.31,1.85.16,1.92.96Z"/>
    <path d="M111.39,618.06c-.11.03-.61.34-.96.48.55-.45.81-.38.96-.48Z"/>
    <path d="M109.95,619.02c.17-.16.3-.33.48-.48-.12.05-.28.36-.48.48Z"/>
    <path d="M109.95,619.02c-.36.34-2.31,2.26-2.4,2.4.31-.56.16-1.02.93-1.72.63-.57,1.09-.46,1.47-.68Z"/>
    <path d="M119.55,530.24c-.33-.46-.31-.64-.48-.96.06.16.4.84.48.96Z"/>
    <path d="M107.55,629.57c-.1-.15-.37-.28-.48-.48.04.12.39.27.48.48Z"/>
    <path d="M108.03,630.53c-.37-.47-.35-.75-.48-.96.07.16.45.92.48.96Z"/>
    <path d="M108.51,631.01c-.15-.17-.33-.3-.48-.48.12.15.33.34.48.48Z"/>
    <path d="M108.99,631.49c-.17-.16-.32-.31-.48-.48.16.15.32.34.48.48Z"/>
    <path d="M112.35,651.17c-1.83-.18-1.19-.48-1.92-.96.6.3,1.63.11,1.92.96Z"/>
    <path d="M110.43,632.45c-.56-.38-.63-.21-1.44-.96.07.06,1.21.81,1.44.96Z"/>
    <path d="M110.91,632.93c-.23-.13-.34-.39-.48-.48.2.13.32.37.48.48Z"/>
    <path d="M110.43,650.21c-.35-.17-.51-.2-.96-.48.04.03.57.23.96.48Z"/>
    <path d="M109.47,649.73c-.2-.13-.32-.35-.48-.48.15.15.32.35.48.48Z"/>
    <path d="M111.87,633.41c-.45-.19-.57-.26-.96-.48.04.03.91.46.96.48Z"/>
    <path d="M113.31,633.89c-.82.3-1.09-.34-1.44-.48.31.1.84-.11,1.19,0l.25.48Z"/>
    <path d="M112.35,634.85c-.11.03-1.67.82-1.92.96,1-.61.98-.52,1.92-.96Z"/>
    <path d="M110.43,635.81c-.21.11-.54,1.17-1.44.96.81-.76.76-.54,1.44-.96Z"/>
    <path d="M108.51,637.25c.15-.17.31-.32.48-.48l-.48.48Z"/>
    <path d="M107.55,638.69c.1-.2.02-.6.25-.95.21-.32.6-.37.71-.49.22.86-.89,1.29-.96,1.44Z"/>
    <path d="M107.07,640.13c.18-.66.12-.72.48-1.44-.03.07-.47,1.36-.48,1.44Z"/>
    <path d="M107.55,647.33c-.18-.34-.33-.47-.48-.96,0,.05.34.61.48.96Z"/>
    <path d="M119.07,529.28c-.18-.35-.32-.49-.48-.96,0,.05.34.61.48.96Z"/>
    <path d="M108.03,648.29c-.33-.46-.31-.64-.48-.96.06.16.41.85.48.96Z"/>
    <path d="M108.51,648.77c-.15-.17-.34-.29-.48-.48.09.13.33.31.48.48Z"/>
    <path d="M109.95,506.25c.14-.1.37-.34.48-.48-.15.17-.31.33-.48.48Z"/>
    <path d="M108.99,649.25c-.17-.14-.33-.31-.48-.48.14.16.32.32.48.48Z"/>
    <path d="M107.07,629.09c-.29-.54-.84-1.03-.88-1.8-.08-.68.27-.48.4-.6.64.73.29,1.88.48,2.4Z"/>
    <path d="M293.79,531.68v21.59h18.48c.63,0,4.01,1.52,4.72,2,3.78,2.54,4.27,7.51,3.65,11.66l.02,137.26-1.21-.23-.22-141.81c-.2-2.22-1.54-4.51-3.38-5.73-.35-.23-2.46-1.22-2.62-1.22h-19.44v94.77c-8.25,14.11-15.47,29.33-23.91,43.27-.55.91-1.19,2.4-2.24,2.56l-239.67-.11-1.57-2.03.28-287.22c.11-.21.89-.96.96-.96h44.4v-16.55c0-.57-2.07-2.64-2.64-2.64H26.19c-.71,0-.71-1.44,0-1.44h43.68c.92,0,3.6,2.24,3.6,3.12v17.51h23.52v-14.64c0-2,4.3-5.25,6.47-5.05l70.83.23c1.54.27,5.26,4.04,5.26,5.3v14.16h33.6c-1.38-8.48-1.36-18.9,8.91-21.08l88.29-.04c4.71.48,8.31,5.61,9.24,9.95,1.37,42.57.19,85.37.61,128.03-.89,3.51-2.06,6.27-5.33,8.11-.44.25-2.38,1.23-2.61,1.23h-18.48ZM293.79,530.24h17.52c.3,0,3.09-1.37,3.57-1.71,2.4-1.66,3.19-3.84,3.41-6.67v-125.28c-.48-4.86-3.29-9.82-8.41-10.79h-85.94c-3.06.45-5.7,1.38-7.64,3.89-.4.51-1.72,2.66-1.72,3.08v12c0,.14-.59.34-.48.72h81.36c.29,0,1,1.15.72,1.44h-2.4v123.32ZM178.11,405.48v-13.68c0-.9-3.09-4.19-4.41-4.23l-69.28-.33c-1.4.04-5.51,1.65-5.51,3.13v15.12h79.2ZM62.91,406.92H28.35v67.66h34.56v-67.66ZM99.42,406.92h-35.06v67.18h35.06v-67.18ZM234.27,556.15c.43-.13.99-.84,1.92-.48v8.16s4.8,0,4.8,0v-106.05h-30.72v-1.44s5.76,0,5.76,0v-14.4c-2.13-.3-6.15,1.15-5.76-1.92h48.72c.14,0,.71.66,1.2.48v47.51h31.68v-81.09H100.83v69.1l-34.83-.03c-1.88.23-1.77,1.51-4.26,0l-33.39.03v2.88h8.64v.48h-8.64v14.88h8.64v.48h-8.64v3.84s57.87.03,57.87.03c2.5-1.47,2.22-.34,3.82-.03,2.31.44,9.09.42,11.97.51,8.66.26,17.35-.45,25.92-.53,28.62-.26,57.27.19,85.88.09.26.08.79.5.79.65v64.54h4.32s0-7.68,0-7.68c1.24-.38,2.09.28,2.88.48-.73-.12-1.63.08-2.4,0v7.2s8.16,0,8.16,0c-.02-.63.05-1.29,0-1.92.29-.16.73-.27.96-.48-.19.71-.26,1.64-.48,2.4h7.68s0-7.68,0-7.68c-.44.08-1.09-.11-1.44,0ZM216.51,441.95v14.4h1.92v-14.4h-1.92ZM224.19,441.95h-5.28v13.68c0,1.13,4.23.19,5.28.72v-14.4ZM227.07,441.95h-2.4v14.4h2.4v-14.4ZM232.35,441.95h-4.8v14.4h1.92v-12h.96v12h1.92v-14.4ZM238.11,441.95h-5.28v14.4c1.85-.14,3.44-.39,5.28,0v-14.4ZM240.99,441.95h-2.4v14.4h2.4v-14.4ZM258.75,441.95h-17.28v14.4c.49-.18,1.06.48,1.2.48h16.08v-14.88ZM258.75,457.31h-16.32v2.4h16.32v-2.4ZM258.75,460.18h-16.32v2.4h16.32v-2.4ZM258.75,463.06h-16.32v1.92h16.32v-1.92ZM258.75,468.34c.12-.69.03-2.88-.72-2.88h-15.6v2.88h16.32ZM258.75,468.82h-16.32v2.4h15.6c.64,0,.88-1.76.72-2.4ZM258.75,471.7h-16.32v16.31h15.6c1.28,0,.51-6.65.75-7.9l-1.46-.73,1.44-1.92c-1.51-.03-3.04.03-4.56,0-.58-.01-1.79.35-1.68-.48,2.5-.36,6.87,1.38,6.24-2.4h-13.44v-.48h13.44v-2.4ZM251.07,551.84c.07.23.82.63.48,1.44h-9.12v10.56h49.44v-74.38h-49.44v55.18c1.3-.29,1.92.12,2.88.48-.88-.13-1.96.09-2.88,0v7.68s8.64,0,8.64,0c-.03-.31.06-.68,0-.96ZM87.39,500.01H28.35v17.75h58.08v-7.68h.48v7.68h.48v-17.75ZM127.71,500.01v17.27h14.4v-17.27h-14.4ZM143.55,500.73v22.31h6.24s0-1.44,0-1.44h-4.32v-20.16h4.32c1.67-1.5-5.85-2.22-6.24-.72ZM160.35,500.01h-9.12v2.88s-4.8-.48-4.8-.48v18.23c1.17.18,4.51-.45,5.07.45l.22,1.94h8.14c-.04-3.29.76-2,2.65-1.9,1.52.08,3.05-.07,4.57,0v-19.19l-6.72.48v-2.4ZM168.99,523.04v-22.31c0-1.23-6.02-.56-7.2-.72-.63.54-.07.92.71.96,1.03.05,5.53-.38,5.53.72v20.39h-6.24s0,.96,0,.96h7.2ZM170.43,500.01v20.63h24.48v-19.91c0-1.23-6.02-.56-7.2-.72v1.92s5.76,0,5.76,0v17.27h-21.6v-16.55c0-.1-.35-.25-.4-.48-.05-1.07,3.34-.67,4.24-.72v-1.44s-5.28,0-5.28,0ZM172.83,502.89v15.36h19.68v-15.36c-2.93-.4-7.55,1.6-6.72-2.88h-8.16s-.45,2.67-.45,2.67l-4.35.21ZM199.71,502.89c-.35-.91-.51-1.8-.93-2.67l-2.43-.21v20.87c0,.1.35.25.4.48,0,.15-.58.72-.64.72h-25.68l-.45,2.67-26.18.2c-2.64-.44-1.45-4.26-1.69-6.23h-14.4v19.67h68.16v25.43h17.28v-63.82c-1.24.2-4.93-.48-5.55.45l-.21,7.71c-.97.38-1.58-.38-1.92-.48.45.07.98-.04,1.44,0v-7.68s-7.2,0-7.2,0c.11.9-.15,2.04,0,2.88ZM99.39,500.49h-10.56v17.27h10.56v-17.27ZM107.55,507.69c-.62.17-1.32.86-2.4.48v-7.68s-4.32,0-4.32,0v19.19H28.35v174.19h86.4v-34.07h-8.16c-.28-1.29.13-1.92.48-2.88-.11.73.08,1.63,0,2.4h7.68s0-7.2,0-7.2c-.72.11-1.78-.16-2.4,0-.04-.3.08-.74,0-.96.78.08,1.61-.05,2.4,0v-7.2s-7.68,0-7.68,0c.09.76-.13,1.7,0,2.4-.27-.88-.82-1.6-.48-2.88,2.15-.06,4.33.09,6.48,0,.65-.03,2,.4,1.68-.72-.16-.57-7.01-.07-8.16-.24-.38-1.08.32-1.79.48-2.4-.1.57.07,1.31,0,1.92h7.68s0-7.2,0-7.2c-.72.11-1.78-.16-2.4,0,.3-.14.73-.89.96-.96.34-.11.99.13,1.42-.02l.02-7.18h-8.16c.5-.46.39-.43,1.16-.5,1.97-.19,4.24.13,6.29.02.94-.05.75.05.71-.96h-8.16c.07-.98-.18-2.11.09-3.05.17-.59.82-.69.87-.78-.29.44-.69,3.17-.48,3.36h7.68s0-7.2,0-7.2c-.94.26-2.56.24-3.36.48.42-.28.83-.44,1.28-.64l.16-.8c.63.05,1.29-.02,1.92,0v-6.72s-7.69,0-7.69,0c.06.46-.09,1.03,0,1.44-.17-.46-.83-.94-.48-1.92h8.16v-44.39l.72-.72h10.8l.03-29.96c-.02-.1-1.55-.61-1.95-.75.49.14,1.34-.09,1.92,0l-.21-7.23c-.66-.98-6.02-.2-7.47-.45,1.11-1.12,5.86-.17,7.68-.48v-24.95h-4.8v7.68c-1.65-.48-2.41-.53-3.84-1.44.5.16,3.23.62,3.36.48v-6.72s-7.2,0-7.2,0c.08.6-.12,1.38,0,1.92-.14-.2-.92-.37-.96-.48-.14-.37.32-1.37-.26-1.46l-6.94.02v7.2c.59-.1,1.43.14,1.92,0ZM127.71,539.84v7.2h7.68v-7.2h-7.68ZM148.83,539.84h-11.52v23.99h11.52v-23.99ZM153.63,539.84h-4.32v11.52h1.92v-11.04h.48v10.32c0,.5,1.36.92,1.92.72v-11.52ZM156.51,539.84h-2.4v10.8c0,.17.84.92,1.2.72.36.19,1.2-.55,1.2-.72v-10.8ZM156.99,539.84v11.52h1.92v-11.52h-1.92ZM161.79,539.84h-2.4v10.8c0,.17.84.92,1.2.72.36.19,1.2-.55,1.2-.72v-10.8ZM162.27,539.84v11.52h1.92v-11.52h-1.92ZM166.59,539.84h-1.92v10.8c0,.5,1.36.92,1.92.72v-11.52ZM183.39,541.28c-.22-.41-.56-1.43-.77-1.47l-5.95.03v6.72h-.48v-6.72h-1.92v8.16h-.48v-8.16h-1.92v9.12h-.48v-9.12h-1.92v10.08h-.48v-10.08h-1.92v12.48h11.52v.48s-4.32,0-4.32,0v11.04l8.14-.02c-.24-.93.29-1.37.5-1.9-.11,1,.36,3.09-.45,3.63l-.74.22h-65.53s0,128.12,0,128.12h151.44l24.24-42.95v-85.65h-100.08c-.33,0-.65-.79-.73-1.19-.25-1.41.32-8.57,0-8.88.43.49.44.37.5,1.16.2,2.39-.19,5.05-.03,7.48h2.4v-23.99h-2.4s0,9.12,0,9.12c-.92.38-1.54-.38-1.92-.48.45.07.97-.04,1.44,0v-8.64s-7.68,0-7.68,0c0,.48,0,.96,0,1.44ZM127.71,548.96v14.88h7.68v-14.88h-7.68ZM151.23,551.84c-.67-.3-2.6.16-1.92.47s2.6-.16,1.92-.47ZM153.63,551.84c-.67-.3-2.6.16-1.92.47s2.6-.16,1.92-.47ZM156.51,551.84c-.15-.07-2.25-.07-2.4,0-1.26.58,3.66.58,2.4,0ZM158.91,551.84c-.67-.3-2.6.16-1.92.47s2.6-.16,1.92-.47ZM161.79,551.84c-.15-.07-2.25-.07-2.4,0-1.26.58,3.66.58,2.4,0ZM164.19,551.84c-.67-.3-2.6.16-1.92.47s2.6-.16,1.92-.47ZM166.59,551.84c-.67-.3-2.6.16-1.92.47s2.6-.16,1.92-.47ZM151.23,552.8h-1.92v11.04h1.92v-11.04ZM153.63,552.8h-1.92v11.04h1.92v-11.04ZM156.51,552.8h-2.4v11.04h2.4v-11.04ZM158.91,552.8h-1.92v11.04h1.92v-11.04ZM161.79,552.8h-2.4v11.04h2.4v-11.04ZM164.19,552.8h-1.92v11.04h1.92v-11.04ZM166.59,552.8h-1.92v11.04h1.92v-11.04ZM169.47,552.8h-2.4v11.04h2.4v-11.04ZM171.39,552.8h-1.44v11.04h1.44v-11.04ZM173.79,552.8h-1.92v11.04h1.92v-11.04Z"/>
    <path d="M201.63,505.77l-.48-.48.48.48Z"/>
    <path d="M112.35,502.89c.12-.29-.26-1,.48-.96.26.9-.43.84-.48.96Z"/>
    <path d="M114.27,503.37c-.31-.44-.37-.79-.48-.96.01.05.37.74.48.96Z"/>
    <path d="M116.19,505.77c-.19-.13-.32-.33-.48-.48.15.16.32.33.48.48Z"/>
    <path d="M107.07,656.92c.18-.48.29-.6.48-.96-.14.36-.47.91-.48.96Z"/>
    <path d="M111.87,503.85c.11-.2.4-.76.48-.96-.18.38-.25.57-.48.96Z"/>
    <path d="M200.19,503.85c-.19-.36-.31-.53-.48-.96,0,.05.38.76.48.96Z"/>
    <path d="M115.23,504.81c-.67-.77-.61-.94-.96-1.44.04.08.9,1.37.96,1.44Z"/>
    <path d="M118.59,528.32c-.32-.93-1.12-1.26,0-2.4.09.76-.13,1.69,0,2.4Z"/>
    <path d="M110.91,505.29c.09-.11.04-.6.26-.94.2-.32.65-.41.7-.5-.1.17,0,.62-.25.95s-.62.38-.71.49Z"/>
    <path d="M205.47,507.69c-.62-.19-.77-.2-1.44-.48.11.04,1.37.47,1.44.48Z"/>
    <path d="M201.15,505.29c-.93-.18-.73-1.02-.96-1.44.08.16,1.18.56.96,1.44Z"/>
    <path d="M115.71,505.29c-.17-.15-.33-.31-.48-.48.11.15.32.31.48.48Z"/>
    <path d="M110.43,505.77c.15-.19.37-.33.48-.48-.14.18-.33.31-.48.48Z"/>
    <path d="M204.03,507.21c-.4-.17-.6-.28-.96-.48.22.12.76.39.96.48Z"/>
    <rect x="86.91" y="490.9" width=".96" height=".47"/>
    <path d="M651.39,529.76v21.59h18c.14,0,2.32.58,2.66.7,1.1.4,3.34,2.21,3.34,3.38v142.28l-1.46-.22-.48-1.44.05-140.16c.37-1.2-1.85-2.62-2.66-2.62h-19.44v140.36l-.72.72h-263.04c-.15,0-.7.68-1.2.48.16-.49-.48-1.05-.48-1.2v-285.99c0-1.3,1.45-2.65,2.88-2.16v-9.6c4.86-.8,8.44,2.59,9.12,7.2l3.87-5c1.74-1.19,3.56-2.6,5.72-1.72v9.12h2.88v-9.12c4.01,1.01,7.22,4.86,6.72,9.12h14.4v-15.12c0-1.25-2.78-2.81-4.07-2.65-11.68.28-23.4-.34-35.07-.02-1.42.04-8.51,1.46-8.86-.22-.1-.47.54-1.19.72-1.19h45.12c.69,0,3.6,2.54,3.6,3.12v17.03h21.84c.33,0,1.1-1.15,1.2-1.68.76-4.4-.74-10.76.11-15.25.3-1.59,1.46-2.8,3.03-3.21l73.44-.03c2.01-.09,4.55,2.73,4.55,4.57v14.64h5.76v-9.12c3.55-.21,6.5,1.94,8.64,4.55.71.87.85,2.22,1.91,2.64,1.11-3.81,5.14-7.28,9.12-7.68v9.6h6.72v-15.6c0-.7,2.71-4.51,4.05-4.1l93.63.02c4.87.58,7.54,4.14,7.93,8.86v129.12c-.23,2.07-1.87,4.05-3.74,4.9-.41.19-3.07,1.08-3.24,1.08h-16.56ZM651.39,527.84h18c.52,0,3.32-1.91,3.39-2.85.56-42.59,0-85.29.19-127.93,0-2.12.71-2.51-.22-5.01-1.51-4.03-4.2-4.46-8.13-4.83l-91.12.12c-1.22-.06-2.74,2.7-2.74,3.5v14.64h79.44c.08,0,1.2,1.11,1.2,1.2v121.16ZM535.23,405.48v-15.6c0-.89-2.06-2.4-3.11-2.17h-71.08c-1.18-.35-3.58,1.1-3.58,2.17v15.6h77.76ZM396.99,405.48c.59-4.55-2.37-8.9-7.2-8.64v8.64h7.2ZM406.59,405.48v-7.92c0-.12-.46-.7-.97-.51-3.61,1.37-6.34,4.49-6.71,8.42h7.68ZM552.03,405.48c-.04-3.91-4.27-7.95-8.16-8.16v8.16h8.16ZM561.63,397.32c-3.55.44-7.55,4.59-7.68,8.16h7.68v-8.16ZM411.39,397.8v7.68c1.36-.05,2.74.06,4.1,0s.71-1.51.49-2.43c-.48-1.94-1.64-3.29-3.14-4.53-.48-.4-.62-.91-1.44-.72ZM407.55,407.4h-19.68v65.74h19.68v-65.74ZM435.87,407.4h-26.88v16.08c0,.08.65.76.96.72v-7.44c0-.36.91-1.73.48-2.64,5.19.58,10.37,3.78,10.08,9.6l4.32-.96v37.91c3.29-1.05,10.03,4.51,10.09,7.46,0,.46-.49,1.18-.73,1.18h-9.36v20.63h8.4c.1,0,2.07.49,1.68,1.17-1.07,4.53-3.58,7.52-8.15,8.66,3.71,2.18,8.04,4.5,8.16,9.36h-9.6v1.44s6.75.21,6.75.21l.45,2.19h9.6c.75,5.5-4.33,10.19-9.6,10.08v14.4h48v-.96h-8.88c-1.32-1.07-.7-3.03-.12-4.44,1.28-3.08,5.74-5.3,9-5.16v-106.53c-2.79.28-5.54-.83-7.21-3.11-1.02-1.41-2.26-4.28-.72-5.52h7.92v-4.32h-27.84v7.2h-.96v-7.2h-14.88v7.68h-.96v-7.68ZM507.87,407.4h-25.92v13.92h25.92v-13.92ZM521.79,407.4h-12.48v74.38h56.88l.72-.72v-73.66h-38.4v50.38h-6.72v-50.38ZM522.27,407.4v49.9h5.76v-49.9h-5.76ZM649.95,407.4h-82.08v38.39h27.84v.48h-27.84v35.51h31.2v54.22l-31.2.48.04,2.85c5.25.62,9.46,5.25,9.09,10.59l-9.12.48c-.07,1.89.6,4.78-1.77,5.17l-52.69.09-.3,1.4c-.7-.18-1.84.55-2.12.55h-7.92c.63,4.73,5.49,7.87,10.08,7.68v4.8h69.84l.72.72v36.23h-84.96v85.41h151.2l-9.15-25.19c-.06-.4.52-1.2.75-1.2h8.4c.83-5.55-4.18-8.47-9.12-8.64v-50.38h-42.24v-33.59h.48v32.15h41.76v-56.14h9.12c.61-4.66-3.9-8.18-8.16-8.64-.95-.78,3.27-2.36,3.8-2.68,1.74-1.05,4.17-3.12,4.37-5.27.05-.57-.25-1.65-.73-1.65h-7.68l-.72-.72v-19.19l9.12-28.31v-75.58ZM480.51,412.68h-7.68c.09,3.97,3.71,7.27,7.68,6.72v-6.72ZM408.99,425.16v47.99h14.4v-48.47l-3.78-.55c.05-4.72-3.46-8.51-8.22-8.57l-.48,9.6h-1.92ZM507.87,422.76h-25.2l-.72.72v36.95c0,.82,2.57.71,3.38.94,3.72,1.07,6.98,5.48,6.7,9.38l-10.08.48c-.16.13.62.96.72.96h25.2l-.03-4.28c-3.66-.33-7.15-3.2-8.69-6.42-.28-.58-1.56-3.69-.15-3.69h8.88v-35.03ZM507.87,458.74h-8.64c.85,3.37,4.07,7.39,7.66,7.96.52.08.98-.31.98-.52v-7.44ZM424.83,461.62v6.72c2.78.13,5.21.03,7.93-.48.6-.11.88.28.72-.72-.32-2.01-6.26-6.29-8.65-5.51ZM491.07,469.78c-.56-4.34-4.56-8.36-9.12-7.68v7.68h9.12ZM496.83,473.62h-14.16l-.72.72v34.07l.72.72h25.2v-35.51h-1.44c.06,1.67-.1,3.37,0,5.04.06,1.08,1.13,3.12.04,3.86-4.89.78-9.59-4.07-9.63-8.91ZM505.47,473.62h-7.68c.34,4.24,3.54,7.47,7.68,8.16v-8.16ZM423.39,475.06h-35.52v57.58h19.68v-22.07h16.32v-2.4h10.08c-1.34-4.99-6.58-7.04-11.04-8.4-.2-1.14.51-.58,1.19-.72,5.21-1.02,8.21-2.13,9.85-7.67l-10.56-.48v-15.84ZM598.11,482.74h-30.24v52.78h6.24v-48.47h18.72v47.99h5.28v-52.3ZM511.71,507.21s-.36.08-.4-.08l-.08-21.51h5.76s0-2.4,0-2.4h-7.68v25.91h6.96c.29,0,1-1.15.72-1.44h-4.95c-.47-.06-.31-.46-.33-.48h6.24s0,1.92,0,1.92h10.56v-1.92c1.08-.12,6.24.46,6.24-.72v-20.87h-6.72c.06-.9.1-1.85-.72-2.4h-9.36v2.88s-6.24,0-6.24,0v21.12ZM537.15,483.22h-8.16v1.92s6.24,0,6.24,0v21.83c0,1.15-4.73.61-5.76.72v1.44h7.68v-25.91ZM545.79,483.22h-6.72v22.07h26.88v-22.07h-7.68v1.92s6.24,0,6.24,0v18.23h-.96c-.23-.19.48-.61.48-.72v-17.03h-6.72c.06-.9.1-1.85-.72-2.4h-9.84v1.92s-5.76,0-5.76,0v17.51c0,.11.71.53.48.72h-.96s0-17.99,0-17.99c0-1.11,4.32-.64,5.28-.72v-1.44ZM649.95,530.24v-43.19c-.72,0-.9,1.44-1.09,2.03-1.01,3.07-6.59,19.07-6.59,20.77v20.39h7.68ZM574.59,487.54v47.99h12v-47.99h-12ZM592.35,487.51h-5.28v47.53h5.28v-47.53ZM565.95,506.73h-26.88v3.84s-27.58-.02-27.58-.02c-9.03.63-18.97-.75-27.89,0-.49.04-1.66.22-1.66.74v13.68h71.04c-.18-5.33,4.41-9.63,9.6-9.6l.49,9.58h2.87s0-18.22,0-18.22ZM430.59,512.01h-21.12v25.43h21.12v-14.16c0-.14.54-.74.54-1.14,4.83.36,10.25-2.96,10.02-8.21h-9.84l-.72-1.92ZM561.63,516.33c-4.2.7-7.89,4.21-7.68,8.64h7.68v-8.64ZM500.19,526.88h-18.24v9.84l.72.72h16.8l.72-.72v-9.84ZM565.95,526.88h-64.32v26.87h64.32v-4.32s10.08-.72,10.08-.72c-.62-4.98-5.04-8.93-10.08-8.39v-13.44ZM480.51,527.84c-3.11-.7-8.94,3.38-8.67,6.48.18,2,2.01.77,3.14.71,1.83-.1,3.7.08,5.53,0v-7.2ZM407.55,534.08h-19.68v30.71h9.12c-.33-5.09,3.77-8.66,8.51-9.52l1.09.64v8.16c0,.08.65.76.96.72v-30.71ZM649.95,544.16v-8.16c-1.84,1.34-3.37,3.42-5.76,3.84l5.76,4.31ZM430.59,538.88h-21.12v25.91h10.56c-.03-5.42,4.4-10.74,10.08-10.08v10.08h.48v-25.91ZM449.31,538.88h-16.8v26.63l-.72.72h-43.92v126.2h61.44v-48.94h-8.4c-.91-.62-.81-1.58-.69-2.6.47-4.16,5.1-7.22,9.09-7v-95.01ZM486.27,538.88h-35.52v153.55h46.56l.03-84.24-1.02-2.82.03-23.78h-9.36l-.72-.72v-41.99ZM487.71,538.88v14.88h12.48v-14.88h-12.48ZM649.95,550.4h-8.16v106.05c3.2.15,5.79,1.89,8.16,3.84v-109.89ZM429.15,555.67c-4.69.12-8.34,4.46-8.16,9.12h7.44l.72-.72v-8.4ZM511.71,555.67h-24v23.99h24v-13.44c-4.91-.52-9.03-4.01-10.01-8.89.26-.52.59-.61,1.13-.71,2.31-.39,4.86-.44,7.2-.48.58,0,1.79.35,1.68-.48ZM405.63,556.63c-4.29-.29-7.87,4.03-7.68,8.16h7.68v-8.16ZM537.15,571.51v8.88c-.69.98-1.97.82-3.09.69-4.16-.5-6.92-4.79-6.58-8.78l-.65-.79h-13.68v8.88c0,.13-1.51,1.2-1.68,1.2h-13.68l.96,23.99h39.36v-34.07h-.96ZM536.19,571.51h-7.68c-.61,4.8,2.64,9.14,7.68,8.64v-8.64ZM540.03,571.51v34.07h42.24v-34.07h-31.68c.01,3.21-2.03,6.33-4.64,8.08-1.06.71-4.75,2.63-5.38.73-.02-2.78.55-5.25.42-8.1-.04-.79-.43-1.34-.96-.71ZM549.63,571.51h-7.68v8.64c4.1-.78,7.36-4.48,7.68-8.64ZM449.31,634.85c-2.69-.31-6.04,1.62-7.3,3.98-.4.74-1.46,3.7-.14,3.7h7.44v-7.68ZM649.95,667h-8.16l8.16,21.59v-21.59Z"/>
    <path d="M636.03,417.48v58.06c-1.84.54-.57-2.49-.96-2.88h-17.28s0,2.88,0,2.88c-.13.16-.96-.61-.96-.72v-38.63c-1.17-.22-3.77.55-3.84-.48h1.44v-17.76c-.64-.16-2.4.08-2.4.72v16.08h-.48v-16.79c-1.11.49-4.14-.24-4.58.46s.23,2-.7,1.94l.48-2.88h29.28ZM614.91,417.96v17.75h20.16v-17.75h-20.16ZM635.07,436.19h-17.28v1.92h17.28v-1.92ZM635.07,438.59h-16.56c-1.07,0-.27,4.68-.72,5.76h17.28v-5.76ZM635.07,444.83h-16.56c-.75,0-.84,2.19-.72,2.88h17.28v-2.88ZM635.07,448.19h-16.56c-.64,0-.88,1.76-.72,2.4h17.28v-2.4ZM635.07,451.07h-16.56c-1.08.82-1.08,2.54,0,3.36h16.08v.48h-16.8v2.4h17.28v-6.24ZM635.07,457.79h-16.56c-.95,0-.95,2.88,0,2.88h16.56v-2.88ZM635.07,461.14h-16.56c-.64,0-.88,1.76-.72,2.4h17.28v-2.4ZM635.07,464.02h-16.56c-.17,0-.92.84-.72,1.2-.19.36.55,1.2.72,1.2h16.56v-2.4ZM635.07,466.9h-16.56c-.64,0-.88,1.76-.72,2.4h17.28v-2.4ZM635.07,469.78h-16.56c-.17,0-.92.84-.72,1.2-.19.36.55,1.2.72,1.2h16.56v-2.4Z"/>
    <path d="M609.15,426.59c-.58,1.26-.58-3.66,0-2.4.07.15.07,2.24,0,2.4Z"/>
    <path d="M594.99,465.46c.31,0,.31.48,0,.48s-.31-.48,0-.48Z"/>
    <path d="M543.39,527.36v12h-27.36v.48h25.92v.48h-12v12h1.92v-6.72h.48v6.72h1.92c.02-.87-.02-1.76,0-2.64.01-.58-.36-1.79.48-1.67v4.32s1.89-.03,1.89-.03l.51-1.41c.06.87-.49,1.36.7,1.45,1.25.09,2.59-.04,3.87-.01.58.01,1.79-.36,1.68.48h-40.32v-25.43h40.32ZM503.55,527.84v24.47h12v-24.47h-12ZM517.95,527.84h-1.92v11.04h1.92v-11.04ZM520.83,527.84h-2.4v11.04h2.4v-11.04ZM523.71,527.84h-2.4v11.04h2.4v-11.04ZM526.59,527.84h-2.4v11.04h2.4v-11.04ZM529.47,527.84h-2.4v11.04h2.4v-11.04ZM532.35,527.84c-.64-.16-2.4.08-2.4.72v10.32h2.4v-11.04ZM534.75,527.84h-1.92v11.04h1.92v-11.04ZM537.63,527.84c-.64-.16-2.4.08-2.4.72v10.32h2.4v-11.04ZM540.51,527.84h-2.4v11.04h2.4v-11.04ZM542.91,527.84h-1.92v11.04h1.92v-11.04ZM517.95,540.32h-1.92v12h1.92v-12ZM521.31,552.32v-11.28c0-.95-2.88-.95-2.88,0v11.28h2.88ZM523.71,540.32h-1.92v12h1.92v-12ZM526.59,540.32c-.64-.16-2.4.08-2.4.72v11.28h2.4v-12ZM529.47,540.32c-.64-.16-2.4.08-2.4.72v11.28h2.4v-12Z"/>
    <path d="M504.03,354.62h13.92v14.4h-13.92v-14.4ZM516.51,356.06l-11.52-.48v12h11.52v-11.52Z"/>
    <path d="M520.83,354.62h13.92v14.4h-13.92v-14.4ZM533.31,356.06l-11.52-.48v12h11.52v-11.52Z"/>
    <path d="M470.43,354.62h13.92v14.4h-13.92v-14.4ZM482.91,356.06l-11.52-.48v12h11.52v-11.52Z"/>
    <path d="M553.95,354.62h13.92v14.4h-13.92v-14.4ZM566.91,356.06c-3.86.03-7.62-.81-11.52-.48v12h11.52v-11.52Z"/>
    <path d="M453.15,354.62h13.92v14.4h-13.92v-14.4ZM466.11,356.06c-3.86.03-7.62-.81-11.52-.48v12h11.52v-11.52Z"/>
    <path d="M537.15,354.62h13.92v14.4h-13.92v-14.4ZM550.11,356.06c-3.86.03-7.62-.81-11.52-.48v12h11.52v-11.52Z"/>
    <path d="M587.55,354.62h13.92v14.4h-13.92v-14.4ZM600.51,356.06c-3.86.03-7.62-.81-11.52-.48v12h11.52v-11.52Z"/>
    <path d="M500.67,355.1v13.92h-13.92v-14.4c4.69-.3,9.27.42,13.92.48ZM499.71,356.06h-11.52v12h11.52v-12Z"/>
    <path d="M618.27,355.1v13.92h-13.92v-14.4l13.92.48ZM616.83,356.06h-11.52v12h11.52v-12Z"/>
    <path d="M584.67,355.1v13.92h-13.92v-14.4l13.92.48ZM583.23,356.06h-11.52v12h11.52v-12Z"/>
    <path d="M450.75,355.1v13.92h-13.92v-14.4l13.92.48ZM449.31,356.06h-11.52v12h11.52v-12Z"/>
    <path d="M430.11,189.07c-.09-.53.46-.46.48-.48-.02.02.06.57-.48.48Z"/>
    <path d="M595.23,15.84c-.16-.16-.32-.33-.48-.48.16.16.36.28.48.48Z"/>
    <path d="M575.55,320.55c-.38-.17-.58-.25-.96-.48.04.03.91.47.96.48Z"/>
    <path d="M595.71,16.32c-.53.09-.46-.46-.48-.48l.48.48Z"/>
    <path d="M432.03,188.59c.11-.16.32-.44.48-.48-.13.18-.32.32-.48.48Z"/>
    <path d="M430.59,188.59c.16-.16.32-.32.48-.48-.16.16-.32.32-.48.48Z"/>
    <path d="M431.07,188.11c.16-.16.31-.32.48-.48-.16.17-.32.32-.48.48Z"/>
    <path d="M431.55,187.63s-.06-.57.48-.48c.09.53-.46.46-.48.48Z"/>
    <path d="M428.19,187.63c-.09-.54.45-.45.48-.48-.05.05.06.56-.48.48Z"/>
    <path d="M428.67,187.15c.16-.16.29-.35.48-.48-.06.25-.36.34-.48.48Z"/>
    <path d="M427.23,187.15l.48-.48-.48.48Z"/>
    <path d="M430.59,186.67l.48-.48-.48.48Z"/>
    <path d="M429.15,185.71c-.44.35-.98.63-1.44.96l1.44-1.92c0,.32,0,.64,0,.96Z"/>
    <path d="M427.23,185.23c.12-.26.4-.36.48-.48-.16.14-.28.33-.48.48Z"/>
    <path d="M427.71,184.75c.13-.19.32-.33.48-.48-.14.18-.31.33-.48.48Z"/>
    <path d="M428.19,184.27s-.06-.57.48-.48l-.48.48Z"/>
    <path d="M424.83,184.27c-.08-.54.45-.45.48-.48l-.48.48Z"/>
    <path d="M425.31,183.79c.16-.16.3-.34.48-.48-.12.19-.3.34-.48.48Z"/>
    <path d="M594.75,15.36c-.16-.15-.34-.39-.48-.48.18.15.32.32.48.48Z"/>
    <path d="M594.27,14.88c-.21-.14-.4-.45-.48-.48.19.14.32.35.48.48Z"/>
    <path d="M425.31,181.87l.48-.48-.48.48Z"/>
    <path d="M421.83,181.99l.6-.6-.6.6Z"/>
    <path d="M422.43,181.39c.14-.18.32-.32.48-.48-.16.16-.3.34-.48.48Z"/>
    <path d="M422.91,180.91c.16-.16.32-.32.48-.48-.16.16-.32.32-.48.48Z"/>
    <path d="M423.39,180.43c.16-.16.29-.35.48-.48-.13.19-.32.32-.48.48Z"/>
    <path d="M423.87,179.95l.6-.6-.6.6Z"/>
    <path d="M420.51,179.95c-.09-.53.46-.46.48-.48-.02.02.06.57-.48.48Z"/>
    <path d="M630.27,90.7c-.51-.81-.3-.83-.48-1.44.01.07.45,1.37.48,1.44Z"/>
    <path d="M630.75,91.18c-.13-.16-.35-.27-.48-.48.05.1.34.27.48.48Z"/>
    <path d="M631.23,91.66c-.18-.15-.34-.3-.48-.48.07.11.38.42.48.48Z"/>
    <path d="M631.71,92.14c-.2-.15-.33-.35-.48-.48.19.12.35.29.48.48Z"/>
    <path d="M420.99,179.47c.16-.16.32-.32.48-.48-.16.16-.32.32-.48.48Z"/>
    <path d="M441.15.49c.68,5.41.46,10.86.48,16.31h16.8c1.25-5.37-.51-11.09,1.44-16.31h12v16.79h14.4V1.21l.72-.72h108.48c.17,0,2.28,2.17,2.4,2.41.32.65.05,1.86.51,1.93h27.27s2.71-4.1,2.71-4.1l42.43-.2c8.06,1.59,13.95,8.47,15.18,16.49l-.02,198.68c-.67,6.98-5.16,5.77-10.56,5.52v16.79h6.96c.77,0,3.03,2.57,3.34,3.38l.21,77.92c-1.22,8.56-9.01,17.67-18.04,17.88-.74.02-1.48-.35-2.29-.34-93.43.95-186.94-1.21-280.37,0-1.03.01-1.93.52-2.81.48-5.01-.2-12.14-5.03-14.9-9.12-1.15-1.7-1.31-3.88-3.39-4.77l-.25-304.97c.79-6.84,5.26-12.89,11.22-16.14.62-.34,3.58-1.84,3.92-1.84h62.16ZM573.15,318.63c-.16-.29-.41-.55-.58-.84l-187.76-.19c-.26-.08-.79-.5-.79-.65v-32.15c-.66-.84-2.06-1.17-2.73-1.83-.53-.52-2.86-4.11-.63-3.69-1.63,1.72,3.22,5.44,3.84,4.79v-4.32s-2.88,0-2.88,0l2.4-.48V19.44c0-.31.82-1.82,1.2-2.16h54.96V4.09c0-.56-1.67-2.55-2.62-2.18l-57.11.06c-7.75,1.83-13.45,8.46-15.03,16.16l-.14,296.93c.6,10.06,4.99,17.15,14.88,20.16h289.97c8.2-2.09,13.5-9.05,14.33-17.35l-.17-76.05c-.93-2.22-3.03-1.63-4.83-1.87-4.06-.53-8.09-1.29-12.21-.94l-.27,1.41-28.08-.49v-1.44l36-.48v-17.27c-1.85.22-4.24-.32-5.99,0-2.03.37-1.31.46-3.83.45-13.04-.09-26.1.12-39.14.03v-29.27h-2.88c0-2.2,2.76-1.29,4.32-1.44v28.55l.72.72h38.16v-30.71h-12.96v6.96c-1.25,1.77-5.42-.54-5.77,1.91-.14.99.61,3.32-.72,3.13-1.41-.2-3.14-1.67-3.83-2.88-1.16,1.32-2.56,2.43-4.31,2.87-.83-.17-1.2-3.42-1.23-4.3l-4.31-.49v-39.35h1.44v9.6h31.68v-24.95h-31.68v10.08h-1.44s.03-58.74.03-58.74c-.06-.29-.96-.39-1.47-.77l34.56.48v-6.24h-31.68v1.92s-4.8,0-4.8,0c.03.31-.06.68,0,.96-.07-.24-.82-.63-.48-1.44h3.84s0-1.44,0-1.44h-5.76c-.18-1.19.46-4.46-.45-5.07l-29.79-.21c-.04.9.35,4.8-.72,4.8h-11.28v13.92h-11.52v-51.1l.72-.72h52.32c1.13-1.01,1.13-3.79,0-4.8h-37.2l-.24-4.32-3.36,3.36-4.07-3.36v4.32h-8.64c-.06,0,.06-.76-.48-1.17-.84-.63-2.47-1.04-3.36-2.19v26.87h-1.92c-.05-1.35.06-2.73,0-4.09-.03-.59.13-.96-.71-.71-2.33.7-2.68,3.12-3.83,4.33-.77.8-2.69,1.85-3.62,2.62,0,1.19,2.92,2.21,3.58,3.14.4.56.4,1.45.8,2.08.89,1.4,2.05,2.07,3.54,2.7l.24-4.32h1.92v26.63c0,.34-1.14,1.21-1.69.25-.49-.84-.19-2.57-.22-3.62-.03-.69.19-.86-.67-.67-2.84.64-2.73,2.29-4.13,4.04-.76.96-3.53,2.46-3.35,3.32.11.49,2.64,2.03,3.35,2.91,1.4,1.75,1.29,3.4,4.13,4.04.86.19.65.03.67-.67.04-1.05-.26-2.78.22-3.62.55-.95,1.69-.08,1.69.25v27.11h-1.92s0-4.32,0-4.32c-1.34-.34-2.99.78-3.58,1.94-.3.58-.19,1.37-.51,1.89-.64,1.04-3.87,1.96-4.07,3.61,0,.27,3.35,1.8,3.72,2.29,1.22,1.6.27,3.84,3.78,4.63.86.19.64.03.67-.67.05-1.14-.28-3.23.22-4.1.55-.95,1.69-.08,1.69.25v27.11h-1.92s0-4.32,0-4.32c-1.35-.15-2.85.82-3.58,1.93-.52.79-.54,1.82-.86,2.26-.43.57-3.28,2.26-4.19,2.53.55,1.6,3.34,2.86,4.06,3.85.42.58.47,1.58,1,2.36.74,1.11,2.22,2.08,3.58,1.93.15-1.13-.33-2.88.23-3.85s1.69-.08,1.69.25v19.19l-1.75,1.68-18.1.06c-1.41,1.93-2.12,3.73-5.11,3.29-.07-1.03.42-2.91-.78-3.3-2.23-.72-10.33.67-11.73-.27-.78-2.42-.26-5.14-3.81-5.07v5.28h-22.56v-1.44s3.84,0,3.84,0c.45-3.87-2.54-3.12-4.11-4.29-.86-.64-2.1-4.17-3.32-3.87-.46.11-1.82,2.95-2.61,3.63-1.66,1.42-4.4.96-3.87,4.53h4.32s0,1.44,0,1.44h-22.56c1.4-7.25-4.74-5.38-4.32,0h-12.48c-1.04-9.23-.24-18.71-.45-28.03-1.29-.57-2.45-.8-3.63-1.72-1.01-.79-3.41-3.61-1.37-4.25l4.98-.06.48-139.64h-1.92s0-1.92,0-1.92h-16.08c-.15,0-.84.7-.64,1.09l.35,64.36-.91.53-11.07-18.46-10.06,5.51,22.08,38.38-1.9.71-10.33-18.19-9.81,5.95,20.69,36.39c.07.43,2.04,2.96.63,3.2-.88.15-1.12-.89-1.45-1.43-3.58-5.91-6.49-12.26-10.31-18.04-.5-.37-.85-.04-1.29.16-.96.45-8.18,4.72-8.28,5.19l21.6,37.36.46,2.18c-.83.16-1.21-.41-1.66-.98-3.39-4.36-6.87-11.89-9.97-16.92-.23-.38-.36-.84-.38-1.29l-9.59,5.52-.5.94,21.52,38.5c.83,9.57-.79,20.22.09,29.66.53,5.69,6.06,12.94,10.33,16.54.88.75,6.04,4.33,6.71,4.33h79.2c.18,0,.82.72.72,1.19-.29,1.32-5.84.51-7.2.72-.52.52.29,12.48.03,14.67-.13,1.14-.83,1.57-.98,2.38-.32,1.79.5,4.98-.25,6.47l-13.22,13.19-.46,1.69h-64.8v-1.92h13.92v-15.36c-.69-.07-3.36-.14-3.36.72v11.76c-3.46.25-7.27-.56-10.56.48v-1.92s9.12,0,9.12,0v-10.8c0-1.07,6.24-1.07,6.24,0v14.88l.72.72h14.88c1.01,0,.71-3.47.72-4.32h28.8v4.32s4.32-.24,4.32-.24l13.2-13.2.24-7.68c-.9-.04-4.8.35-4.8-.72v-15.12h-12.96c0,.84.29,4.32-.72,4.32h-28.08v-4.32h-16.32v15.84h-6.24v-10.56h-10.56c.29-1.84-.9-6.48,1.29-7.11.75-.22,1.55-.06,2.32-.09.54-.02,1.32.32,1.19-.47-6.33-3.15-14.34-12.75-14.9-19.9-.74-9.57.68-20.01-.08-29.67-7.02-10.74-12.24-23.42-19.17-34.1-.32-.49-.76-1.14-1.37-1.27v18.95c.53,1.55,1.92,1.92,2.89,2.87,1.54,1.5,11.8,11.19,11.99,12.01.28,1.25-1.38,1.05-1.92,1.19.14-.2.55-.86.45-.93-.27-.13-.84.05-.93-.03-.27-.24.64-.44-.96-.96-.06-.02-.16-.52-.62-.4-.36.1-.92.61-1.3.88.06-.24,0-.66,0-.96.32-.26.97-.39.96-.96-.28-.07-.82.09-.96,0-.05-.03-.09-.54-.48-.96-.04-.04.06-.43-.24-.48-.61-.1-3.24,2.24-2.4,2.88.31-.44.79-.65,1.2-.96-.19.44-.29,1.14-.42,1.64.05.3.35.22.42.28.42.39.93.44.96.48.12.19-.26.99.24.96l2.16-1.92-1.44,2.88.96-.48.24.96c.4-.65,1.23-.99,1.68-1.44-.09.14-.04.59-.26.93-.86,1.37-1.64,1.69-1.18,3.87.98-.23,4.32.02,4.32,1.2v7.68c0,1.14-2.09.25-2.63.23-2.98-.07-5.98-.14-8.89.49v-12.96h1.44v11.04h3.84v-9.84l-10.56-10.56V31.2c-1.73,1.37-3.38,2.74-5.76,2.4v-2.4c-1.34-.52-4.69,3.53-4.32,3.83.85-.06,1.81.15,2.64,0,.48-.09,2.64-1.77,2.64-.24v27.59c-2.36.37-1.87-1.57-1.92-3.13-.02-.6.13-.95-.7-.7-2.81.86-2.26,2.52-3.77,4.16-.81.88-2.96,1.46-2.76,3.25.02.17,2.03,1.39,2.68,2.17,1.32,1.6,2.05,4.49,4.55,4.33.03-1.8-.64-4.18,1.92-3.84v39.83c-3.05.39-1.41-3.03-2.16-4.8-2.84.58-2.42,2.48-3.59,4.09-.96,1.33-2.92,1.27-2.94,3.35,0,.83,2.3,1.8,2.94,2.85,1.02,1.66.67,4.08,3.82,3.62l.46-3.62,1.46-.22v39.83h-1.92c-.04-1.19.05-2.41,0-3.61-.07-1.64-2.15.07-2.63.73-.72.99-.52,2.17-.97,2.87-.34.53-1.7.88-2.4,1.44-2.83,2.28.52,2.42,1.7,4.06s1.15,4.62,4.3,4.1v-3.84s1.92,0,1.92,0v14.64c-.83,1.13-2.33.67-3.61.72-.7.02-.84-.17-.72.72.3,2.19,2.01,2.48,3.85,2.88l.48.48v9.84l4.01-.02c.28.09.79,1.15.79,1.22v13.2h-1.44s0-3.84,0-3.84c-3.03-.27-3.7,2.72-5.06,4.3-.72.83-2.42,1.51-3.09,2.66,0,.61,3.45,2.32,3.72,2.75.33.51.13,1.65.85,2.75s2.22,2.08,3.58,1.94v-5.28s1.44,0,1.44,0v27.83h-1.44c-.04-1.19.05-2.41,0-3.61-.03-.69.19-.86-.67-.67-3.11.7-2.36,2.29-3.63,4.05-.66.91-3.59,2.19-3.36,3.3.2.96,3.08,1.91,3.57,2.69.44.7.3,1.81.99,2.85.39.59,1.77,1.74,2.39,1.93.84.25.69-.12.71-.71.07-1.52-.05-3.05,0-4.57h1.44v15.36h-4.8c.23,2.69,2.74,3.32,4.83,4.12.19,1.16.16,11.11-.09,11.89-.39,1.2-2.27.72-3.3.78.06.85-.14,1.81,0,2.64.16.95,1.1,1.19.95,2.16-.39.37-9.16-.22-10.83-.03s-3.4,1.73-5.67.96c-.7,1.49-2.55,4.33-4.4,4.35-2.03.03-.58-3.42-1.63-4.12-4.67-1.08-4.63.48-4.35,4.59h16.32c.15-.9-.58-1.97.73-1.94,1.24.03,2,.61,2.87,1.4.94-1.02,1.62-1.65,3.12-1.39v1.92h32.64c.25,2.18-1.01,1.88-2.64,1.93-.49.01-1.66-.23-1.2.71.62,1.26,2.37,1.59,3.38,2.38,1.31,1.03,2.07,3.1,3.58,4.1.41,0,2.01-2.85,2.85-3.38,1.72-1.07,5.13-.19,4.59-3.81-1.23-.18-3.3.37-4.34-.23-.95-.55-.08-1.69.25-1.69h27.12v1.92c-.88.02-1.76-.02-2.65,0-.41,0-1.66-.22-1.19.72.97,1.94,3.27,1.97,4.2,2.77.48.41,2.61,3.7,3.24,3.71,1.26-.75,1.94-2.54,2.86-3.37,1.05-.94,3.32-1.56,4.09-3.11.47-.94-.78-.71-1.19-.72-.94-.01-2.37.22-3.14-.22-.95-.55-.09-1.69.25-1.69h27.12v1.92s-4.32,0-4.32,0c-.07,2.21,1.94,2.35,3.12,3.35s2.13,2.4,3.44,3.32c1.53.45,2.63-2.42,3.85-2.77,3.26-.95,5.75,4.96,5.43,7.62,2,.41,1.62-1.16,2.39-2.17,1.11-1.46,2.39-2.53,4.33-2.15v-7.2h-11.76c-.5,0-.92-1.36-.72-1.92h12.72c.11,0,.65-.68,1.2-.48v14.4h-1.44s0-3.84,0-3.84c-2.63-.32-3.67,1.91-4.28,4.12l-2.44.2v5.28c2.81-.26,1.89-.11,2.69,1.38,1.04,1.92,1.7,2.11,4.03,1.98v-3.36s1.44,0,1.44,0v6.72h6.24c.33-1.35-.82-.82-1.69-1.41-.96-.66-2.96-2.93-3.12-4.1-.13-.96.05-.67.73-.71,1.4-.09,2.68-.39,4.06-.51l.02-20.14c-1.01-.14-5.04.49-5.28-.73-.29-1.48,3.64-4.61,5.28-4.55v-10.08c-1.36-.04-2.74.06-4.09,0-.78-.03-.76.19-.72-.73.13-2.96,2.82-3.43,4.82-4.79v-15.84l.72-.72h43.68c.87,0,.79,2.67.72,3.36h7.68c-.74-7.48,3.79-1.69,4.98-1.96.4-.09.81-.86,1.3-1.13,2.82-1.59,3.07-.18,2.85,2.61h13.44c-.07-2.55-.64-4.61,2.58-2.82.76.42,1.32,1.29,1.98,1.85,2.35-2.64,5.17-4.09,4.08.97h9.12v-2.88s36.35-.39,36.35-.39c.38-.2,1.09.49,1.09.64v71.02l-91.2.24c-.07.89.25,2.11-.22,2.9-.66,1.09-1.1.04-1.21-.01,1.55.29.66-3.39.48-4.32h90.72l-.48-68.62h-34.08c-.14.93.24,1.59.95,2.16-.23.16-.59.72-.71.72h-11.76v-3.84s-3.6,2.88-3.6,2.88c-.21,0-1.41-2.85-2.88-2.89l-.24,3.84h-15.36v-3.36c-1.7-.25-2.39,1.15-3.12,2.4-1.29,0-1.79-3.33-4.08-2.4l-.45,3.63-9.63.21c.07-.69.15-3.36-.72-3.36h-41.52v16.31c-2.3.19-4.53,1-5.28,3.36h5.28v12c-2.26-.37-4.45,1.04-5.28,3.12l5.28.24v22.07l-4.8.72c.84,2.33,2.97,2.87,4.8,3.84v6.96h34.08c.13.66-.19,1.91,0,2.4ZM470.43,17.28V2.65l-.72-.72h-7.68c-.74,0-1.68,1.54-1.68,2.16v13.2h10.08ZM595.71,16.32l.96.48c-.38-2.45.76-12.5-.59-13.81-.08-.08-1.93-1.07-2.05-1.07h-105.84v15.36h102.24v-3.84c1.65-.22,2.18.07,3.36.96-.33-.13-2.78-.58-2.88-.48v3.36s4.5.01,4.5.01l.3-.97ZM627.39,5.04c-.6,3.52.44,8.53,0,12.24h38.16c.2,0,1.06.65,1.63.53l.56,4.48c.27,63.49-.65,127.12.46,190.52v7.45c2.7.37,5.37-.31,7.91-.49,3.27-.23,7.43,1.17,8.38-3.13l-.02-199.55c-1.27-7.32-6.77-13.73-14.24-15.04l-39.25-.13c-1.74-.04-3.31,1.53-3.59,3.13ZM598.11,41.75h29.28c-.56-3.13.79-21.15-.12-22.46-.09-.13-.65-.1-.85-.41-1.23-1.93.02-11.67-.47-12.16-5.35-.12-10.75.17-16.1.02-3.27-.09-6.57-.81-10.08-.53-.95.08-1.58.1-1.66,1.22v34.31ZM411.39,19.2h-25.44v15.84h10.56c-.04,1.37.59,2.6,1.74,3.3,3.88,2.35,1.19-2.87,1.62-3.29h4.8s0,1.44,0,1.44h-2.88s0,12,0,12h3.84s0,1.44,0,1.44h-16.08c-1.37-1.42-1.28-4.2-3.6-4.32v19.19h17.04c.74-1.22,2.56-2.01,3.34-2.9.67-.77.81-2.12,1.36-2.73.62-.68,2.71-1.64,3.71-1.57v-7.68h-2.4v-1.44h2.4v-12c-7.44.96-3.69-4.22,0-6.48v-10.8ZM418.11,19.2h-4.8v13.44c1.58.47,4.8-2.9,4.8-4.08v-9.36ZM440.67,19.2h-21.12v49.42l18.39-10.65,2.73-2.06V19.2ZM534.27,19.2h-72.96c-.11.38.48.58.48.72v139.16c0,.13-.97,1.05-1.3,1.14-1.2.34-7.05-2.06-4.24,1.52,1.37,1.74,3.42,2.05,5.54,1.9v3.36s72.48,0,72.48,0V19.2ZM567.39,19.2h-31.2v15.84h4.32s0,4.32,0,4.32c2.62.12,3.65-1.88,3.36-4.32.47-.55,12.04.53,14.43-.21.58-.18,2.71-1.67,3.13-2.15.74-.87.73-1.76,1.23-2.61.99-1.68,2.91-2.36,4.74-2.7v-8.16ZM576.99,19.2h-7.68v7.68h11.04c.81-3.12-1.59-2.58-2.43-3.69-.73-.96-1.05-2.78-.93-3.99ZM588.51,19.2h-10.56c-.32,2.77.95,4.52,3.83,4.33l.07,14.32c1.62.3,2.45,1.42,3.59,2.44,1.9-.77,2.34-3.04,4.98-2.38l.54,3.79,5.7.06v-15.36h-7.44c-1.23,0-.56-6.02-.72-7.2ZM596.67,19.2c-1.51.01-3.04-.03-4.56,0-.58.01-1.79-.35-1.68.48,1.51-.01,3.04.03,4.56,0,.58-.01,1.79.35,1.68-.48ZM666.29,19.2h-37.46v65.26h37.46V19.2ZM596.67,20.16h-6.72v.48h6.72v-.48ZM596.67,21.12h-6.24c.04.55-.4,1.06.61.86.92-.18,1.45-.36,2.48-.4.53-.02,2.27-.32,2.18.5-1.94-.01-3.98-.19-5.76.72,1.89,1.75,4.53.02,6.72.24v-1.92ZM596.67,24.48l-1.54-.87-5.18.87h6.72ZM567.39,28.32c-3.51.27-3.43,2.7-4.78,4.57-.65.9-3.64,2.24-3.38,3.33.82,1,2.62,1.46,3.38,2.39,1.47,1.82,1.28,4.06,4.78,4.58.19-1.07-.37-3.59.21-4.36.33-.43,1.16-.28,1.56-.59s.63-1.29,1.59-1.53c-3.7-1.74-3.59-4.73-3.37-8.4ZM580.35,28.32h-11.04c.15,3.52-1.21,7.12,3.21,8.11l.57-.02.06-.89h7.2v-7.2ZM392.19,36.48h-6.24v7.44c0,.19,2.33,1.62,2.89,2.39.42.58.53,1.67.92,1.96.72.54,2.43.09,2.43-.51v-11.28ZM400.35,39.83c-3.62.71-3.69-3.81-6.72-3.36v12h6.72v-8.64ZM536.19,36.48v6.72h11.04v-6.72l-2.36.04c-.18,3.03-2.47,4.17-5.32,3.8v-3.84s-3.36,0-3.36,0ZM567.39,44.15c-3.56.06-4.27-3.73-5.98-5.3-.31-.28-3.24-2.06-3.59-2.17-1.17-.37-6.69-.45-7.95-.22-.4.07-1.19.4-1.19.73v10.32c-2.36-.06-3.6,1.55-3.36,3.84h22.08v-7.2ZM580.35,36.95c-1.61.25-4-.34-5.46,0-.38.09-.22.89-.61.97-1.34.31-4.72-.92-3.96,1.13,1.14,3.05,7.38,2.84,10.02,2.7v-4.8ZM547.23,44.63h-11.04v6.72h7.44c1.01-.83.62-2.25,1.44-3.35.9-1.21,2.73-1.06,2.16-3.36ZM579.89,49.43h-4.82v48.97h4.82v-48.97ZM581.29,49.43v5.28h46.1v-5.28h-46.1ZM567.39,52.79h-31.2v15.36c1.44.11,3.59-.63,3.85,1.19.14,1.04-.62,2.73.72,2.66,2.61-.13,2.7-1.52,2.63-3.85.49-.57,12.65.44,15.02-.09.64-.14,3.25-2.01,3.71-2.53,1.46-1.64,2.05-4.76,5.26-4.57v-8.16ZM627.39,56.15h-46.08v23.51h46.08v-23.51ZM440.67,58.55c-.94-.03-1.75.63-2.55,1.05-2.42,1.29-4.78,2.92-7.05,4.47,3.12,4.5,5.71,9.33,8.53,14.01.3.49-.09.85,1.06.63v-20.15ZM402.99,66.23h-17.04v14.88h10.8c1.3,2.15.36,4.4,4.08,3.84l-.48-3.84h4.8s-.46,1.69-.46,1.69l-2.42.22v11.04s2.88,0,2.88,0v1.44h-15.36c.03-1.92-1.91-3.71-3.84-3.36v17.75h17.52c.2,0,2.95-2.36,3.14-2.62,1.37-1.91,1.23-4.27,4.78-4.58v-7.2h-2.88v-1.44h2.88v-10.8c-.55-.83-1.5-.77-2.4-.72v-1.44s2.4,0,2.4,0v-7.68c-1.67.11-3.44-1.33-4.26-2.7-.39-.64-.36-1.55-.67-1.97-.13-.17-3.26-2.47-3.47-2.53ZM536.19,70.06v6.72h10.56v-6.72c-3.17-.67-2.05.98-3.37,2.15-1.13,1-2.9.72-4.31.73v-2.88s-2.88,0-2.88,0ZM558.51,70.06c-2.64-.56-6.98.41-9.84,0v10.8c-2.05,1.21-3.87,1.65-3.36,4.56h22.08v-7.68c-1.79-.32-3.81-1.64-4.74-3.18-.39-.64-.36-1.56-.67-1.97-.13-.17-3.26-2.48-3.47-2.52ZM419.55,73.9v21.11c.77.18,1.12-.17,1.7-.46,1.01-.5,7.81-4.59,7.85-5.05-2.95-4.93-5.63-10.01-8.48-14.99-.3-.53.06-.83-1.07-.62ZM546.75,78.22h-10.56v7.2h8.16c-.07-.98-.03-1.83.36-2.76.75-1.76,3.32-2.04,2.04-4.44ZM581.31,81.1v17.27c1.69.11,2.28.11,2.42-1.66.41-5.2-.38-10.47-.5-15.62h-1.92ZM595.23,81.1h-10.08c-.04,1.01-.22.91.71.96.66.03,3.61-.21,3.61.24l-4.32.72h10.56c-.92-1.77-3.67-.68-5.28-.96l4.8-.96ZM391.71,82.54h-5.76v8.16c2.11.21,4.23,1.79,4.81,3.84.31.03.95-.64.95-.72v-11.28ZM400.83,94.06v-7.44c-.77-1.06-2.02-.46-3.15-1.17-1.57-.99-.78-3.78-4.05-2.91v11.52h7.2ZM595.23,83.5h-10.08v.96h10.08v-.96ZM567.39,86.86h-31.2v14.88l3.87.21c1.2.8-.45,3.86,1.17,3.64,2-.27,2.77-1.94,2.65-3.84l14.06-.1c.66-1.08,3.62-2.35,4.04-2.92.3-.41.28-1.33.66-1.97.98-1.64,2.79-2.71,4.74-2.7v-7.2ZM634.59,94.54v19.19h31.68v-19.19h-31.68ZM419.55,100.3v20.15c.77.18,1.12-.17,1.7-.46,2.46-1.21,5.03-3.17,7.42-4.6-2.74-4.79-5.31-9.69-8.05-14.48-.3-.53.06-.83-1.07-.62ZM536.19,109.41h11.04v-6.24c-3.16-.65-2.04.94-3.38,2.15-2.41,2.18-5.15,1.57-4.3-2.15h-3.36s0,6.24,0,6.24ZM567.39,110.37c-3.69.09-4.22-2.91-5.98-4.82-.36-.39-3.18-2.38-3.38-2.38h-9.36v10.32c0,.31-4.6,1.95-3.36,4.56h22.08v-7.68ZM402.99,111.33h-17.04v14.88h11.04c-.27,1.82,1.36,4.91,3.36,4.08v-4.08s4.8,0,4.8,0v1.92s-2.88,0-2.88,0v11.52h3.36s0,1.44,0,1.44h-14.64c-.28,0-2.19-3.93-4.28-3.34-.18.05-.76.64-.76.7v17.03h17.52c.21,0,3.38-2.33,3.49-2.51.24-.38.08-1.19.37-1.77.87-1.77,2.16-2.43,3.99-2.98l.07-7.14-1.86-.06-.54-1.38h2.4v-11.52l-2.4-.72c-.24-1.19,1.66-1.29,2.39-1.21v-7.65c-3.64.34-3.42-2.11-4.78-4.1-.26-.38-3.38-3.04-3.61-3.11ZM547.23,111.33h-11.04v6.72h7.68c.24-1.04.56-2.51,1.21-3.35.92-1.21,2.72-1.07,2.15-3.36ZM634.59,115.17v24.47h31.68v-24.47h-31.68ZM567.39,119.97h-31.2v14.4c1.44.11,3.59-.63,3.85,1.19s-.84,3.82,2.28,2.29c1.63-.8,1.05-3.38,1.86-3.5l14.25-.07c.78-.97,3.49-2.2,4.04-2.92.45-.59.53-2.43,1.21-3.11.64-.64,2.76-1.18,3.72-1.08v-7.2ZM419.55,126.21v20.63l9.15-5.07c.09-.94-1.74-3.77-2.34-4.85-1.53-2.73-3.32-5.81-4.98-8.46-.48-.76-.99-1.88-1.83-2.25ZM391.71,128.13h-5.76v8.64c2.79-.52,3.86,1.47,5.76,2.88v-11.52ZM393.15,128.13v11.52h7.2v-8.16c-1.94.01-3.78-1.3-3.89-3.31l-3.31-.05ZM536.19,135.8v6.72h11.04c-.23-1.34.51-5.84-.45-6.51-2.02-1.4-2.45,1.35-3.16,2.17-1.09,1.26-3.03.98-4.55.98l-.21-2.91-2.67-.45ZM567.39,143.48c-3.97.14-4.06-3.16-5.75-5.05-.25-.28-3.39-2.63-3.61-2.63h-9.36v11.04c-2.74.07-3.8,1.65-3.36,4.32h22.08v-7.68ZM536.19,151.16h7.44c1.08-.87.53-2.28,1.25-3.54.58-1.01,2.12-1.41,2.31-2.02s-.28-1.64-.68-1.64h-10.32v7.2ZM536.19,152.6v7.2h6.72l.02-3.04c-1.87-1.17-3.16-1.51-2.91-4.14h-3.83ZM567.39,152.6h-26.4c-.1,2.13.82,2.82,2.84,2.92l-.17,4.79c-.78,1.18-3.89-.57-3.09,1.59.91,2.44,4.95.82,3.78,5.1h13.68c.21,0,3.02-1.98,3.38-2.38,1.73-1.89,2.35-5.29,5.98-4.82v-7.2ZM411.39,164.12c-3.83.44-3.74-2.63-5.27-4.57-.27-.34-2.48-2.15-2.65-2.15h-17.52v14.4h25.44v-7.68ZM542.91,166.99c1.09-2.96-1.29-2.14-2.67-3.81s-.48-3.03-4.05-2.43v6.24h6.72ZM666.27,167.95h-31.68v19.67h31.68v-19.67ZM476.67,168.43h-14.88v23.03h10.08c-.28-2.76,2.72-4.71,5.28-4.32l-.04-9.56c-2.28,0-4.94-2.37-5.25-4.59-.13-.9.03-.69.72-.73,1.36-.06,2.74.04,4.09,0v-3.84ZM484.83,168.43h-6.72c-.23,1.49.81,4.52-1.19,4.8-.67.09-3.61-.26-3.61.24.36,2.24,2.81,3.16,4.79,3.13v2.39h6.73v-10.56ZM501.63,168.43h-14.64l-.72.72v13.68l4.28.03c.63,1.35-.02,2.92-.91,4.05-1.07,1.34-4.62,2-3.16,4.1.68.98,5.75.19,7.17.47.46-.07.96-2.79,1.72-3.64.95-1.05,2.27-.93,3.16-1.64.2-.16,3.1-3.84,3.1-4.1v-13.68ZM517.95,168.43h-14.88v14.16c0,.21,2.22,3.17,2.42,3.34.98.82,2.64.69,3.57,1.71.78.86,1.32,2.65,1.22,3.82h7.2v-13.68c-1.53-1.18-2.92-.85-3.87-2.85-1.68-3.53,1.92-2.61,4.35-2.67v-3.84ZM526.59,168.43h-7.2v4.8c-.91.08-5.29-.39-5.27.72.91,2.23,3.14,2.26,5.24,2.68l.03,2.85h7.2v-11.04ZM528.03,168.43v15.12c-1.27,1.05-3.69.79-3.84,3.12,4.41.15,7.93-.82,8.64,4.8h9.6l.48-23.03c-2,.02-4.01-.02-6.01,0-1.32,0-2.5.01-3.83,0-1.68-.02-3.37.02-5.05,0ZM544.35,168.43v11.04h5.76s0-2.88,0-2.88h1.44v14.88h15.84v-14.88c-1.97.25-3.73-1.12-4.74-2.7-.4-.63-.4-1.53-.8-2.08-.15-.21-3.66-3.22-3.91-3.29-1.59-.47-4.18.16-5.91-.09.4,5.05-2.4,5.27-1.92,0h-5.76ZM393.15,173.71h-7.2v6.72h11.04l-.04-2.84c-2.24-.1-3.83-1.6-3.8-3.88ZM408.03,173.71h-13.92c.1,2.24,1.86,2.76,3.84,3.12l.48.48v11.28h12.96v-9.6c0-.08-1.07-.16-1.61-.53-1.4-.96-2.52-3.16-1.75-4.74ZM422.43,178.03c-.21-.17-1.3-3.28-2.88-2.88l-.02,4.49.98.3v.96s2.88-2.64,2.88-2.64c.04-.5-.8-.11-.96-.24ZM422.45,182.61l2.64-2.64-1.24-1.24-2.64,2.64,1.24,1.24ZM425.79,181.39l-.24-.96-2.4,2.4,2.16-.96-1.44,2.16.96.24.24.96,2.4-2.4c.53-1.29-1.57.39-1.68.48.24-.39.2-1.33.96-1.68l-.96-.24ZM478.59,180.43v11.04h6.24s0-3.84,0-3.84c1.53.2,3.47-.31,4.35-1.65.5-.76,1.1-2.13-.25-2.19s-2.74.05-4.1,0v-3.36s-6.24,0-6.24,0ZM526.59,191.47l-.21-3.39c-.72-1.08-5.22.57-2.88-2.82.85-1.23,3.46-2.28,3.09-3.63s-5.87-.49-7.2-.72v10.56h7.2ZM550.11,181.39h-5.76c.27,2.82-.35,6.16-.03,8.91.18,1.55,1.65,2.97.99,5.01,2.24-.07,2.73-1.91,2.91-3.8l1.89-.03v-10.08ZM396.99,181.87h-11.04v6.72h2.4c.55-.54-1.54-5.59,2.64-2.4.93.71,1.32,1.55,2,2.42l4-.02v-6.72ZM416.67,198.19v-7.44c0-.53-1.17-.7-1.66-.74-3.29-.28-21.82.57-22.85-.19-.5-.37-.73-2.45-2.14-3.14s-.43,3.08-.71,3.36h-3.36s0,15.35,0,15.35h21.36c.24,0,3.52-2.55,3.82-2.9,1.53-1.77,2.09-4.76,5.54-4.3ZM651.39,189.07h-16.8c.25,1.39-.68,5.72.78,6.18.92.29,2.76-.34,3.33.51l.21,3.87c2.27.27,2.73-3.13,4.55-2.89.44.06.82,2.89,2.89,2.9l.24-4.32h4.8s0-6.24,0-6.24ZM432.99,195.3h-2.4v5.76h2.4v-5.76ZM392.67,206.82h-6.72v6.72h10.56c.88-3.62-3.99-3.02-3.84-6.72ZM407.31,206.82h-13.68c.1,2.24,1.86,2.76,3.84,3.12l.48.48v11.76h18.72v-7.68c-2.05-.06-3.4-.78-4.42-2.54-.47-.82-.68-2.2-.99-2.61-.14-.19-3.72-2.47-3.95-2.52ZM395.79,214.98h-9.84v7.2h2.88c.03-1.03-.05-2.09,0-3.13.03-.69-.18-.85.72-.72.64.09,2.12.8,2.61,1.23,1.68,1.47.75,3.41,4.35,2.62-.23-1.36.61-6.85-.72-7.2ZM416.67,223.62h-23.28c-1.19-1.48-.97-3.58-3.36-3.84l-.69,3.63-3.39.21v14.88h21.36c.24,0,3.48-2.44,3.86-2.86,1.8-1.94,1.56-5.08,5.5-4.82v-7.2ZM392.91,239.93h-6.96v6.72h10.56l-.06-3.3c-2.25-.29-2.33-1.95-3.54-3.42ZM416.67,247.61c-1.71.1-3.39-1.31-4.26-2.7-.44-.7-.48-1.62-1.01-2.35-.18-.26-2.93-2.62-3.14-2.62h-13.68c-.25,2,1.21,2.32,2.88,2.64l.48.48v11.76h18.72v-7.2ZM510.75,240.41h-25.92v2.88h25.92v-2.88ZM529.95,240.41h-3.36v14.4h3.36v-14.4ZM465.63,240.89h-13.92v3.36h10.56v11.52h3.36v-14.88ZM396.51,248.09h-10.56v6.72h2.88c-.91-3.55,1.89-4.38,4.18-2.26,1.24,1.15.44,2.99,3.5,2.26v-6.72ZM385.95,256.73v15.36h30l.72-.72v-9.6c-2.25-1.42-3.99-2.21-4.6-5.07l-18.92.03c.44-2.15-1.21-4.38-3.36-4.32l-.06,3.78-3.78.54ZM402.27,273.52h-16.32v4.32h7.92c1.22,0,.37,3.97.96,4.8,1.89-1.06,3.34-2.43,3.13-4.79l4.1-.46.21-3.87ZM404.67,273.52c-1.84-.38-.64,2.79-.96,3.84,1.52-.61.84-2.58.96-3.84ZM405.15,273.52v3.84s.48,0,.48,0v-3.84s-.48,0-.48,0ZM407.07,273.52c-.55-.65-.91-.06-.96.71-.07,1.09-.25,2.35.72,3.12l.24-3.84ZM407.55,273.52v3.84s.48,0,.48,0v-3.84s-.48,0-.48,0ZM409.47,273.52c-.55-.65-.91-.06-.96.71-.07,1.09-.25,2.35.72,3.12l.24-3.84ZM410.91,273.52c-1.84-.38-.64,2.79-.96,3.84,1.52-.61.84-2.58.96-3.84ZM411.39,273.52v3.84s.48,0,.48,0v-3.84s-.48,0-.48,0ZM412.35,273.52v3.84s.96,0,.96,0v-3.84s-.96,0-.96,0ZM413.79,273.52v3.84s.48,0,.48,0v-3.84s-.48,0-.48,0ZM484.83,277.36h25.2c.95,0,.95-2.88,0-2.88h-25.2v2.88ZM385.47,279.76v4.32s.48,0,.48,0v-4.32s-.48,0-.48,0ZM386.43,279.76v4.32s.48,0,.48,0v-4.32s-.48,0-.48,0ZM387.87,279.76v4.32s.48,0,.48,0v-4.32s-.48,0-.48,0ZM405.39,286h-19.44v30.23h44.16v-30.23h-19.2v-2.88s-2.64,1.92-2.64,1.92c-.65-.9-.97-1.66-2.16-1.92.05.81.16,2.65-.72,2.88ZM439.71,286h-8.16v21.59c3.14.43,3.18-1.79,4.56-3.84h10.8v-9.36c0-.27-2.94-4.02-3.33-4.35-1.34-1.14-4.07-1.45-3.87-4.05ZM463.71,286h-6.96c-.94.82-.56,1.89-1.41,2.91-1.35,1.63-2.73,1.02-4.11,1.65-.63.29-2.6,2.78-2.78,3.45l-.08,14.23c-.06.34-3.38,1.13-3.39,3.42l3.31.78.05,3.78h15.36v-30.23ZM473.31,286h-8.16v21.11c2.61,1.24,4.25-3.36,4.56-3.36h11.28v-9.36c0-.27-3.09-4.09-3.38-4.3-1.39-1.01-4.49-1.24-4.3-4.1ZM497.31,286h-7.68c.15,2.61-2.91,3.38-4.3,4.58-.53.45-2.66,3.26-2.8,3.91l-.07,13.76c-.07.48-3.86.83-3.87,3.42l3.85.24v4.32s14.88,0,14.88,0v-30.23ZM506.43,286h-7.2v22.07c2.53-.61,1.89-2.75,3.12-4.32h11.28v-9.84c-1.22-.69-2.21-2.76-3.01-3.47-1.4-1.23-4.52-1.19-4.19-4.45ZM515.07,303.75c2.32-.45,6.5,1.31,6.74-1.66.29-3.51.77-10.41-3.56-11.24l-3.19,3.06v9.84ZM505.47,305.19l-2.84.04c.71,2.79-3.4,3.52-3.4,3.8v7.2h6.24v-11.04ZM507.39,305.19v11.04h6.24s0-4.32,0-4.32c1.26.08,2.26.54,3.59.49.68-.02.88.13.73-.74-.26-1.49-2.77-3.21-4.29-3.15l-.04-3.32h-6.24ZM524.43,305.19h-9.36c-.81,2.97,2.18,3.13,3.39,5.01.67,1.05.47,1.97.46,3.15h-3.84s0,2.88,0,2.88h14.88v-8.16c-1.55.19-3-.04-4.17-1.11-.4-.36-.8-1.62-1.35-1.77ZM438.75,305.67c-3.41-.76-3.48,3.74-7.2,2.88v7.68h7.2v-10.56ZM446.91,305.67h-6.72v10.56h6.72l-.23-2.9c-.48-.78-2.68,1.11-2.69-1.65,0-.83.32-1.48.78-2.14,1.11-1.62,2.83-1.06,2.14-3.86ZM472.35,305.67c-2.93-.56-4.24,2.78-7.2,2.88v7.68h7.2v-10.56ZM480.99,305.67h-7.2v10.56h7.2v-3.36c-2.82.51-4.58-.72-2.63-3.35,1-1.35,3.23-1.37,2.63-3.85ZM537.63,310.95c-1.51.01-3.04-.03-4.56,0-.58.01-1.79-.35-1.68.48,1.51-.01,3.04.03,4.56,0,.58-.01,1.79.35,1.68-.48ZM537.63,311.91c-1.51.01-3.04-.03-4.56,0-.58.01-1.79-.35-1.68.48,1.51-.01,3.04.03,4.56,0,.58-.01,1.79.35,1.68-.48ZM537.63,312.87c-1.86.34-5.08-.91-6.24.95,1.83-.06,3.69.09,5.53,0,.79-.04,1.34-.42.71-.96ZM537.63,314.31c-1.51.01-3.04-.03-4.56,0-.58.01-1.79-.35-1.68.48,1.51-.01,3.04.03,4.56,0,.58-.01,1.79.35,1.68-.48ZM537.63,316.23c-.92-1.57-4.97-1.32-6.24-.23l6.24.23Z"/>
    <path d="M421.47,178.99c.16-.16.31-.32.48-.48-.16.17-.32.32-.48.48Z"/>
    <path d="M574.59,320.07c-.22-.13-.81.06-1.22-.46-.29-.37-.14-.83-.22-.98.04.09,1.33,1.36,1.44,1.44Z"/>
    <path d="M421.95,178.51s-.06-.57.48-.48c.09.53-.46.46-.48.48Z"/>
    <path d="M423.39,240.89c4.64.11,9.34-.34,13.92.48v1.44s-1.92,0-1.92,0v29.75h9.6v6.24h-20.4c-.14,0-.71-.66-1.2-.48v-37.43ZM428.19,242.33h-3.36v34.55h3.36v-34.55ZM444.51,274h-9.84l-.72-.72v-30.23c-.94-1.12-3.38-1.12-4.32,0v33.83h14.88v-2.88Z"/>
    <path d="M434.91,207.3v29.28h-11.52v-29.28h11.52ZM424.83,209.22v25.43h3.84v-25.43h-3.84ZM432.99,209.22c-.69-.12-2.88-.03-2.88.72v24.71h2.88v-25.43Z"/>
    <path d="M573.63,170.83c2.04.36,3.12,1.53,5.41.85,1.58-.47,1.2-1.67,2.98.15l3.13-1v19.67h7.68c-1.48,9.04.36,19.05-.47,28.08-.09.97-.52,2.63-1.69,2.63h-45.84c.18-.49-.48-1.06-.48-1.2v-13.2h-50.88v14.16c0,.71-1.44.71-1.44,0v-17.99h-7.44l-.72.72v17.51c-.41.2-1.44-.41-1.44-.72v-17.51l-8.64.48v18.23c-4.14.99-9.2.98-12.25-2.39-.52-.58-2.15-3.04-2.15-3.61v-17.75l.72-.72h124.32l.72.72v21.83h5.28v-27.83h-16.8v-21.11ZM579.39,173.23h-4.32v17.27h4.32v-17.27ZM583.71,173.23h-2.4v17.27h2.4v-17.27ZM544.35,198.67h-83.52v17.99c0,.43,1.66,2.24,2.16,2.64,2.67,2.14,6.09.49,9.36.96v-17.03c1.94-1.55,5.04-.14,7.43-1.21l13.24.22.45,2.67h50.88v-6.24ZM546.27,198.66v.48s4.8,0,4.8,0v-.48s-4.8,0-4.8,0ZM561.15,198.67h-9.12v16.31l-5.76-.48v5.28h36.72l.72-.72v-20.39h-8.64v17.03l-.72.72h-12.48l-.72-.72v-17.03ZM562.59,198.66v.96s4.32,0,4.32,0v-.96s-4.32,0-4.32,0ZM568.83,198.66v.96s4.8,0,4.8,0v-.96s-4.8,0-4.8,0ZM546.27,199.62v.96s4.8,0,4.8,0v-.96s-4.8,0-4.8,0ZM562.59,200.1v.96s4.32,0,4.32,0v-.96s-4.32,0-4.32,0ZM568.83,200.1v.96s4.8,0,4.8,0v-.96s-4.8,0-4.8,0ZM546.27,201.06v.48s4.8,0,4.8,0v-.48s-4.8,0-4.8,0ZM566.91,201.55l-4.32.24c.88,1.04,2.42.79,3.61.72.78-.05,1.35-.41.71-.96ZM568.83,201.54v.96s4.8,0,4.8,0v-.96s-4.8,0-4.8,0ZM546.27,202.02v.48s4.8,0,4.8,0v-.48s-4.8,0-4.8,0ZM546.27,202.98v.48s4.8,0,4.8,0v-.48s-4.8,0-4.8,0ZM566.91,202.99c-.88,0-1.76-.02-2.64,0-.58.01-1.79-.36-1.68.48.88,0,1.76.02,2.64,0,.58-.01,1.79.36,1.68-.48ZM568.83,202.98v.48s4.8,0,4.8,0v-.48s-4.8,0-4.8,0ZM546.27,203.94v.96s4.8,0,4.8,0v-.96s-4.8,0-4.8,0ZM566.91,203.94l-3.88.23c-1.11,3.38,1.24,2.67,3.88,2.66v-2.88ZM573.64,203.94h-4.81v2.88h4.81v-2.88ZM546.27,205.38v.48s4.8,0,4.8,0v-.48s-4.8,0-4.8,0ZM546.27,206.34v.96s4.8,0,4.8,0v-.96s-4.8,0-4.8,0ZM566.91,207.31c-.88,0-1.76-.02-2.64,0-.58.01-1.79-.36-1.68.48.88,0,1.76.02,2.64,0,.58-.01,1.79.36,1.68-.48ZM568.83,207.3v.48s4.8,0,4.8,0v-.48s-4.8,0-4.8,0ZM546.27,207.78v.48s4.8,0,4.8,0v-.48s-4.8,0-4.8,0ZM566.91,208.26c-1.37.17-3.61-.66-4.32.95,1.19-.04,2.41.06,3.61,0,.79-.04,1.34-.42.71-.96ZM568.83,208.26v.96s4.8,0,4.8,0v-.96s-4.8,0-4.8,0ZM546.27,208.74v.48s4.8,0,4.8,0v-.48s-4.8,0-4.8,0ZM546.27,209.7v.96s4.8,0,4.8,0v-.96s-4.8,0-4.8,0ZM562.59,214.98h11.04v-5.28c-1.96-.32-4.09.3-5.92.32-1.05.01-4.16-1.01-4.91.13l-.21,4.83ZM546.27,211.14v.48s4.8,0,4.8,0v-.48s-4.8,0-4.8,0ZM546.27,212.1v.96s4.8,0,4.8,0v-.96s-4.8,0-4.8,0ZM546.27,213.54v.48s4.8,0,4.8,0v-.48s-4.8,0-4.8,0Z"/>
    <path d="M573.63,137.24h11.52v29.27h-11.52v-29.27ZM579.39,139.64h-4.32v24.95h4.32v-24.95ZM583.71,139.64h-2.4v24.95h2.4v-24.95Z"/>
    <path d="M573.63,104.61h11.52v27.83h-11.52v-27.83ZM579.39,106.05c-1.17.15-3.83-.55-4.26.78.35,7.28-.67,15.32-.08,22.51.21,2.57,2.3,1.47,4.34,1.66v-24.95ZM581.31,131.01c1.15.08,2.29.17,2.4-1.19-.45-7.18.58-15,.02-22.1-.04-.52.01-1.12-.47-1.45l-1.95-.21v24.95Z"/>
    <path d="M614.43,190.51v1.44s-1.47.26-1.47.26l-.04,25.83c-.54,1.65-5.55.19-7.13,1.06l-.97-.52v-25.91c0-.36-2.2-.71-1.44-2.16h11.04ZM611.55,191.95h-3.36c-.2.82.31.96.72,1.44,2.53,3.04,2.95,2.49,2.64-1.44ZM611.55,199.14c1.23-1.35-4.2-5.85-5.27-6.72-.53,2.39,1.92,4.28,3.6,5.76.54.47.79,1.15,1.68.96ZM611.55,203.46c.5-3.15-3.27-5.18-5.27-7.2-.5,3.15,3.27,5.18,5.27,7.2ZM611.55,207.78c.64-2.77-1.69-4.56-3.6-6.24-.54-.47-.79-1.15-1.68-.96-1.12,1.23,4.05,6.55,5.27,7.2ZM607.22,204.43c-1.44-.44-1.14,1.4-.7,2.39.69,1.57,3.64,4.11,5.03,5.29.96-3.84-3.38-4.63-4.32-7.68ZM611.55,215.46c1.23-1.35-4.2-5.85-5.27-6.72-.53,2.39,1.92,4.28,3.6,5.76.54.47.79,1.15,1.68.96ZM611.07,217.38c.24-1.06-.58-1.07-1.1-1.53-1.22-1.09-2.39-2.28-3.69-3.26-1.33,2.09,3.75,5.7,4.8,4.8ZM607.35,216.89c0-.33-.27-.59-.59-.59s-.59.27-.59.59.27.59.59.59.59-.27.59-.59Z"/>
    <path d="M653.31,201.54c-.17,1.75.25,3.83,0,5.52-.08.56-.2.97-.79,1.13-5.14-.33-11.27.65-16.28.09-.73-.08-1.87-.35-1.96-1.2-.03-.26.3-4.53.37-4.75.11-.35.39-.57.65-.79h18ZM636.99,206.34c.07-.16.07-3.2,0-3.36-.61-1.32-.61,4.68,0,3.36ZM637.95,206.34c.07-.16.07-3.2,0-3.36-.61-1.32-.61,4.68,0,3.36ZM639.39,206.34l-.96-3.36c.27,1.02-.83,3.75.96,3.36ZM641.31,206.34c.07-.16.07-3.2,0-3.36-.61-1.32-.61,4.68,0,3.36ZM642.27,206.34c.07-.16.07-3.2,0-3.36-.61-1.32-.61,4.68,0,3.36ZM644.67,206.34c.07-.16.07-3.2,0-3.36-.61-1.32-.61,4.68,0,3.36ZM645.63,206.34c.07-.16.07-3.2,0-3.36-.61-1.32-.61,4.68,0,3.36ZM648.99,206.34c.07-.16.07-3.2,0-3.36-.61-1.32-.61,4.68,0,3.36ZM649.95,206.34c.07-.16.07-3.2,0-3.36-.61-1.32-.61,4.68,0,3.36ZM652.35,206.34c.07-.16.07-3.2,0-3.36-.61-1.32-.61,4.68,0,3.36ZM636.03,206.34c.07-.15.07-2.72,0-2.88-.6-1.3-.6,4.17,0,2.88ZM640.35,206.34c.07-.15.07-2.72,0-2.88-.6-1.3-.6,4.17,0,2.88ZM642.75,203.46v2.88s.96,0,.96,0v-2.88s-.96,0-.96,0ZM646.59,206.34c.07-.15.07-2.72,0-2.88-.6-1.3-.6,4.17,0,2.88ZM647.07,203.46v2.88s.96,0,.96,0v-2.88s-.96,0-.96,0ZM650.43,203.46v2.88s.96,0,.96,0v-2.88s-.96,0-.96,0Z"/>
  </g>
</svg>