<?xml version="1.0" encoding="UTF-8"?>
<svg id="Layer_1" data-name="Layer 1" xmlns="http://www.w3.org/2000/svg" width="721" height="1513" viewBox="0 0 721 1513">
  <defs>
    <style>
      .cls-1, .cls-2 {
        fill: #ee2343;
      }

      .cls-3 {
        fill: none;
      }

      .cls-3, .cls-2 {
        stroke: #ee2343;
        stroke-miterlimit: 10;
      }
    </style>
  </defs>
  <path id="JO-GROUNDVO-N" class="cls-1" d="M143.62,193.23l21.38-11.92,21.62,37.82-21.38,11.92-21.62-37.82h0Z"/>
  <path id="JO-GROUNDVO-M" class="cls-1" d="M143.14,245.55l21.38-11.92,21.62,37.82-21.38,11.92-21.62-37.82h0Z"/>
  <path id="JO-GROUNDVO-L" class="cls-1" d="M142.44,299.09l20.68-13.1,23.7,36.54-20.68,13.1-23.7-36.54h0Z"/>
  <path id="JO-GROUNDVO-K" class="cls-1" d="M142.86,352.11l22.2-13.26,24.02,39.26-22.2,13.26-24.02-39.26Z"/>
  <path id="JO-GROUNDVO-J" class="cls-1" d="M304.6,465.89h25.86v25.86h-25.86v-25.86h0Z"/>
  <path id="JO-GROUNDVO-I" class="cls-1" d="M354.52,466.37h25.86v25.86h-25.86v-25.86h0Z"/>
  <path id="JO-GROUNDVO-H" class="cls-1" d="M487.96,443.81h25.86v25.86h-25.86v-25.86h0Z"/>
  <path id="DT-V-G" class="cls-1" d="M482.62,402.45h22.14v22.14h-22.14v-22.14h0Z"/>
  <path id="DT-V-F" class="cls-2" d="M482.62,376.73h22.14v22.14h-22.14v-22.14h0Z"/>
  <path id="DT-V-E" class="cls-2" d="M482.62,351.01h22.14v22.14h-22.14v-22.14h0Z"/>
  <path id="DT-V-D" class="cls-2" d="M482.62,325.29h22.14v22.14h-22.14v-22.14h0Z"/>
  <path id="DT-V-C" class="cls-2" d="M482.62,299.55h22.14v22.14h-22.14v-22.14h0Z"/>
  <path id="DT-V-B" class="cls-2" d="M482.62,273.83h22.14v22.14h-22.14v-22.14Z"/>
  <path id="DT-V-A" class="cls-2" d="M482.62,248.11h22.14v22.14h-22.14v-22.14Z"/>
  <path id="DT-006" class="cls-2" d="M532.24,394.19h26.4v26.4h-25.92l-.48-26.4Z"/>
  <path id="DT-005" class="cls-2" d="M532.24,367.79h26.4v26.4h-25.92l-.48-26.4Z"/>
  <path id="DT-004" class="cls-2" d="M532.24,341.39h26.4v26.4h-25.92l-.48-26.4Z"/>
  <path id="DT-003" class="cls-2" d="M532.24,314.99h26.4v26.4h-25.92l-.48-26.4Z"/>
  <path id="DT-002" class="cls-2" d="M532.24,288.59h26.4v26.4h-25.92l-.48-26.4Z"/>
  <path id="DT-001" class="cls-2" d="M531.76,262.19h26.4v26.4h-25.92l-.48-26.4Z"/>
  <path id="JO-GROUND-128" class="cls-1" d="M400.22,191.41l.02-.74,41.28.48-.96-34.56-65.28.96-.31,32.09c8.45.03,16.84,1.17,25.25,1.77Z"/>
  <path id="JO-GROUND-137" class="cls-1" d="M400.22,224.82l.02-.74,41.28.48-.96-34.56-65.28.96-.31,32.09c8.45.03,16.84,1.17,25.25,1.77Z"/>
  <path id="JO-GROUND-136" class="cls-1" d="M374.8,224.75l-.32,32.19c4.57-.07,9.17.25,13.73.54,3.95.25,8.44-.1,12.3.84.06.01.11.04.17.05l.03-.98h40.32l.48-31.68-66.72-.96Z"/>
  <path id="JO-GROUND-135" class="cls-1" d="M441.04,256.91l.48,34.08s-66.72-.48-66.72-.48c0-3.98,0-7.95,0-11.93,0-2.43.44-4.64.51-6.96.13-4.49-.56-9.16-.83-13.65,6.37.07,12.73.13,19.1.2,15.82.16,31.65-.71,47.46-1.26Z"/>
  <path id="JO-GROUND-134" class="cls-1" d="M375.28,290.03l-.3,31.17c1.6.43,3.19.87,4.78,1.26,8.34-.96,16.87-.8,25.09.38.69.1,1.27.36,1.76.73l34.91-.41-.48-32.16-65.76-.96Z"/>
  <path id="JO-GROUND-133" class="cls-1" d="M441.04,323.15c-13.16,0-26.32-.16-39.48,0-9.24.11-18.48.54-27.73.58.74,10.9.96,21.62.96,32.54h65.76s.48-33.12.48-33.12Z"/>
  <path id="JO-GROUND-131" class="cls-1" d="M409.95,388.08c.16,2.53.14,5.08.12,7.65-.03,5.49.72,10.91,1.05,16.38.52,8.52-.88,16.8-1.67,25.16l31.11.6.48-50.4-31.09.61Z"/>
  <path id="JO-GROUND-132" class="cls-1" d="M441.04,388.43l-.48-31.68-65.28-.48-.48,31.68,66.24.48Z"/>
  <path id="JO-GROUND-129" class="cls-1" d="M358.96,387.95v22.27c.65.76,1.09,1.77,1.17,3.01.27,3.82.2,7.61.15,11.44-.04,3.01-.58,6.27.07,9.23.27,1.21.12,2.29-.3,3.19l31.54.3v-48.96l-32.64-.48Z"/>
  <path id="JO-GROUND-128-2" data-name="JO-GROUND-128" class="cls-1" d="M341.75,402.14c-.06-4.76-.94-9.46-1.17-14.19h-31.55l-.48,48.48h32.64v-23.04h.39c.1-3.74.21-7.49.16-11.25Z"/>
  <path id="JO-GROUND-127" class="cls-1" d="M277.27,387.95c-.24,5.56-.99,11.13-1.34,16.66-.48,7.51-.58,15.04-.22,22.55.15,3.26.52,6.5.75,9.75h32.11l.96-48.96h-32.25Z"/>
  <path id="JO-GROUND-126" class="cls-1" d="M258.05,408.29c.08-2.98.19-5.96.46-8.93,0-.08-.01-.16-.01-.25-.15-3.73.1-7.44.01-11.16h-32.03l-.48,48.96h32.16c-.04-9.54-.37-19.08-.11-28.62Z"/>
  <path id="JO-GROUND-124" class="cls-1" d="M73.84,89.39v34.56h13.51c.89-.39,1.88-.54,2.84-.41,1.25-.56,2.74-.63,4.28.1,3.44,1.64,6.31,5.22,8.8,8.04,1.23,1.39,2.19,3,3.22,4.54.3.45.6.95.97,1.35.44.48,1.31.8.75.78h20.83v-48.96h-55.2Z"/>
  <path id="JO-GROUND-123" class="cls-1" d="M96.17,151.66c-5.85-.15-11.71-.35-17.54-.9-1.44-.14-2.88-.33-4.31-.56v33.75l54.72-.48.33-31.76c-11.07.06-22.14.24-33.2-.05Z"/>
  <path id="JO-GROUND-122" class="cls-1" d="M100.93,218.49c9.42-.03,18.84-.43,28.22.07l.37-35.57h-55.68l.9,31.37c.45-.12.93-.19,1.47-.18,6.27.11,12.33,1.22,18.34,3.01,1.74.52,3.49.98,5.25,1.42.36-.08.74-.12,1.14-.12Z"/>
  <path id="JO-GROUND-121" class="cls-1" d="M119.42,243.11c-5.19-.16-10.39-.19-15.59-.2-9.75-.01-19.5,0-29.25,0l-.26,31.27,54.24-.48.66-30.5c-3.32-.22-6.78,0-9.8-.09Z"/>
  <path id="JO-GROUND-120" class="cls-1" d="M77.33,306.34c12.04-.03,23.73.75,35.72,1.59,5.29.37,10.68.55,15.99,1.16v-35.39l-54.24.48h0v32.81c.69-.41,1.53-.65,2.53-.65Z"/>
  <path id="JO-GROUND-120-2" data-name="JO-GROUND-120" class="cls-1" d="M106.65,332.54c-.05,0-.11,0-.16,0v.2h-7.11c-8.42.23-16.84.42-25.27.45l-.26,32.19,55.2.96.35-34.18c-7.54-.54-15.3.16-22.74.38Z"/>
  <path id="JO-GROUND-118" class="cls-1" d="M74.32,365.39l54.72.48.48,32.64-55.2-.48v-32.64h0Z"/>
  <path id="JO-GROUND-116" class="cls-1" d="M138.64,432.11l-34.7-.86c-2.34,1.19-5.23,1.01-8.1.97-6.37-.09-13.23.89-19.49-.43-.67-.14-1.41-.27-2.19-.41l.64,32.88h64.32l-.48-32.16Z"/>
  <path id="JO-GROUND-115" class="cls-1" d="M74.8,464.75l63.84-.48.96,34.08h-.08c-8.88,0-17.77,0-26.65,0-4.16,0-8.35.14-12.51,0-.83-.03-1.28-.05-2-.55-.81-.56-.76-.91-1.87-1.09-1.29-.22-2.72-.13-4.03-.19-2.79-.14-5.59-.27-8.38-.41-.78-.04-7.93,0-8.05-.39-2.68-10.11-1.5-20.62-1.22-30.96Z"/>
  <path id="JO-GROUND-114" class="cls-1" d="M138.64,498.83l-39.84-.48v-.48c-3.05.38-6.34-.17-9.35-.27-4.5-.15-8.99.18-13.49.14-.41,0-.8-.06-1.16-.14v32.43l64.32-.96-.48-30.24Z"/>
  <path id="JO-GROUND-113" class="cls-1" d="M74.71,547.78c-.17,5.68-.46,11.32.39,17.03l1.34-.02c12.71-.19,25.37-.21,38.08-.21h25.09v-35.04l-64.8.96v12.26c0,1.68-.04,3.35-.09,5.01Z"/>
  <path id="JO-GROUND-112" class="cls-1" d="M99.28,564.11l-.02-.51c-.12,0-.24,0-.36,0-8.13-.3-16.42.38-24.58.4v34.19l64.32-.48v-33.12l-39.36-.48Z"/>
  <path id="JO-GROUND-108" class="cls-1" d="M165.52,623.15l.48,64.32-91.68-.96v-63.36h91.2Z"/>
  <path id="JO-GROUND-106" class="cls-1" d="M198.78,662.99c.05.26.08.51.1.76.28,4.76.11,9.49.13,14.25.02,3.05.94,6.34.89,9.46h33.3l-.48-63.36-34.56-.96,1.44,39.84h-.82Z"/>
  <path id="JO-GROUND-104" class="cls-1" d="M265.84,622.19l1.44,39.84h-.91c.22.5.41,1.03.51,1.64.64,3.93.02,8.37.19,12.37.15,3.66.29,7.29.2,10.95h33.62l.48-63.84-35.52-.96Z"/>
  <path id="JO-GROUND-107" class="cls-1" d="M165.04,624.11s.48,62.88.48,62.88c10.87.29,21.84.07,32.65,1.22,1.16-11.85,1-23.71.71-35.58-.24-9.99-.48-19.97-.72-29.96,0,0-33.12,1.44-33.12,1.44Z"/>
  <path id="JO-GROUND-105" class="cls-1" d="M233.68,622.67s32.16-.48,32.16-.48c.27,7.5.54,15,.8,22.5.38,10.61.48,21.02.27,31.64l-.22,10.84c-5.6.58-11.25.65-16.86.21-3.14-.25-6.27-.66-9.41-.8-1.49-.07-3.05-.18-4.53.08-.97.17-1.67.44-2.71.34.11-5.25.08-10.51.12-15.76l.22-29.87c.05-6.15.09-12.3.14-18.45,0-.08,0-.16,0-.24Z"/>
  <path id="JO-GROUND-103" class="cls-1" d="M301.36,622.67l.48,64.8c4.09-.15,8.19-.25,12.28-.37.84-.03,2.07.17,2.88-.09.94-.3,1.04-.78,1.97-1.07,1.14-.36,14.39.38,14.39.12.02-6.38.04-12.77.06-19.15.05-14.74-.21-29.49-.39-44.23h-31.68Z"/>
  <path id="JO-GROUND-117" class="cls-1" d="M74.32,398.51c0,.17.01.33.02.5l.29,9.56c.12,3.84.44,7.62-.08,11.42-.51,3.76-.05,7.61-.72,11.35,2.51-.35,5.01.52,7.52.83,1.34.16,2.69.17,4.04.17,2.42,0,4.83,0,7.25,0,.89,0,5.97-.42,6.16.26.25-.02.52-.04.78-.04,5.6-.06,11.22-.53,16.82-.79.8-.04,13.12-.52,13.12-.62v-32.64s-55.17,0-55.2,0Z"/>
  <path id="JO-GROUND-140" class="cls-1" d="M374.8,89.87v35.2c9.73-.3,19.52-.56,29.25-.62.9,0,1.66.2,2.31.53l34.19.41.48-34.56-66.24-.96Z"/>
  <path id="JO-GROUND-139" class="cls-3" d="M375.28,140.27v16.8l65.76.48.48-33.12-40.8.48-.48,15.36h-24.96Z"/>
  <path id="SF-S11" class="cls-2" d="M514,763.31l25.44.48v25.92h-25.44v-26.4h0Z"/>
  <path id="SF-S10" class="cls-2" d="M480.88,762.83l25.44.48v25.92h-25.44v-26.4h0Z"/>
  <path id="SF-S09" class="cls-2" d="M446.8,763.31l25.44.48v25.92h-25.44v-26.4h0Z"/>
  <path id="SF-S08" class="cls-2" d="M413.68,762.83l25.44.48v25.92h-25.44v-26.4h0Z"/>
  <path id="SF-S07" class="cls-2" d="M380.08,762.83l25.44.48v25.92h-25.44v-26.4h0Z"/>
  <path id="SF-S06" class="cls-2" d="M346.96,762.83l25.44.48v25.92h-25.44v-26.4h0Z"/>
  <path id="SF-S05" class="cls-2" d="M313.36,762.83l25.44.48v25.92h-25.44v-26.4h0Z"/>
  <path id="SF-S04" class="cls-2" d="M279.28,763.31l25.44.48v25.92h-25.44v-26.4h0Z"/>
  <path id="SF-S03" class="cls-2" d="M246.16,762.83l25.44.48v25.92h-25.44v-26.4h0Z"/>
  <path id="SF-S02" class="cls-2" d="M212.08,762.83l25.44.48v25.92h-25.44v-26.4h0Z"/>
  <path id="SF-S01" class="cls-2" d="M178.96,763.31l25.44.48v25.92h-25.44v-26.4h0Z"/>
  <path id="JN-V-II" class="cls-2" d="M370.95,973.31h25.92v25.92h-25.92v-25.92Z"/>
  <path id="JN-V-HH" class="cls-2" d="M335.43,973.31h25.92v25.92h-25.92v-25.92Z"/>
  <path id="JN-V-GG" class="cls-2" d="M297.99,973.31h25.92v25.92h-25.92v-25.92Z"/>
  <path id="JN-V-FF" class="cls-2" d="M370.95,939.71h25.92v25.92h-25.92v-25.92Z"/>
  <path id="JN-V-EE" class="cls-2" d="M335.43,939.71h25.92v25.92h-25.92v-25.92Z"/>
  <path id="JN-V-DD" class="cls-2" d="M297.99,939.71h25.92v25.92h-25.92v-25.92Z"/>
  <path id="JN-V-CC" class="cls-2" d="M370.95,906.11h25.92v25.92h-25.92v-25.92Z"/>
  <path id="JN-V-BB" class="cls-2" d="M335.43,906.11h25.92v25.92h-25.92v-25.92Z"/>
  <path id="JN-V-AA" class="cls-2" d="M297.99,906.11h25.92v25.92h-25.92v-25.92Z"/>
  <path id="JN-L2-A13" class="cls-2" d="M402.07,1186.17l52.82.9-.46,53.28-51.92-.46-.46-53.72h.02Z"/>
  <path id="JN-L2-A12" class="cls-2" d="M401.59,1240.41l52.82.9-.46,53.28-51.92-.46-.46-53.72h.02,0Z"/>
  <path id="JN-L2-A11" class="cls-2" d="M348.79,1240.41l52.82.9-.46,53.28-51.92-.46-.46-53.72h.02Z"/>
  <path id="JN-L2-A10" class="cls-2" d="M295.99,1239.93l52.82.9-.46,53.28-51.92-.46-.46-53.72h.02Z"/>
  <path id="JN-L2-A9" class="cls-2" d="M344.47,1391.13l52.82.9-.46,53.28-51.92-.46-.46-53.72h.02,0Z"/>
  <path id="JN-L2-A8" class="cls-2" d="M396.79,1391.13l52.82.9-.46,53.28-51.92-.46-.46-53.72h.02Z"/>
  <path id="JN-L2-A7" class="cls-2" d="M449.59,1391.13l52.82.9-.46,53.28-51.92-.46-.46-53.72h.02Z"/>
  <path id="JN-L2-A6" class="cls-2" d="M502.39,1391.13l52.82.9-.46,53.28-51.92-.46-.46-53.72h.02Z"/>
  <path id="JN-L2-A5" class="cls-2" d="M551.83,1294.17l52.82.9-.46,53.28-51.92-.46-.46-53.72h.02Z"/>
  <path id="JN-L2-A4" class="cls-2" d="M551.83,1239.93l52.82.9-.46,53.28-51.92-.46-.46-53.72h.02Z"/>
  <path id="JN-L2-A3" class="cls-2" d="M551.83,1185.69l52.82.9-.46,53.28-51.92-.46-.46-53.72h.02Z"/>
  <path id="JN-L2-A2" class="cls-2" d="M220.71,867.23l56.16.96-.48,56.64-55.2-.48-.48-57.12h0Z"/>
  <path id="JN-L2-A1" class="cls-2" d="M220.71,924.83l56.16.96-.48,56.64-55.2-.48-.48-57.12h0Z"/>
</svg>