<?xml version="1.0" encoding="UTF-8"?>
<svg id="Layer_1" xmlns="http://www.w3.org/2000/svg" version="1.1" viewBox="0 0 207.4 643.2">
  <!-- Generator: Adobe Illustrator 30.0.0, SVG Export Plug-In . SVG Version: 2.1.1 Build 123)  -->
  <defs>
    <style>
      .st0 {
        fill: none;
      }

      .st1, .st2 {
        fill: #1a563d;
      }

      .st1, .st3, .st4, .st5, .st6, .st7, .st8, .st9, .st10, .st11, .st12 {
        stroke: #fff;
        stroke-miterlimit: 10;
      }

      .st3 {
        fill: #51b848;
      }

      .st13, .st4 {
        fill: #8e8e8e;
      }

      .st5 {
        fill: #c5862b;
      }

      .st6 {
        fill: #dd3ac6;
      }

      .st7 {
        fill: #52439b;
      }

      .st8 {
        fill: #2adff2;
      }

      .st14 {
        fill: #fbe100;
      }

      .st9 {
        fill: #967cb9;
      }

      .st10 {
        fill: #3d7ef2;
      }

      .st11 {
        fill: #f36b28;
      }

      .st12 {
        fill: #af003f
      }
    </style>
  </defs>
  <g id="layer_3">
    <rect id="e1" class="st14" x="171.6" y="336.6" width="10.6" height="13.4"/>
    <rect id="e2" class="st14" x="29.5" y="363.9" width="7.1" height="6.5"/>
    <rect id="e3" class="st14" x="59.5" y="225.7" width="9.7" height="10.4"/>
    <rect id="e4" class="st14" x="84.2" y="538.4" width="32.1" height="14.1"/>
    <rect id="e5" class="st14" x="88" y="516.8" width="14.8" height="13.5"/>
    <rect id="e6" class="st14" x="102.8" y="516.8" width="13.5" height="12"/>
    <rect id="e7" class="st14" x="125" y="485.3" width="26.3" height="8.6"/>
    <rect id="e8" class="st14" x="141.9" y="493.7" width="9.4" height="17.1"/>
    <rect id="e9" class="st14" x="173.6" y="142" width="10.6" height="13.4"/>
    <rect id="e10" class="st14" x="30.5" y="168.5" width="7.1" height="6.5"/>
    <rect id="e11" class="st14" x="60.5" y="30.4" width="9.7" height="10.4"/>
  </g>
  <g id="Layer_2">
    <rect id="rr1" class="st7" x="133.4" y="35.6" width="9.1" height="12.8"/>
    <rect id="rr2" class="st7" x="25" y="466.1" width="39.3" height="37.3"/>
     <rect id="_117" class="st3" x="31" y="116.5" width="13.9" height="8.4"/>
    <rect id="_115" class="st3" x="31.4" y="133.9" width="13.9" height="8.4"/>
    <rect id="_113" class="st3" x="31" y="151.4" width="13.9" height="8.4"/>
    <rect id="_107" class="st3" x="54.6" y="175.2" width="9" height="16.5"/>
    <rect id="_105" class="st3" x="72.4" y="175.2" width="8.8" height="16.7"/>
    <rect id="_103" class="st3" x="90.3" y="175.2" width="8.1" height="16.7"/>
    <rect id="ina" class="st4" x="98.3" y="175.2" width="8.6" height="16.7"/>
    <rect id="_131" class="st3" x="114" y="113.9" width="12.6" height="12.6"/>
    <rect id="_133" class="st3" x="109.5" y="97.7" width="17.1" height="7.8"/>
    <rect id="_135" class="st3" x="109.5" y="80" width="17" height="8.2"/>
    <rect id="_137" class="st3" x="109.7" y="62.3" width="17" height="8.7"/>
    <rect id="_139" class="st3" x="109.5" y="44.9" width="17" height="8.7"/>
    <rect id="_213" class="st3" x="29.9" y="346.1" width="17" height="8.7"/>
    <rect id="_215" class="st3" x="29.9" y="329" width="17" height="8.7"/>
    <rect id="_217" class="st3" x="30" y="311.5" width="14.7" height="8.7"/>
    <rect id="_218" class="st3" x="30" y="302.8" width="14.7" height="8.7"/>
    <rect id="_118" class="st6" x="31" y="107.9" width="13.9" height="8.4"/>
    <rect id="_231" class="st3" x="113.3" y="308.9" width="12.8" height="12.9"/>
    <rect id="_233" class="st3" x="108.8" y="291.4" width="17.4" height="8.9"/>
    <rect id="_235" class="st3" x="108.8" y="274.7" width="17.4" height="8.9"/>
    <rect id="_237" class="st3" x="108.8" y="257" width="17.4" height="8.9"/>
    <rect id="_253" class="st3" x="161.1" y="309.4" width="16.7" height="8.8"/>
    <rect id="_251" class="st3" x="161.1" y="292.1" width="16.7" height="8.8"/>
    <rect id="_249" class="st3" x="161.1" y="274.5" width="16.7" height="8.8"/>
    <rect id="_247" class="st3" x="161.1" y="256.9" width="16.7" height="8.8"/>
    <rect id="_207" class="st3" x="54.1" y="370.3" width="8.7" height="16.8"/>
    <rect id="_205" class="st3" x="71.7" y="370.3" width="9.2" height="16.8"/>
    <rect id="_203" class="st3" x="89.3" y="370.3" width="8.8" height="16.8"/>
    <rect id="_124" class="st6" x="31" y="35.8" width="13.9" height="8.2"/>
    <rect id="_123" class="st6" x="31" y="52" width="13.9" height="7.9"/>
    <rect id="_122" class="st6" x="31" y="60.4" width="13.9" height="8.6"/>
    <rect id="_119" class="st6" x="31" y="99.5" width="13.9" height="8.3"/>
    <rect id="_121" class="st6" x="31" y="75.6" width="13.9" height="8.3"/>
    <rect id="_126" class="st6" x="70.7" y="113.9" width="8.7" height="12.6"/>
    <rect id="_127" class="st6" x="83.6" y="113.9" width="8.4" height="12.6"/>
    <rect id="_128" class="st6" x="92" y="113.9" width="8.6" height="12.6"/>
    <rect id="_129" class="st6" x="105.3" y="113.9" width="8.7" height="12.6"/>
    <rect id="_132" class="st6" x="109.6" y="105.5" width="17.2" height="8.4"/>
    <rect id="_224" class="st6" x="30.1" y="230.7" width="14.6" height="8.9"/>
    <rect id="_120" class="st9" x="31" y="83.9" width="13.9" height="7.8"/>
    <rect id="_140" class="st9" x="109.3" y="35.6" width="17.4" height="9.4"/>
    <rect id="_138" class="st9" x="109.3" y="53.2" width="17.4" height="8.6"/>
    <rect id="_136" class="st9" x="109.5" y="71.1" width="17.2" height="9"/>
    <rect id="_134" class="st9" x="109.5" y="88.3" width="17.2" height="9.4"/>
    <rect id="_116" class="st9" x="31" y="125.1" width="16.7" height="8.8"/>
    <rect id="_114" class="st9" x="31" y="142.5" width="16.7" height="8.7"/>
    <rect id="_112" class="st9" x="31" y="159.8" width="16.7" height="8.7"/>
    <rect id="_108" class="st9" x="31" y="175.2" width="23.6" height="16.7"/>
    <rect id="_106" class="st9" x="63.6" y="175.2" width="8.8" height="16.7"/>
    <rect id="_104" class="st9" x="81.2" y="175.2" width="9.1" height="16.7"/>
    <rect id="_220" class="st9" x="30" y="279" width="14.7" height="8.1"/>
    <rect id="_216" class="st9" x="29.9" y="320.2" width="16.9" height="8.7"/>
    <rect id="_214" class="st9" x="29.9" y="337.7" width="16.9" height="8.4"/>
    <rect id="_212" class="st9" x="29.9" y="354.9" width="16.9" height="9"/>
    <rect id="_210" class="st9" x="29.9" y="370.3" width="12.5" height="16.8"/>
    <rect id="_208" class="st9" x="42.4" y="370.3" width="11.6" height="16.8"/>
    <rect id="_206" class="st9" x="62.7" y="370.3" width="9" height="16.8"/>
    <rect id="_204" class="st9" x="80.9" y="370.3" width="8.4" height="16.8"/>
    <rect id="_202" class="st9" x="98.1" y="370.3" width="8.5" height="16.8"/>
    <rect id="_240" class="st9" x="108.8" y="230.6" width="17.4" height="9.1"/>
    <rect id="_238" class="st9" x="108.8" y="248.1" width="17.4" height="8.7"/>
    <rect id="_239" class="st3" x="108.8" y="239.8" width="17.4" height="8.9"/>
    <rect id="_236" class="st9" x="108.8" y="266.1" width="17.4" height="8.6"/>
    <rect id="_234" class="st9" x="108.8" y="283.1" width="17.4" height="8.2"/>
    <rect id="_244" class="st9" x="161.1" y="230.6" width="16.8" height="8.9"/>
    <rect id="_245" class="st9" x="161.1" y="239.5" width="16.7" height="8.7"/>
    <rect id="_246" class="st9" x="161.1" y="248.3" width="16.7" height="8.5"/>
    <rect id="_248" class="st9" x="161.1" y="266" width="16.7" height="8.5"/>
    <rect id="_250" class="st9" x="161.1" y="283.3" width="16.7" height="8.7"/>
    <rect id="_223" class="st6" x="30.1" y="246.8" width="14.6" height="8.5"/>
    <rect id="_222" class="st6" x="30.1" y="255.3" width="14.6" height="8.6"/>
    <rect id="_221" class="st6" x="30" y="270.8" width="14.7" height="8.2"/>
    <rect id="_219" class="st6" x="30" y="294.4" width="14.7" height="8.7"/>
    <rect id="_226" class="st6" x="69.9" y="308.7" width="8.8" height="12.9"/>
    <rect id="_227" class="st6" x="83" y="308.7" width="8.5" height="12.9"/>
    <rect id="_228" class="st6" x="91.5" y="308.7" width="8.5" height="12.9"/>
    <rect id="_229" class="st6" x="104.8" y="308.9" width="8.5" height="12.9"/>
    <rect id="_232" class="st6" x="108.8" y="300.3" width="17.4" height="8.1"/>
    <rect id="_243" class="st6" x="142.6" y="230.6" width="9.6" height="12.7"/>
    <rect id="_242" class="st6" x="132" y="230.6" width="9.4" height="12.7"/>
    <rect id="_252" class="st6" x="161.1" y="300.3" width="16.7" height="9.1"/>
    <rect id="_254" class="st6" x="161.1" y="317.4" width="16.5" height="9.7"/>
    <rect id="s1" class="st12" x="30.3" y="422.5" width="11.1" height="11.1"/>
    <rect id="s2" class="st12" x="43.8" y="422.5" width="11.1" height="11.1"/>
    <rect id="s6" class="st12" x="98.1" y="422.5" width="11.1" height="11.1"/>
    <rect id="s5" class="st12" x="84.3" y="422.5" width="11.1" height="11.1"/>
    <rect id="s4" class="st12" x="70.8" y="422.5" width="11.1" height="11.1"/>
    <rect id="s3" class="st12" x="57.3" y="422.5" width="11.1" height="11.1"/>
    <rect id="s8" class="st12" x="125.3" y="422.5" width="11.1" height="11.1"/>
    <rect id="s7" class="st12" x="111.7" y="422.5" width="11.1" height="11.1"/>
    <rect id="s9" class="st12" x="138.9" y="422.5" width="11.1" height="11.1"/>
    <rect id="s10" class="st12" x="152.5" y="422.5" width="11.1" height="11.1"/>
    <rect id="s11" class="st12" x="166.1" y="422.5" width="11.1" height="11.1"/>
    <rect id="_9thst" class="st5" x="39.3" y="400.8" width="130" height="11.4"/>
    <rect id="command" class="st5" x="161.1" y="99.86" width="17.1" height="24.74"/>
    <rect id="thinktank" class="st5" x="161.17" y="74.8" width="17.1" height="13.7"/>
    <rect id="dreambox" class="st5" x="158.32" y="35.21" width="20.27" height="35.07"/>
    <rect id="bunker" class="st5" x="141.9" y="510.8" width="27.7" height="41.4"/>
    <rect id="stage" class="st5" x="133.4" y="51.6" width="24.5" height="16"/>
    <rect id="sb" class="st5" x="74" y="607.3" width="16.6" height="15.9"/>
    <rect id="h" class="st11" x="138.4" y="324.3" width="7.8" height="9"/>
    <rect id="i" class="st11" x="103.4" y="329.1" width="10.8" height="7.6"/>
    <rect id="j" class="st11" x="86.2" y="329.1" width="10.8" height="7.6"/>
    <polygon id="k" class="st11" points="48.1 298.8 53.5 295.5 59.2 304.8 53.4 308.4 47.7 299 48.1 298.8"/>
    <polygon id="l" class="st11" points="48.1 285.3 53.5 281.9 59.2 291.3 53.4 294.9 47.7 285.5 48.1 285.3"/>
    <polygon id="m" class="st11" display="none" points="48.5 271.7 53.8 268.4 59.5 277.7 53.8 281.3 48 271.9 48.5 271.7"/>
    <polygon id="n" class="st11" display="none" points="48.5 258.1 53.8 254.8 59.5 264.2 53.8 267.8 48 258.4 48.5 258.1"/>
    <rect id="h1" class="st11" x="138.8" y="129.1" width="7.8" height="9"/>
    <rect id="i1" class="st11" x="103.8" y="133.9" width="10.8" height="7.6"/>
    <rect id="j1" class="st11" x="86.7" y="133.9" width="10.8" height="7.6"/>
    <polygon id="k1" class="st11" points="48.5 103.6 53.9 100.3 59.6 109.6 53.8 113.2 48.1 103.8 48.5 103.6"/>
    <polygon id="l1" class="st11" points="48.5 90.1 53.9 86.7 59.6 96.1 53.8 99.7 48.1 90.3 48.5 90.1"/>
    <polygon id="m1" class="st11" display="none" points="48.9 76.5 54.2 73.2 60 82.5 54.2 86.1 48.5 76.7 48.9 76.5"/>
    <polygon id="n1" class="st11" display="none" points="48.9 63 54.2 59.6 60 69 54.2 72.6 48.5 63.2 48.9 63"/>
    <rect id="a" class="st11" x="136.7" y="72.1" width="6" height="5.9"/>
    <rect id="b" class="st11" x="136.7" y="79.9" width="6" height="5.9"/>
    <rect id="c" class="st11" x="136.7" y="87.7" width="6" height="5.9"/>
    <rect id="d" class="st11" x="136.7" y="95.4" width="6" height="5.9"/>
    <rect id="e" class="st11" x="136.7" y="103.2" width="6" height="5.9"/>
    <rect id="f" class="st11" x="136.7" y="110.9" width="6" height="5.9"/>
    <rect id="g" class="st11" x="136.7" y="118.7" width="6" height="5.9"/>
    <rect id="_1" class="st8" x="148.4" y="70.7" width="8.5" height="7.8"/>
    <rect id="_2" class="st8" x="148.4" y="79.8" width="8.5" height="7.8"/>
    <rect id="_3" class="st8" x="148.4" y="88.8" width="8.5" height="7.8"/>
    <rect id="_4" class="st8" x="148.4" y="97.8" width="8.5" height="7.8"/>
    <rect id="_5" class="st8" x="148.4" y="106.8" width="8.5" height="7.8"/>
    <rect id="_6" class="st8" x="148.4" y="115.8" width="8.5" height="7.8"/>
    <rect id="ina1" class="st13" x="70.7" y="36" width="38.1" height="77"/>
    <rect id="ina2" class="st4" x="72.3" y="232.5" width="34.2" height="73.6"/>
    <polygon id="sgphlb" class="st1" points="25.1 527.2 25.1 623.2 73 623.2 73 552.6 79.2 552.6 79.2 516.6 64.9 516.6 65 527.5 25.1 527.2"/>
    <rect id="hlblable" class="st2" x="26.2" y="527.8" width="45.7" height="94.5"/>
    <rect id="a2" class="st10" x="64.3" y="466.1" width="14.9" height="15.5"/>
    <rect id="a1" class="st10" x="64.3" y="481.4" width="14.9" height="15.5"/>
    <rect id="a13" class="st10" x="116.9" y="552.9" width="15.3" height="16.1"/>
    <rect id="a12" class="st10" x="116.9" y="568.8" width="15.3" height="16.1"/>
    <rect id="a10" class="st10" x="86.4" y="568.8" width="15.3" height="16.1"/>
    <rect id="a11" class="st10" x="101.6" y="568.8" width="15.3" height="16.1"/>
    <rect id="a3" class="st10" x="154" y="552.3" width="15.5" height="15.6"/>
    <rect id="a4" class="st10" x="154" y="567.6" width="15.5" height="15.6"/>
    <rect id="a5" class="st10" x="154" y="583.2" width="15.5" height="15.6"/>
    <rect id="a8" class="st10" x="106.9" y="607.3" width="16.6" height="15.9"/>
    <rect id="a7" class="st10" x="123.3" y="607.4" width="16.6" height="15.9"/>
    <rect id="a6" class="st10" x="139.9" y="607.4" width="16.6" height="15.9"/>
    <rect id="a9" class="st10" x="90.4" y="607.3" width="16.6" height="15.9"/>
    <rect id="aa" class="st11" x="82.3" y="469.9" width="12.9" height="13.5"/>
    <rect id="bb" class="st11" x="96.3" y="469.9" width="12.9" height="13.5"/>
    <rect id="cc" class="st11" x="110.4" y="469.9" width="12.9" height="13.5"/>
    <rect id="dd" class="st11" x="82.3" y="484.5" width="12.9" height="13.5"/>
    <rect id="ee" class="st11" x="96.3" y="484.5" width="12.9" height="13.5"/>
    <rect id="ff" class="st11" x="110.4" y="484.5" width="12.9" height="13.5"/>
    <rect id="gg" class="st11" x="82.3" y="499.2" width="12.9" height="13.5"/>
    <rect id="hh" class="st11" x="96.3" y="499.2" width="12.9" height="13.5"/>
    <rect id="ii" class="st11" x="110.4" y="499.2" width="12.9" height="13.5"/>
    <rect id="ankeny" class="st0" x="-8" y="396.5" width="60" height="65"/>
    <rect id="burnside" class="st0" x="156" y="396.5" width="60" height="65"/>
  </g>
  <g id="Layer_4">
    <rect id="arium" class="st0" x="86.4" y="588.8" width="50" height="14.5"/>
    <rect id="heylovebar" class="st0" x="27.7" y="529.5" width="42.5" height="91.2"/>
    <rect id="elevators" class="st0" x="89.4" y="518.1" width="25.7" height="9.2"/>
    <rect id="restrooms" class="st0" x="26.2" y="472.6" width="36.7" height="19.3"/>
    <rect id="dreamtentroof" class="st0" x="130" y="258.9" width="26.1" height="46.9"/>
    <rect id="jupiteroglv1" class="st0" x="31.4" y="192.4" width="147.3" height="9.5"/>
    <rect id="jupiteroglv2" class="st0" x="29.5" y="387.2" width="148.3" height="9.2"/>
    <rect id="jnextlv2" class="st0" x="30.5" y="624.2" width="148.3" height="9.2"/>
    <rect id="flexlounge" class="st0" x="125" y="468.2" width="42.9" height="15.1"/>
  </g>
</svg>