<?xml version="1.0" encoding="UTF-8"?>
<svg id="Layer_1" data-name="Layer 1" xmlns="http://www.w3.org/2000/svg" viewBox="0 0 207.4 643.2">
  <defs>
    <style>
      .cls-1 {
        fill: none;
      }

      .cls-2, .cls-3 {
        fill: #1a563d;
      }

      .cls-2, .cls-4, .cls-5, .cls-6, .cls-7, .cls-8, .cls-9, .cls-10, .cls-11, .cls-12, .cls-13 {
        stroke: #fff;
        stroke-miterlimit: 10;
      }

      .cls-4 {
        fill: #51b848;
      }

      .cls-14, .cls-5 {
        fill: #8e8e8e;
      }

      .cls-6 {
        fill: #c5862b;
      }

      .cls-7 {
        fill: #dd3ac6;
      }

      .cls-8 {
        fill: #52439b;
      }

      .cls-9 {
        fill: #2adff2;
      }

      .cls-15 {
        fill: #fbe100;
      }

      .cls-10 {
        fill: #967cb9;
      }

      .cls-11 {
        fill: #3d7ef2;
      }

      .cls-12 {
        fill: #f36b28;
      }

      .cls-13 {
        fill: #e51858;
      }
    </style>
  </defs>
  <g id="layer_3" data-name="layer 3">
    <rect id="e1" class="cls-15" x="171.6" y="336.6" width="10.6" height="13.4"/>
    <rect id="e2" class="cls-15" x="29.5" y="363.9" width="7.1" height="6.5"/>
    <rect id="e3" class="cls-15" x="59.5" y="225.7" width="9.7" height="10.4"/>
    <rect id="e4" class="cls-15" x="84.2" y="538.4" width="32.1" height="14.1"/>
    <rect id="e5" class="cls-15" x="88" y="516.8" width="14.8" height="13.5"/>
    <rect id="e6" class="cls-15" x="102.8" y="516.8" width="13.5" height="12"/>
    <rect id="e7" class="cls-15" x="125" y="485.3" width="26.3" height="8.6"/>
    <rect id="e8" class="cls-15" x="141.9" y="493.7" width="9.4" height="17.1"/>
    <rect id="e9" class="cls-15" x="173.6" y="141.2" width="10.6" height="13.4"/>
    <rect id="e10" class="cls-15" x="30.5" y="168.5" width="7.1" height="6.5"/>
    <rect id="e11" class="cls-15" x="60.5" y="30.4" width="9.7" height="10.4"/>
  </g>
  <g id="Layer_2" data-name="Layer 2">
    <rect id="rr1" class="cls-8" x="133.4" y="35.6" width="9.1" height="12.8"/>
    <rect id="rr2" class="cls-8" x="25" y="466.1" width="39.3" height="37.3"/>
    <rect id="_124" data-name=" 124" class="cls-7" x="31" y="35.8" width="13.9" height="8.2"/>
    <rect id="_123" data-name=" 123" class="cls-7" x="31" y="52" width="13.9" height="7.9"/>
    <rect id="_122" data-name=" 122" class="cls-7" x="31" y="60.4" width="13.9" height="8.6"/>
    <rect id="_119" data-name=" 119" class="cls-7" x="31" y="99.5" width="13.9" height="8.3"/>
    <rect id="_121" data-name=" 121" class="cls-7" x="31" y="75.6" width="13.9" height="8.3"/>
    <rect id="_126" data-name=" 126" class="cls-7" x="70.7" y="113.9" width="8.7" height="12.6"/>
    <rect id="_127" data-name=" 127" class="cls-7" x="83.6" y="113.9" width="8.4" height="12.6"/>
    <rect id="_128" data-name=" 128" class="cls-7" x="92" y="113.9" width="8.6" height="12.6"/>
    <rect id="_129" data-name=" 129" class="cls-7" x="105.3" y="113.9" width="8.7" height="12.6"/>
    <rect id="_132" data-name=" 132" class="cls-7" x="109.6" y="105.5" width="17.2" height="8.4"/>
    <rect id="_224" data-name=" 224" class="cls-7" x="30.1" y="230.7" width="14.6" height="8.9"/>
    <rect id="_120" data-name=" 120" class="cls-10" x="31" y="83.9" width="13.9" height="7.8"/>
    <rect id="_140" data-name=" 140" class="cls-10" x="109.3" y="35.6" width="17.4" height="9.4"/>
    <rect id="_138" data-name=" 138" class="cls-10" x="109.3" y="53.2" width="17.4" height="8.6"/>
    <rect id="_136" data-name=" 136" class="cls-10" x="109.5" y="71.1" width="17.2" height="9"/>
    <rect id="_134" data-name=" 134" class="cls-10" x="109.5" y="88.3" width="17.2" height="9.4"/>
    <rect id="_116" data-name=" 116" class="cls-10" x="31" y="125.1" width="16.7" height="8.8"/>
    <rect id="_114" data-name=" 114" class="cls-10" x="31" y="142.5" width="16.7" height="8.7"/>
    <rect id="_112" data-name=" 112" class="cls-10" x="31" y="159.8" width="16.7" height="8.7"/>
    <rect id="_108" data-name=" 108" class="cls-10" x="31" y="175.2" width="23.6" height="16.7"/>
    <rect id="_106" data-name=" 106" class="cls-10" x="63.6" y="175.2" width="8.8" height="16.7"/>
    <rect id="_104" data-name=" 104" class="cls-10" x="81.2" y="175.2" width="9.1" height="16.7"/>
    <rect id="_220" data-name=" 220" class="cls-10" x="30" y="279" width="14.7" height="8.1"/>
    <rect id="_216" data-name=" 216" class="cls-10" x="29.9" y="320.2" width="16.9" height="8.7"/>
    <rect id="_214" data-name=" 214" class="cls-10" x="29.9" y="337.7" width="16.9" height="8.4"/>
    <rect id="_212" data-name=" 212" class="cls-10" x="29.9" y="354.9" width="16.9" height="9"/>
    <rect id="_210" data-name=" 210" class="cls-10" x="29.9" y="370.3" width="12.5" height="16.8"/>
    <rect id="_208" data-name=" 208" class="cls-10" x="42.4" y="370.3" width="11.6" height="16.8"/>
    <rect id="_206" data-name=" 206" class="cls-10" x="62.7" y="370.3" width="9" height="16.8"/>
    <rect id="_204" data-name=" 204" class="cls-10" x="80.9" y="370.3" width="8.4" height="16.8"/>
    <rect id="_202" data-name=" 202" class="cls-10" x="98.1" y="370.3" width="8.5" height="16.8"/>
    <rect id="_240" data-name=" 240" class="cls-10" x="108.8" y="230.6" width="17.4" height="9.1"/>
    <rect id="_238" data-name=" 238" class="cls-10" x="108.8" y="248.1" width="17.4" height="8.7"/>
    <rect id="_239" data-name=" 239" class="cls-4" x="108.8" y="239.8" width="17.4" height="8.9"/>
    <rect id="_236" data-name=" 236" class="cls-10" x="108.8" y="266.1" width="17.4" height="8.6"/>
    <rect id="_234" data-name=" 234" class="cls-10" x="108.8" y="283.1" width="17.4" height="8.2"/>
    <rect id="_244" data-name=" 244" class="cls-10" x="161.1" y="230.6" width="16.8" height="8.9"/>
    <rect id="_245" data-name=" 245" class="cls-10" x="161.1" y="239.5" width="16.7" height="8.7"/>
    <rect id="_246" data-name=" 246" class="cls-10" x="161.1" y="248.3" width="16.7" height="8.5"/>
    <rect id="_248" data-name=" 248" class="cls-10" x="161.1" y="266" width="16.7" height="8.5"/>
    <rect id="_250" data-name=" 250" class="cls-10" x="161.1" y="283.3" width="16.7" height="8.7"/>
    <rect id="_223" data-name=" 223" class="cls-7" x="30.1" y="246.8" width="14.6" height="8.5"/>
    <rect id="_222" data-name=" 222" class="cls-7" x="30.1" y="255.3" width="14.6" height="8.6"/>
    <rect id="_221" data-name=" 221" class="cls-7" x="30" y="270.8" width="14.7" height="8.2"/>
    <rect id="_219" data-name=" 219" class="cls-7" x="30" y="294.4" width="14.7" height="8.7"/>
    <rect id="_226" data-name=" 226" class="cls-7" x="69.9" y="308.7" width="8.8" height="12.9"/>
    <rect id="_227" data-name=" 227" class="cls-7" x="83" y="308.7" width="8.5" height="12.9"/>
    <rect id="_228" data-name=" 228" class="cls-7" x="91.5" y="308.7" width="8.5" height="12.9"/>
    <rect id="_229" data-name=" 229" class="cls-7" x="104.8" y="308.9" width="8.5" height="12.9"/>
    <rect id="_232" data-name=" 232" class="cls-7" x="108.8" y="300.3" width="17.4" height="8.1"/>
    <rect id="_243" data-name=" 243" class="cls-7" x="142.6" y="230.6" width="9.6" height="12.7"/>
    <rect id="_242" data-name=" 242" class="cls-7" x="132" y="230.6" width="9.4" height="12.7"/>
    <rect id="_252" data-name=" 252" class="cls-7" x="161.1" y="300.3" width="16.7" height="9.1"/>
    <rect id="_254" data-name=" 254" class="cls-7" x="161.1" y="317.4" width="16.5" height="9.7"/>
    <rect id="s1" class="cls-13" x="30.3" y="422.5" width="11.1" height="11.1"/>
    <rect id="s2" class="cls-13" x="43.8" y="422.5" width="11.1" height="11.1"/>
    <rect id="s6" class="cls-13" x="98.1" y="422.5" width="11.1" height="11.1"/>
    <rect id="s5" class="cls-13" x="84.3" y="422.5" width="11.1" height="11.1"/>
    <rect id="s4" class="cls-13" x="70.8" y="422.5" width="11.1" height="11.1"/>
    <rect id="s3" class="cls-13" x="57.3" y="422.5" width="11.1" height="11.1"/>
    <rect id="s8" class="cls-13" x="125.3" y="422.5" width="11.1" height="11.1"/>
    <rect id="s7" class="cls-13" x="111.7" y="422.5" width="11.1" height="11.1"/>
    <rect id="s9" class="cls-13" x="138.9" y="422.5" width="11.1" height="11.1"/>
    <rect id="s10" class="cls-13" x="152.5" y="422.5" width="11.1" height="11.1"/>
    <rect id="s11" class="cls-13" x="166.1" y="422.5" width="11.1" height="11.1"/>
    <rect id="_9thst" data-name=" 9thst" class="cls-6" x="39.3" y="400.8" width="130" height="11.4"/>
    <rect id="command" class="cls-6" x="161.1" y="99.86" width="17.1" height="24.74"/>
    <rect id="thinktank" class="cls-6" x="161.17" y="74.8" width="17.1" height="13.7"/>
    <rect id="dreambox" class="cls-6" x="158.32" y="35.21" width="20.27" height="35.07"/>
    <rect id="bunker" class="cls-6" x="141.9" y="510.8" width="27.7" height="41.4"/>
    <rect id="stage" class="cls-6" x="133.4" y="51.6" width="24.5" height="16"/>
    <rect id="sb" class="cls-6" x="74" y="607.3" width="16.6" height="15.9"/>
    <rect id="_117" data-name=" 117" class="cls-4" x="31" y="116.5" width="13.9" height="8.4"/>
    <rect id="_115" data-name=" 115" class="cls-4" x="31.4" y="133.9" width="13.9" height="8.4"/>
    <rect id="_113" data-name=" 113" class="cls-4" x="31" y="151.4" width="13.9" height="8.4"/>
    <rect id="_107" data-name=" 107" class="cls-4" x="54.6" y="175.2" width="9" height="16.5"/>
    <rect id="_105" data-name=" 105" class="cls-4" x="72.4" y="175.2" width="8.8" height="16.7"/>
    <rect id="_103" data-name=" 103" class="cls-4" x="90.3" y="175.2" width="8.1" height="16.7"/>
    <rect id="ina" class="cls-5" x="98.3" y="175.2" width="8.6" height="16.7"/>
    <rect id="_131" data-name=" 131" class="cls-4" x="114" y="113.9" width="12.6" height="12.6"/>
    <rect id="_133" data-name=" 133" class="cls-4" x="109.5" y="97.7" width="17.1" height="7.8"/>
    <rect id="_135" data-name=" 135" class="cls-4" x="109.5" y="80" width="17" height="8.2"/>
    <rect id="_137" data-name=" 137" class="cls-4" x="109.7" y="62.3" width="17" height="8.7"/>
    <rect id="_139" data-name=" 139" class="cls-4" x="109.5" y="44.9" width="17" height="8.7"/>
    <rect id="_213" data-name=" 213" class="cls-4" x="29.9" y="346.1" width="17" height="8.7"/>
    <rect id="_215" data-name=" 215" class="cls-4" x="29.9" y="329" width="17" height="8.7"/>
    <rect id="_217" data-name=" 217" class="cls-4" x="30" y="311.5" width="14.7" height="8.7"/>
    <rect id="_218" data-name=" 218" class="cls-4" x="30" y="302.8" width="14.7" height="8.7"/>
    <rect id="_118" data-name=" 118" class="cls-4" x="31" y="107.9" width="13.9" height="8.4"/>
    <rect id="_231" data-name=" 231" class="cls-4" x="113.3" y="308.9" width="12.8" height="12.9"/>
    <rect id="_233" data-name=" 233" class="cls-4" x="108.8" y="291.4" width="17.4" height="8.9"/>
    <rect id="_235" data-name=" 235" class="cls-4" x="108.8" y="274.7" width="17.4" height="8.9"/>
    <rect id="_237" data-name=" 237" class="cls-4" x="108.8" y="257" width="17.4" height="8.9"/>
    <rect id="_253" data-name=" 253" class="cls-4" x="161.1" y="309.4" width="16.7" height="8.8"/>
    <rect id="_251" data-name=" 251" class="cls-4" x="161.1" y="292.1" width="16.7" height="8.8"/>
    <rect id="_249" data-name=" 249" class="cls-4" x="161.1" y="274.5" width="16.7" height="8.8"/>
    <rect id="_247" data-name=" 247" class="cls-4" x="161.1" y="256.9" width="16.7" height="8.8"/>
    <rect id="_207" data-name=" 207" class="cls-4" x="54.1" y="370.3" width="8.7" height="16.8"/>
    <rect id="_205" data-name=" 205" class="cls-4" x="71.7" y="370.3" width="9.2" height="16.8"/>
    <rect id="_203" data-name=" 203" class="cls-4" x="89.3" y="370.3" width="8.8" height="16.8"/>
    <rect id="h" class="cls-12" x="138.4" y="324.3" width="7.8" height="9"/>
    <rect id="i" class="cls-12" x="103.4" y="329.1" width="10.8" height="7.6"/>
    <rect id="j" class="cls-12" x="86.2" y="329.1" width="10.8" height="7.6"/>
    <polygon id="k" class="cls-12" points="48.1 298.8 53.5 295.5 59.2 304.8 53.4 308.4 47.7 299 48.1 298.8"/>
    <polygon id="l" class="cls-12" points="48.1 285.3 53.5 281.9 59.2 291.3 53.4 294.9 47.7 285.5 48.1 285.3"/>
    <polygon id="m" class="cls-12" points="48.5 271.7 53.8 268.4 59.5 277.7 53.8 281.3 48 271.9 48.5 271.7"/>
    <polygon id="n" class="cls-12" points="48.5 258.1 53.8 254.8 59.5 264.2 53.8 267.8 48 258.4 48.5 258.1"/>
    <rect id="h1" class="cls-12" x="138.8" y="129.1" width="7.8" height="9"/>
    <rect id="i1" class="cls-12" x="103.8" y="133.9" width="10.8" height="7.6"/>
    <rect id="j1" class="cls-12" x="86.7" y="133.9" width="10.8" height="7.6"/>
    <polygon id="k1" class="cls-12" points="48.5 103.6 53.9 100.3 59.6 109.6 53.8 113.2 48.1 103.8 48.5 103.6"/>
    <polygon id="l1" class="cls-12" points="48.5 90.1 53.9 86.7 59.6 96.1 53.8 99.7 48.1 90.3 48.5 90.1"/>
    <polygon id="m1" class="cls-12" points="48.9 76.5 54.2 73.2 60 82.5 54.2 86.1 48.5 76.7 48.9 76.5"/>
    <polygon id="n1" class="cls-12" points="48.9 63 54.2 59.6 60 69 54.2 72.6 48.5 63.2 48.9 63"/>
    <rect id="a" class="cls-12" x="136.7" y="72.1" width="6" height="5.9"/>
    <rect id="b" class="cls-12" x="136.7" y="79.9" width="6" height="5.9"/>
    <rect id="c" class="cls-12" x="136.7" y="87.7" width="6" height="5.9"/>
    <rect id="d" class="cls-12" x="136.7" y="95.4" width="6" height="5.9"/>
    <rect id="e" class="cls-12" x="136.7" y="103.2" width="6" height="5.9"/>
    <rect id="f" class="cls-12" x="136.7" y="110.9" width="6" height="5.9"/>
    <rect id="g" class="cls-12" x="136.7" y="118.7" width="6" height="5.9"/>
    <rect id="_1" data-name=" 1" class="cls-9" x="148.4" y="70.7" width="8.5" height="7.8"/>
    <rect id="_2" data-name=" 2" class="cls-9" x="148.4" y="79.8" width="8.5" height="7.8"/>
    <rect id="_3" data-name=" 3" class="cls-9" x="148.4" y="88.8" width="8.5" height="7.8"/>
    <rect id="_4" data-name=" 4" class="cls-9" x="148.4" y="97.8" width="8.5" height="7.8"/>
    <rect id="_5" data-name=" 5" class="cls-9" x="148.4" y="106.8" width="8.5" height="7.8"/>
    <rect id="_6" data-name=" 6" class="cls-9" x="148.4" y="115.8" width="8.5" height="7.8"/>
    <rect id="ina1" class="cls-14" x="70.7" y="35.8" width="38.9" height="78"/>
    <rect id="ina2" class="cls-5" x="72.3" y="232.5" width="34.2" height="73.6"/>
    <polygon id="sgphlb" class="cls-2" points="25.1 527.2 25.1 623.2 73 623.2 73 552.6 79.2 552.6 79.2 516.6 64.9 516.6 65 527.5 25.1 527.2"/>
    <rect id="hlblable" class="cls-3" x="26.2" y="527.8" width="45.7" height="94.5"/>
    <rect id="a2" class="cls-11" x="64.3" y="466.1" width="14.9" height="15.5"/>
    <rect id="a1" class="cls-11" x="64.3" y="481.4" width="14.9" height="15.5"/>
    <rect id="a13" class="cls-11" x="116.9" y="552.9" width="15.3" height="16.1"/>
    <rect id="a12" class="cls-11" x="116.9" y="568.8" width="15.3" height="16.1"/>
    <rect id="a10" class="cls-11" x="86.4" y="568.8" width="15.3" height="16.1"/>
    <rect id="a11" class="cls-11" x="101.6" y="568.8" width="15.3" height="16.1"/>
    <rect id="a3" class="cls-11" x="154" y="552.3" width="15.5" height="15.6"/>
    <rect id="a4" class="cls-11" x="154" y="567.6" width="15.5" height="15.6"/>
    <rect id="a5" class="cls-11" x="154" y="583.2" width="15.5" height="15.6"/>
    <rect id="a8" class="cls-11" x="106.9" y="607.3" width="16.6" height="15.9"/>
    <rect id="a7" class="cls-11" x="123.3" y="607.4" width="16.6" height="15.9"/>
    <rect id="a6" class="cls-11" x="139.9" y="607.4" width="16.6" height="15.9"/>
    <rect id="a9" class="cls-11" x="90.4" y="607.3" width="16.6" height="15.9"/>
    <rect id="aa" class="cls-12" x="82.3" y="469.9" width="12.9" height="13.5"/>
    <rect id="bb" class="cls-12" x="96.3" y="469.9" width="12.9" height="13.5"/>
    <rect id="cc" class="cls-12" x="110.4" y="469.9" width="12.9" height="13.5"/>
    <rect id="dd" class="cls-12" x="82.3" y="484.5" width="12.9" height="13.5"/>
    <rect id="ee" class="cls-12" x="96.3" y="484.5" width="12.9" height="13.5"/>
    <rect id="ff" class="cls-12" x="110.4" y="484.5" width="12.9" height="13.5"/>
    <rect id="gg" class="cls-12" x="82.3" y="499.2" width="12.9" height="13.5"/>
    <rect id="hh" class="cls-12" x="96.3" y="499.2" width="12.9" height="13.5"/>
    <rect id="ii" class="cls-12" x="110.4" y="499.2" width="12.9" height="13.5"/>
    <rect id="ankeny" class="cls-1" x=".7" y="396.5" width="23.6" height="58.8"/>
    <rect id="burnside" class="cls-1" x="183.1" y="396.5" width="23.6" height="58.8"/>
  </g>
  <g id="Layer_4" data-name="Layer 4">
    <rect id="arium" class="cls-1" x="86.4" y="588.8" width="50" height="14.5"/>
    <rect id="heylovebar" class="cls-1" x="27.7" y="529.5" width="42.5" height="91.2"/>
    <rect id="elevators" class="cls-1" x="89.4" y="518.1" width="25.7" height="9.2"/>
    <rect id="restrooms" class="cls-1" x="26.2" y="472.6" width="36.7" height="19.3"/>
    <rect id="dreamtentroof" class="cls-1" x="130" y="258.9" width="26.1" height="46.9"/>
    <rect id="jupiteroglv1" class="cls-1" x="31.4" y="192.4" width="147.3" height="9.5"/>
    <rect id="jupiteroglv2" class="cls-1" x="29.5" y="387.2" width="148.3" height="9.2"/>
    <rect id="jnextlv2" class="cls-1" x="30.5" y="624.2" width="148.3" height="9.2"/>
    <rect id="flexlounge" class="cls-1" x="125" y="468.2" width="42.9" height="15.1"/>
  </g>
</svg>