<?xml version="1.0" encoding="UTF-8"?>
<svg id="Layer_1" data-name="Layer 1" xmlns="http://www.w3.org/2000/svg" viewBox="0 0 606 677.7">
  <defs>
    <style>
      .cls-1 {
        fill: #f5fbfe;
      }
    </style>
  </defs>
  <path id="Artboard_1_JO-GROUNDVO-N1" data-name="Artboard 1 JO-GROUNDVO-N1" class="cls-1" d="M34.7,52.7l10.4-6.2,11.1,18.4-10.4,6.2s-11.1-18.4-11.1-18.4Z"/>
  <path id="Artboard_1_JO-GROUNDVO-M1" data-name="Artboard 1 JO-GROUNDVO-M1" class="cls-1" d="M35,79l10.4-6.1,11.1,18.4-10.4,6.1-11.1-18.4Z"/>
  <path id="Artboard_1_JO-GROUNDVO-L1" data-name="Artboard 1 JO-GROUNDVO-L1" class="cls-1" d="M34,104.7l10.3-6.3,11.4,18.2-10.3,6.3s-11.4-18.2-11.4-18.2Z"/>
  <path id="Artboard_1_JO-GROUNDVO-K1" data-name="Artboard 1 JO-GROUNDVO-K1" class="cls-1" d="M34.3,130.3l11.2-6.2,11.2,19.8-11.2,6.2-11.2-19.8Z"/>
  <path id="Artboard_1_JO-GROUNDVO-J1" data-name="Artboard 1 JO-GROUNDVO-J1" class="cls-1" d="M115.9,187.5l12.8-.2.2,12.8-12.8.2s-.2-12.8-.2-12.8Z"/>
  <path id="Artboard_1_JO-GROUNDVO-I1" data-name="Artboard 1 JO-GROUNDVO-I1" class="cls-1" d="M140.6,187.4l12.8-.2.2,12.8-12.8.2-.2-12.8Z"/>
  <path id="Artboard_1_JO-GROUNDVO-H1" data-name="Artboard 1 JO-GROUNDVO-H1" class="cls-1" d="M206.9,174l12.8-.2.2,12.8-12.8.2-.2-12.8Z"/>
  <path id="Artboard_1_JO-L2-254" data-name="Artboard 1 JO-L2-254" class="cls-1" d="M249.6,166.4l.2,17.5,32.4.2v-25.9h-13.9l.2,7.4-19,.7h0l.1.1Z"/>
  <path id="Artboard_1_JO-L2-253" data-name="Artboard 1 JO-L2-253" class="cls-1" d="M249.8,166.1l18.2-.2.2-7.9,13.4.5.5-8.9h-32.4v16.6h0l.1-.1Z"/>
  <path id="Artboard_1_JO-L2-252" data-name="Artboard 1 JO-L2-252" class="cls-1" d="M250.1,133.5h31.4l.2,16.3-32.2-.2.5-16.1h.1Z"/>
  <path id="Artboard_1_JO-L2-251" data-name="Artboard 1 JO-L2-251" class="cls-1" d="M249.8,132.8l-.7-17.3,19,.5v7.7l13.7.5.2,8.9-32.2-.2h0v-.1Z"/>
  <path id="Artboard_1_JO-L2-250" data-name="Artboard 1 JO-L2-250" class="cls-1" d="M250.1,100.4l31.4.2.5,24-13.7-.2-.2-7.9-19-.2,1-15.8h0v-.1Z"/>
  <path id="Artboard_1_JO-L2-249" data-name="Artboard 1 JO-L2-249" class="cls-1" d="M250.1,99.9l-.7-17.3,19,.5v7.7l13.7.5.2,8.9-32.2-.2h0v-.1Z"/>
  <path id="Artboard_1_JO-L2-248" data-name="Artboard 1 JO-L2-248" class="cls-1" d="M250.1,67.7l31.4.2.5,24-13.7-.2-.2-7.9-19-.2,1-15.8h0v-.1Z"/>
  <path id="Artboard_1_JO-L2-247" data-name="Artboard 1 JO-L2-247" class="cls-1" d="M249.8,67.7l-.7-17.3,19,.5v7.7l13.7.5.2,8.9-32.2-.2h0v-.1Z"/>
  <path id="Artboard_1_JO-L2-246" data-name="Artboard 1 JO-L2-246" class="cls-1" d="M250.1,34.6l31.4.2.5,24-13.7-.2-.2-7.9-19-.2,1-15.8h0v-.1Z"/>
  <path id="Artboard_1_JO-L2-245" data-name="Artboard 1 JO-L2-245" class="cls-1" d="M281.8,34.6l-31.7-.5-.2-16.3,18.2-.5.2-7.7h13l.5,25h0Z"/>
  <path id="Artboard_1_JO-L2-244" data-name="Artboard 1 JO-L2-244" class="cls-1" d="M281.8.3v9.4l-13.4-.2-.2,7.7h-31.4l.2-16.6,44.9-.2-.1-.1Z"/>
  <path id="Artboard_1_JO-L2-243" data-name="Artboard 1 JO-L2-243" class="cls-1" d="M236.6.8l.2,16.3,5.3.2-.5,7.2-21.6.2-.2-11.8-7.2-.2.2-12.7,23.8.7v.1Z"/>
  <path id="Artboard_1_JO-L2-242" data-name="Artboard 1 JO-L2-242" class="cls-1" d="M212.6.8v12.2l7.2.5-.2,11.5-31.4-.5v-5.8l7.2-.7-.2-17.5"/>
  <path id="Artboard_1_JO-L2-240" data-name="Artboard 1 JO-L2-240" class="cls-1" d="M150.7.8l32.6-.5-.2,18.7-19.9-1-.2,8.2-12.7-.2.5-25.2h-.1Z"/>
  <path id="Artboard_1_JO-L2-239" data-name="Artboard 1 JO-L2-239" class="cls-1" d="M150.7,34.8l-.2-8.4h12.5l.2-7.9h19.9l.5,16.3h-32.9,0Z"/>
  <path id="Artboard_1_JO-L2-237" data-name="Artboard 1 JO-L2-237" class="cls-1" d="M150.7,68.7l-.2-8.4h12.5l.2-7.9h19.9l.5,16.3h-32.9,0Z"/>
  <path id="Artboard_1_JO-L2-238" data-name="Artboard 1 JO-L2-238" class="cls-1" d="M150.7,34.4l32.6-.5-.2,18.7-19.9-1-.2,8.2-12.7-.2.5-25.2h-.1Z"/>
  <path id="Artboard_1_JO-L2-236" data-name="Artboard 1 JO-L2-236" class="cls-1" d="M150.7,68.9h32.4l.2,15.1-20.4,1.2v8.2l-12.5-.2.2-24.2h0l.1-.1Z"/>
  <path id="Artboard_1_JO-L2-235" data-name="Artboard 1 JO-L2-235" class="cls-1" d="M150.7,100.1l-.2-8.4h12.5l.2-7.9h19.9l.5,16.3h-32.9,0Z"/>
  <path id="Artboard_1_JO-L2-234" data-name="Artboard 1 JO-L2-234" class="cls-1" d="M150.7,101.1h32.4l.2,15.1-20.4,1.2v8.2l-12.5-.2.2-24.2h0l.1-.1Z"/>
  <path id="Artboard_1_JO-L2-233" data-name="Artboard 1 JO-L2-233" class="cls-1" d="M150.7,132.5l-.2-8.4h12.5l.2-7.9h19.9l.5,16.3h-32.9,0Z"/>
  <path id="Artboard_1_JO-L2-232" data-name="Artboard 1 JO-L2-232" class="cls-1" d="M150.2,133.7l33.4.2v16.3l-33.1-.7-.2-15.8h-.1Z"/>
  <path id="Artboard_1_JO-L2-231" data-name="Artboard 1 JO-L2-231" class="cls-1" d="M158.6,150h25l-.2,24h-24.7v-24h-.1Z"/>
  <path id="Artboard_1_JO-L2-229" data-name="Artboard 1 JO-L2-229" class="cls-1" d="M158.6,150.5l.2,23.8h-24.7l.5-12.5,7.4.7v-12.2l16.6.2Z"/>
  <path id="Artboard_1_JO-L2-228" data-name="Artboard 1 JO-L2-228" class="cls-1" d="M117.6,149.8l25,.2v11l-8.2,1.2.2,12.2-17-.5v-24.2.1Z"/>
  <path id="Artboard_1_JO-L2-227" data-name="Artboard 1 JO-L2-227" class="cls-1" d="M117.4,150l.2,23.8h-24.7l.5-12.5,7.4.7v-12.2s16.6.2,16.6.2Z"/>
  <path id="Artboard_1_JO-L2-226" data-name="Artboard 1 JO-L2-226" class="cls-1" d="M76.8,150l25,.2v11l-8.2,1.2.2,12.2-17-.5v-24.2.1Z"/>
  <path id="Artboard_1_JO-L2-224" data-name="Artboard 1 JO-L2-224" class="cls-1" d="M.5,1.2v16.3l7.2.2.2,12.7,9.1.2.2-13.2,11,.2-.7-17L.5,1.2Z"/>
  <path id="Artboard_1_JO-L2-223" data-name="Artboard 1 JO-L2-223" class="cls-1" d="M.7,18.3l7,.2v13h20.2l-.5,15.6-26.9.7s.2-29.5.2-29.5Z"/>
  <path id="Artboard_1_JO-L2-222" data-name="Artboard 1 JO-L2-222" class="cls-1" d="M.2,47.6v16.3l7.2.2.2,12.7,9.1.2.2-13.2,11,.2-.7-17L.1,47.5l.1.1Z"/>
  <path id="Artboard_1_JO-L2-221" data-name="Artboard 1 JO-L2-221" class="cls-1" d="M1,63.6l7,.2v13h20.2l-.5,15.6-26.9.7s.2-29.5.2-29.5Z"/>
  <path id="Artboard_1_JO-L2-220" data-name="Artboard 1 JO-L2-220" class="cls-1" d="M.2,92.7v16.3l7.2.2.2,12.7,9.1.2.2-13.2,11,.2-.7-17L.1,92.6l.1.1Z"/>
  <path id="Artboard_1_JO-L2-219" data-name="Artboard 1 JO-L2-219" class="cls-1" d="M.7,109l7,.2v13h20.2l-.5,15.6-26.9.7s.2-29.5.2-29.5Z"/>
  <path id="Artboard_1_JO-L2-218" data-name="Artboard 1 JO-L2-218" class="cls-1" d="M0,138.3l27.6-.7.5,16.8-27.8.2-.3-16.3h0Z"/>
  <path id="Artboard_1_JO-L2-217" data-name="Artboard 1 JO-L2-217" class="cls-1" d="M0,154.8l.2,7.9,12.7.5-.2,7.7h14.9l.2-16.1H0Z"/>
  <path id="Artboard_1_JO-L2-216" data-name="Artboard 1 JO-L2-216" class="cls-1" d="M0,163.7l.5,24.5,31.9.7.2-17.3-19.9.2-.2-7.9-12.5-.2Z"/>
  <path id="Artboard_1_JO-L2-215" data-name="Artboard 1 JO-L2-215" class="cls-1" d="M.5,188.2l-.2,8.4,12,.5.2,7.7,20.4.2-.5-16.1-31.9-.7h0Z"/>
  <path id="Artboard_1_JO-L2-214" data-name="Artboard 1 JO-L2-214" class="cls-1" d="M0,196.6l.5,24.5,31.9.7.2-17.3-19.9.2-.2-7.9-12.5-.2Z"/>
  <path id="Artboard_1_JO-L2-213" data-name="Artboard 1 JO-L2-213" class="cls-1" d="M.5,220.8l-.2,8.4,12,.5.2,7.7,20.4.2-.5-16.1-31.9-.7h0Z"/>
  <path id="Artboard_1_JO-L2-212" data-name="Artboard 1 JO-L2-212" class="cls-1" d="M0,229.5l.5,24.5,31.9.7.2-17.3-19.9.2-.2-7.9-12.5-.2h0Z"/>
  <path id="Artboard_1_JO-L2-210" data-name="Artboard 1 JO-L2-210" class="cls-1" d="M0,267.4l20.4-.5.7,31.9-20.9.2-.2-31.6Z"/>
  <path id="Artboard_1_JO-L2-208" data-name="Artboard 1 JO-L2-208" class="cls-1" d="M21.4,267.2l.2,31.2,24.5.5.2-32.2-25,.5h.1Z"/>
  <path id="Artboard_1_JO-L2-207" data-name="Artboard 1 JO-L2-207" class="cls-1" d="M46.1,266.9v31.4l8.4.2.2-11.8h7.9v-19.7l-16.6-.2.1.1Z"/>
  <path id="Artboard_1_JO-L2-206" data-name="Artboard 1 JO-L2-206" class="cls-1" d="M62.9,267.2v19.7l-7.7.2-.5,12.2,24.7.5-.7-31.9-15.8-.7h0Z"/>
  <path id="Artboard_1_JO-L2-205" data-name="Artboard 1 JO-L2-205" class="cls-1" d="M80.6,266.2v31.4l8.4.2.2-11.8h7.9v-19.7l-16.6-.2.1.1Z"/>
  <path id="Artboard_1_JO-L2-204" data-name="Artboard 1 JO-L2-204" class="cls-1" d="M97,266.2v19.7l-7.7.2-.5,12.2,24.7.5-.7-31.9-15.8-.7h0Z"/>
  <path id="Artboard_1_JO-L2-203" data-name="Artboard 1 JO-L2-203" class="cls-1" d="M113.5,266.2v31.4l8.4.2.2-11.8h7.9v-19.7l-16.6-.2.1.1Z"/>
  <path id="Artboard_1_JO-L2-202" data-name="Artboard 1 JO-L2-202" class="cls-1" d="M129.6,266.4v19.7l-7.7.2-.5,12.2,24.7.5-.7-31.9-15.8-.7h0Z"/>
  <path id="Artboard_1_JO-GROUNDVO-N" data-name="Artboard 1 JO-GROUNDVO-N" class="cls-1" d="M398.5,52.7l10.7-6,10.8,18.9-10.7,6-10.8-18.9Z"/>
  <path id="Artboard_1_JO-GROUNDVO-M" data-name="Artboard 1 JO-GROUNDVO-M" class="cls-1" d="M398.2,78.8l10.7-6,10.8,18.9-10.7,6-10.8-18.9Z"/>
  <path id="Artboard_1_JO-GROUNDVO-L" data-name="Artboard 1 JO-GROUNDVO-L" class="cls-1" d="M397.9,105.6l10.3-6.6,11.9,18.3-10.3,6.6-11.9-18.3Z"/>
  <path id="Artboard_1_JO-GROUNDVO-K" data-name="Artboard 1 JO-GROUNDVO-K" class="cls-1" d="M398.1,132.1l11.1-6.6,12,19.6-11.1,6.6-12-19.6Z"/>
  <path id="Artboard_1_JO-GROUNDVO-J" data-name="Artboard 1 JO-GROUNDVO-J" class="cls-1" d="M479,189h12.9v12.9h-12.9v-12.9h0Z"/>
  <path id="Artboard_1_JO-GROUNDVO-I" data-name="Artboard 1 JO-GROUNDVO-I" class="cls-1" d="M503.9,189.2h12.9v12.9h-12.9v-12.9h0Z"/>
  <path id="Artboard_1_JO-GROUNDVO-H" data-name="Artboard 1 JO-GROUNDVO-H" class="cls-1" d="M570.7,178h12.9v12.9h-12.9v-12.9h0Z"/>
  <path id="Artboard_1_DT-V-G" data-name="Artboard 1 DT-V-G" class="cls-1" d="M568,157.3h11.1v11.1h-11.1v-11.1h0Z"/>
  <path id="Artboard_1_DT-V-F" data-name="Artboard 1 DT-V-F" class="cls-1" d="M568,144.4h11.1v11.1h-11.1v-11.1Z"/>
  <path id="Artboard_1_DT-V-E" data-name="Artboard 1 DT-V-E" class="cls-1" d="M568,131.6h11.1v11.1h-11.1v-11.1h0Z"/>
  <path id="Artboard_1_DT-V-D" data-name="Artboard 1 DT-V-D" class="cls-1" d="M568,118.7h11.1v11.1h-11.1v-11.1Z"/>
  <path id="Artboard_1_DT-V-C" data-name="Artboard 1 DT-V-C" class="cls-1" d="M568,105.8h11.1v11.1h-11.1v-11.1Z"/>
  <path id="Artboard_1_DT-V-B" data-name="Artboard 1 DT-V-B" class="cls-1" d="M568,93h11.1v11.1h-11.1v-11.1Z"/>
  <path id="Artboard_1_DT-V-A" data-name="Artboard 1 DT-V-A" class="cls-1" d="M568,80.1h11.1v11.1h-11.1v-11.1Z"/>
  <path id="Artboard_1_DT-006" data-name="Artboard 1 DT-006" class="cls-1" d="M592.8,153.2h13.2v13.2h-13l-.2-13.2Z"/>
  <path id="Artboard_1_DT-005" data-name="Artboard 1 DT-005" class="cls-1" d="M592.8,140h13.2v13.2h-13l-.2-13.2Z"/>
  <path id="Artboard_1_DT-004" data-name="Artboard 1 DT-004" class="cls-1" d="M592.8,126.8h13.2v13.2h-13l-.2-13.2Z"/>
  <path id="Artboard_1_DT-003" data-name="Artboard 1 DT-003" class="cls-1" d="M592.8,113.6h13.2v13.2h-13l-.2-13.2Z"/>
  <path id="Artboard_1_DT-002" data-name="Artboard 1 DT-002" class="cls-1" d="M592.8,100.4h13.2v13.2h-13l-.2-13.2Z"/>
  <path id="Artboard_1_DT-001" data-name="Artboard 1 DT-001" class="cls-1" d="M592.6,87.2h13.2v13.2h-13l-.2-13.2Z"/>
  <path id="Artboard_1_JO-GROUND-138" data-name="Artboard 1 JO-GROUND-138" class="cls-1" d="M514.3,34.8l-.2,25,12.5.7.2-9.1,20.6.2-.5-17.3-32.6.5Z"/>
  <path id="Artboard_1_JO-GROUND-137" data-name="Artboard 1 JO-GROUND-137" class="cls-1" d="M526.6,51.9l20.6-.5v17.3h-33.1v-8.4h12.7s-.2-8.4-.2-8.4Z"/>
  <path id="Artboard_1_JO-GROUND-136" data-name="Artboard 1 JO-GROUND-136" class="cls-1" d="M514.1,68.4l-.2,24.5,13,.5.2-8.6h20.2l.2-15.8-33.4-.5v-.1Z"/>
  <path id="Artboard_1_JO-GROUND-135" data-name="Artboard 1 JO-GROUND-135" class="cls-1" d="M547.2,84.5l.2,17-33.4-.2v-8.4h12.7v-7.7l20.4-.7h.1Z"/>
  <path id="Artboard_1_JO-GROUND-134" data-name="Artboard 1 JO-GROUND-134" class="cls-1" d="M547.4,117.6l-.2-16.1-32.9-.5-.2,25h13v-8.2l20.4-.2h-.1Z"/>
  <path id="Artboard_1_JO-GROUND-133" data-name="Artboard 1 JO-GROUND-133" class="cls-1" d="M547.2,117.6h-20.4v8.2h-12.7v8.4h32.9l.2-16.6h0Z"/>
  <path id="Artboard_1_JO-GROUND-131" data-name="Artboard 1 JO-GROUND-131" class="cls-1" d="M522.7,150.3l-.5,24.2,24.7.5.2-25.2-24.5.5h.1Z"/>
  <path id="Artboard_1_JO-GROUND-132" data-name="Artboard 1 JO-GROUND-132" class="cls-1" d="M547.2,150.3l-.2-15.8-32.6-.2-.2,15.8,33.1.2h-.1Z"/>
  <path id="Artboard_1_JO-GROUND-129" data-name="Artboard 1 JO-GROUND-129" class="cls-1" d="M522.5,174.8v-24.5l-16.3-.2v13l-8.9-.2.2,11.8,25,.2v-.1Z"/>
  <path id="Artboard_1_JO-GROUND-128" data-name="Artboard 1 JO-GROUND-128" class="cls-1" d="M497.3,162.8l8.9.2v-13h-25l-.2,24.2h16.3v-11.5h0v.1Z"/>
  <path id="Artboard_1_JO-GROUND-127" data-name="Artboard 1 JO-GROUND-127" class="cls-1" d="M481,174.5l.5-24.5h-16.8l-.2,12.2h-7.7v12.2h24.2v.1Z"/>
  <path id="Artboard_1_JO-GROUND-126" data-name="Artboard 1 JO-GROUND-126" class="cls-1" d="M464.4,150v12.2h-7.7v12.2h-17l.2-24.5h24.5v.1Z"/>
  <path id="Artboard_1_JO-GROUND-124" data-name="Artboard 1 JO-GROUND-124" class="cls-1" d="M391.2.8v24.5h-11.3v6.2h-8.4l-.2-13.4h-7.7V.8h27.6Z"/>
  <path id="Artboard_1_JO-GROUND-123" data-name="Artboard 1 JO-GROUND-123" class="cls-1" d="M379.9,25h11.5l-.2,22.8-27.4.2v-29.8l7.7-.2.2,13.4h8.2v-6.5.1Z"/>
  <path id="Artboard_1_JO-GROUND-122" data-name="Artboard 1 JO-GROUND-122" class="cls-1" d="M391.4,47.6h-27.8l.5,16.8,7.4.2.2,12.7,8.6.2.2-6.7,10.6-.2.2-23h.1Z"/>
  <path id="Artboard_1_JO-GROUND-121" data-name="Artboard 1 JO-GROUND-121" class="cls-1" d="M364.1,64.6h7.2v12.7h9.4v-6.7h10.8l-.5,22.3-27.1.2.2-28.6h0v.1Z"/>
  <path id="Artboard_1_JO-GROUND-120" data-name="Artboard 1 JO-GROUND-120" class="cls-1" d="M364.1,93.2l27.1-.2v22.8h-11v7.2h-8.9v-13.4l-7.2.2v-16.6h0Z"/>
  <path id="Artboard_1_JO-GROUND-119" data-name="Artboard 1 JO-GROUND-119" class="cls-1" d="M363.8,109.5l7.4.5.2,12.5h8.4l.2-6.5,11.3-.2-.2,23.5-27.6-.5.2-29.3h.1Z"/>
  <path id="Artboard_1_JO-GROUND-118" data-name="Artboard 1 JO-GROUND-118" class="cls-1" d="M363.8,138.8l27.4.2.2,16.3-27.6-.2v-16.3h0Z"/>
  <path id="Artboard_1_JO-GROUND-116" data-name="Artboard 1 JO-GROUND-116" class="cls-1" d="M363.6,163.5l.5,24.7h32.2l-.2-16.1-19.4-.5.2-8.2h-13.2l-.1.1Z"/>
  <path id="Artboard_1_JO-GROUND-115" data-name="Artboard 1 JO-GROUND-115" class="cls-1" d="M364.1,188.4l31.9-.2.5,17h-20.2l-.2-8.4-12.2.2.2-8.6h0Z"/>
  <path id="Artboard_1_JO-GROUND-114" data-name="Artboard 1 JO-GROUND-114" class="cls-1" d="M364.1,196.6v24.5l32.2-.5-.2-15.1-19.9-.2v-8.6h-12l-.1-.1Z"/>
  <path id="Artboard_1_JO-GROUND-113" data-name="Artboard 1 JO-GROUND-113" class="cls-1" d="M364.1,230l12.2.2v8.2h20.2v-17.5l-32.4.5v8.6h0Z"/>
  <path id="Artboard_1_JO-GROUND-112" data-name="Artboard 1 JO-GROUND-112" class="cls-1" d="M363.8,230v25.2l32.2-.2v-16.6l-19.7-.2-.2-8.2h-12.3Z"/>
  <path id="Artboard_1_JO-GROUND-108" data-name="Artboard 1 JO-GROUND-108" class="cls-1" d="M409.4,267.6l.2,32.2-45.8-.5v-31.7h45.6,0Z"/>
  <path id="Artboard_1_JO-GROUND-106" data-name="Artboard 1 JO-GROUND-106" class="cls-1" d="M425.8,267.6l17.3.5.2,31.7h-24.7v-12.2h7.9l-.7-19.9v-.1Z"/>
  <path id="Artboard_1_JO-GROUND-104" data-name="Artboard 1 JO-GROUND-104" class="cls-1" d="M459.6,267.2l.7,19.9h-8.4v12.5h25.2l.2-31.9-17.8-.5h.1Z"/>
  <path id="Artboard_1_JO-GROUND-107" data-name="Artboard 1 JO-GROUND-107" class="cls-1" d="M409.2,268.1l.2,31.4,9.1.2v-12.5h7.7l-.5-19.9-16.6.7h0l.1.1Z"/>
  <path id="Artboard_1_JO-GROUND-105" data-name="Artboard 1 JO-GROUND-105" class="cls-1" d="M443.5,267.4l16.1-.2.7,20.2-8.9.2.2,12.5-8.4-.5.2-32.2h.1Z"/>
  <path id="Artboard_1_JO-GROUND-103" data-name="Artboard 1 JO-GROUND-103" class="cls-1" d="M477.4,267.4l.2,32.4,7.9-.2.2-12.7,7.7.2-.2-19.7h-15.8Z"/>
  <path id="Artboard_1_JO-GROUND-117" data-name="Artboard 1 JO-GROUND-117" class="cls-1" d="M363.8,155.3l.2,7.9,12,.5v8.6l15.4-.7v-16.3h-27.6Z"/>
  <path id="Artboard_1_JO-GROUND-140" data-name="Artboard 1 JO-GROUND-140" class="cls-1" d="M514.1,1l33.1.5-.2,17.3-20.2-.2-.2,8.2-12.5-.2V1h0Z"/>
  <path id="Artboard_1_JO-GROUND-139" data-name="Artboard 1 JO-GROUND-139" class="cls-1" d="M514.3,26.2v8.4l32.9.2.2-16.6-20.4.2-.2,7.7h-12.5v.1Z"/>
  <path id="Artboard_1_SF-S11-1" data-name="Artboard 1 SF-S11-1" class="cls-1" d="M223.7,337.7l12.7.2v13h-12.7v-13.2h0Z"/>
  <path id="Artboard_1_SF-S1O-1" data-name="Artboard 1 SF-S1O-1" class="cls-1" d="M207.1,337.5l12.7.2v13h-12.7v-13.2h0Z"/>
  <path id="Artboard_1_SF-S09-1" data-name="Artboard 1 SF-S09-1" class="cls-1" d="M190.1,337.7l12.7.2v13h-12.7v-13.2h0Z"/>
  <path id="Artboard_1_SF-S08-1" data-name="Artboard 1 SF-S08-1" class="cls-1" d="M173.5,337.5l12.7.2v13h-12.7v-13.2h0Z"/>
  <path id="Artboard_1_SF-S07-1" data-name="Artboard 1 SF-S07-1" class="cls-1" d="M156.7,337.5l12.7.2v13h-12.7v-13.2h0Z"/>
  <path id="Artboard_1_SF-S06-1" data-name="Artboard 1 SF-S06-1" class="cls-1" d="M140.2,337.5l12.7.2v13h-12.7v-13.2h0Z"/>
  <path id="Artboard_1_SF-S05-1" data-name="Artboard 1 SF-S05-1" class="cls-1" d="M123.4,337.5l12.7.2v13h-12.7v-13.2h0Z"/>
  <path id="Artboard_1_SF-S04-1" data-name="Artboard 1 SF-S04-1" class="cls-1" d="M106.3,337.7l12.7.2v13h-12.7v-13.2h0Z"/>
  <path id="Artboard_1_SF-S03-1" data-name="Artboard 1 SF-S03-1" class="cls-1" d="M89.8,337.5l12.7.2v13h-12.7v-13.2h0Z"/>
  <path id="Artboard_1_SF-S02-1" data-name="Artboard 1 SF-S02-1" class="cls-1" d="M72.7,337.5l12.7.2v13h-12.7v-13.2h0Z"/>
  <path id="Artboard_1_SF-S01-1" data-name="Artboard 1 SF-S01-1" class="cls-1" d="M56.2,337.7l12.7.2v13h-12.7v-13.2h0Z"/>
  <path id="Artboard_1_SF-S11" data-name="Artboard 1 SF-S11" class="cls-1" d="M583.7,337.7l12.7.2v13h-12.7v-13.2h0Z"/>
  <path id="Artboard_1_SF-S1O" data-name="Artboard 1 SF-S1O" class="cls-1" d="M567.1,337.5l12.7.2v13h-12.7v-13.2h0Z"/>
  <path id="Artboard_1_SF-S09" data-name="Artboard 1 SF-S09" class="cls-1" d="M550.1,337.7l12.7.2v13h-12.7v-13.2h0Z"/>
  <path id="Artboard_1_SF-S08" data-name="Artboard 1 SF-S08" class="cls-1" d="M533.5,337.5l12.7.2v13h-12.7v-13.2h0Z"/>
  <path id="Artboard_1_SF-S07" data-name="Artboard 1 SF-S07" class="cls-1" d="M516.7,337.5l12.7.2v13h-12.7v-13.2h0Z"/>
  <path id="Artboard_1_SF-S06" data-name="Artboard 1 SF-S06" class="cls-1" d="M500.2,337.5l12.7.2v13h-12.7v-13.2h0Z"/>
  <path id="Artboard_1_SF-S05" data-name="Artboard 1 SF-S05" class="cls-1" d="M483.4,337.5l12.7.2v13h-12.7v-13.2h0Z"/>
  <path id="Artboard_1_SF-S04" data-name="Artboard 1 SF-S04" class="cls-1" d="M466.3,337.7l12.7.2v13h-12.7v-13.2h0Z"/>
  <path id="Artboard_1_SF-S03" data-name="Artboard 1 SF-S03" class="cls-1" d="M449.8,337.5l12.7.2v13h-12.7v-13.2h0Z"/>
  <path id="Artboard_1_SF-S02" data-name="Artboard 1 SF-S02" class="cls-1" d="M432.7,337.5l12.7.2v13h-12.7v-13.2h0Z"/>
  <path id="Artboard_1_SF-S01" data-name="Artboard 1 SF-S01" class="cls-1" d="M416.2,337.7l12.7.2v13h-12.7v-13.2h0Z"/>
  <path id="Artboard_1_JN-V-II" data-name="Artboard 1 JN-V-II" class="cls-1" d="M154.1,441.6h13v13h-13v-13Z"/>
  <path id="Artboard_1_JN-V-HH" data-name="Artboard 1 JN-V-HH" class="cls-1" d="M136.3,441.6h13v13h-13v-13Z"/>
  <path id="Artboard_1_JN-V-GG" data-name="Artboard 1 JN-V-GG" class="cls-1" d="M117.6,441.6h13v13h-13s0-13,0-13Z"/>
  <path id="Artboard_1_JN-V-FF" data-name="Artboard 1 JN-V-FF" class="cls-1" d="M154.1,424.8h13v13h-13v-13Z"/>
  <path id="Artboard_1_JN-V-EE" data-name="Artboard 1 JN-V-EE" class="cls-1" d="M136.3,424.8h13v13h-13v-13Z"/>
  <path id="Artboard_1_JN-V-DD" data-name="Artboard 1 JN-V-DD" class="cls-1" d="M117.6,424.8h13v13h-13s0-13,0-13Z"/>
  <path id="Artboard_1_JN-V-CC" data-name="Artboard 1 JN-V-CC" class="cls-1" d="M154.1,408h13v13h-13v-13Z"/>
  <path id="Artboard_1_JN-V-BB" data-name="Artboard 1 JN-V-BB" class="cls-1" d="M136.3,408h13v13h-13v-13Z"/>
  <path id="Artboard_1_JN-V-AA" data-name="Artboard 1 JN-V-AA" class="cls-1" d="M117.6,408h13v13h-13s0-13,0-13Z"/>
  <path id="Artboard_1_JN-L2-A13" data-name="Artboard 1 JN-L2-A13" class="cls-1" d="M169.6,548.1l26.4.5-.2,26.6-26-.2-.2-26.9h0Z"/>
  <path id="Artboard_1_JN-L2-A12" data-name="Artboard 1 JN-L2-A12" class="cls-1" d="M169.4,575.2l26.4.5-.2,26.6-26-.2-.2-26.9h0Z"/>
  <path id="Artboard_1_JN-L2-A11" data-name="Artboard 1 JN-L2-A11" class="cls-1" d="M143,575.2l26.4.5-.2,26.6-26-.2-.2-26.9h0Z"/>
  <path id="Artboard_1_JN-L2-A10" data-name="Artboard 1 JN-L2-A10" class="cls-1" d="M116.6,575l26.4.5-.2,26.6-26-.2-.2-26.9h0Z"/>
  <path id="Artboard_1_JN-L2-A9" data-name="Artboard 1 JN-L2-A9" class="cls-1" d="M140.8,650.6l26.4.5-.2,26.6-26-.2-.2-26.9h0Z"/>
  <path id="Artboard_1_JN-L2-A8" data-name="Artboard 1 JN-L2-A8" class="cls-1" d="M167,650.6l26.4.5-.2,26.6-26-.2-.2-26.9h0Z"/>
  <path id="Artboard_1_JN-L2-A7" data-name="Artboard 1 JN-L2-A7" class="cls-1" d="M193.4,650.6l26.4.5-.2,26.6-26-.2-.2-26.9h0Z"/>
  <path id="Artboard_1_JN-L2-A6" data-name="Artboard 1 JN-L2-A6" class="cls-1" d="M219.8,650.6l26.4.5-.2,26.6-26-.2-.2-26.9h0Z"/>
  <path id="Artboard_1_JN-L2-A5" data-name="Artboard 1 JN-L2-A5" class="cls-1" d="M244.5,602.1l26.4.5-.2,26.6-26-.2-.2-26.9h0Z"/>
  <path id="Artboard_1_JN-L2-A4" data-name="Artboard 1 JN-L2-A4" class="cls-1" d="M244.5,575l26.4.5-.2,26.6-26-.2-.2-26.9h0Z"/>
  <path id="Artboard_1_JN-L2-A3" data-name="Artboard 1 JN-L2-A3" class="cls-1" d="M244.5,547.8l26.4.5-.2,26.6-26-.2-.2-26.9h0Z"/>
  <path id="Artboard_1_JN-L2-A2" data-name="Artboard 1 JN-L2-A2" class="cls-1" d="M79,388.6l28.1.5-.2,28.3-27.6-.2-.2-28.6h-.1Z"/>
  <path id="Artboard_1_JN-L2-A1" data-name="Artboard 1 JN-L2-A1" class="cls-1" d="M79,417.4l28.1.5-.2,28.3-27.6-.2-.2-28.6h-.1Z"/>
</svg>