<?xml version="1.0" encoding="UTF-8"?>
<svg id="Layer_1" data-name="Layer 1" xmlns="http://www.w3.org/2000/svg" viewBox="0 0 1440 1553.76">
  <defs>
    <style>
      .cls-1 { fill: #f5fbfe; }
      .clickable { 
        cursor: pointer; 
        touch-action: manipulation; 
        -webkit-tap-highlight-color: transparent;
        transition: filter .15s ease;
      }
      .clickable:focus, .clickable:hover, .clickable:active {
        outline: 2px solid #000;
        outline-offset: 2px;
        filter: brightness(1.12); /* slight lightening = white overlay look */
      }
      .label {
        font-family: -apple-system, BlinkMacSystemFont, "Segoe UI", Roboto, Helvetica, Arial, sans-serif;
        font-size: 10px;
        font-weight: 700;
        fill: #111111;
        text-anchor: middle;
        dominant-baseline: central;
        pointer-events: none;
      }
    </style>
  </defs>
    <path id="JO-GROUNDVO-N1" class="cls-1" d="M145.82,199.05l20.82-12.3,22.28,36.84-20.82,12.3s-22.28-36.84-22.28-36.84Z"/>
  <path id="JO-GROUNDVO-M1" class="cls-1" d="M146.32,251.65l20.86-12.26,22.2,36.88-20.86,12.26s-22.2-36.88-22.2-36.88Z"/>
  <path id="JO-GROUNDVO-L1" class="cls-1" d="M144.3,303.05l20.64-12.62,22.86,36.48-20.64,12.62-22.86-36.48Z"/>
  <path id="JO-GROUNDVO-K1" class="cls-1" d="M144.96,354.27l22.36-12.38,22.46,39.56-22.36,12.38-22.46-39.56Z"/>
  <path id="JO-GROUNDVO-J1" class="cls-1" d="M308.22,468.65l25.56-.32.32,25.56-25.56.32-.32-25.56h0Z"/>
  <path id="JO-GROUNDVO-I1" class="cls-1" d="M357.56,468.51l25.56-.32.32,25.56-25.56.32-.32-25.56Z"/>
  <path id="JO-GROUNDVO-H1" class="cls-1" d="M490.12,441.71l25.56-.32.32,25.56-25.56.32-.32-25.56Z"/>
  <path id="JO-L2-254" class="cls-1" d="M575.56,426.37l.48,35.04,64.8.48v-51.84h-27.84l.48,14.88-37.92,1.44h0Z"/>
  <path id="JO-L2-253" class="cls-1" d="M576.04,425.89l36.48-.48.48-15.84,26.88.96.96-17.76h-64.8v33.12h0Z"/>
  <path id="JO-L2-252" class="cls-1" d="M576.52,360.61h62.88l.48,32.64-64.32-.48.96-32.16h0Z"/>
  <path id="JO-L2-251" class="cls-1" d="M576.04,359.17l-1.44-34.56,37.92.96v15.36l27.36.96.48,17.76-64.32-.48h0Z"/>
  <path id="JO-L2-250" class="cls-1" d="M576.52,294.37l62.88.48.96,48-27.36-.48-.48-15.84-37.92-.48,1.92-31.68h0Z"/>
  <path id="JO-L2-249" class="cls-1" d="M576.52,293.41l-1.44-34.56,37.92.96v15.36l27.36.96.48,17.76-64.32-.48h0Z"/>
  <path id="JO-L2-248" class="cls-1" d="M576.52,229.09l62.88.48.96,48-27.36-.48-.48-15.84-37.92-.48,1.92-31.68h0Z"/>
  <path id="JO-L2-247" class="cls-1" d="M576.04,229.09l-1.44-34.56,37.92.96v15.36l27.36.96.48,17.76-64.32-.48h0Z"/>
  <path id="JO-L2-246" class="cls-1" d="M576.52,162.85l62.88.48.96,48-27.36-.48-.48-15.84-37.92-.48,1.92-31.68h0Z"/>
  <path id="JO-L2-245" class="cls-1" d="M639.88,162.85l-63.36-.96-.48-32.64,36.48-.96.48-15.36h25.92l.96,49.92Z"/>
  <path id="JO-L2-244" class="cls-1" d="M639.88,94.21v18.72l-26.88-.48-.48,15.36h-62.88l.48-33.12s89.76-.48,89.76-.48Z"/>
  <path id="JO-L2-243" class="cls-1" d="M549.64,95.17l.48,32.64,10.56.48-.96,14.4-43.2.48-.48-23.52-14.4-.48.48-25.44s47.52,1.44,47.52,1.44Z"/>
  <path id="JO-L2-242" class="cls-1" d="M501.64,95.17v24.48l14.4.96-.48,23.04-62.88-.96v-11.52l14.4-1.44-.48-35.04"/>
  <path id="JO-L2-240" class="cls-1" d="M377.8,95.17l65.28-.96-.48,37.44-39.84-1.92-.48,16.32-25.44-.48.96-50.4h0Z"/>
  <path id="JO-L2-239" class="cls-1" d="M377.8,163.33l-.48-16.8h24.96l.48-15.84h39.84l.96,32.64h-65.76,0Z"/>
  <path id="JO-L2-237" class="cls-1" d="M377.8,231.01l-.48-16.8h24.96l.48-15.84h39.84l.96,32.64h-65.76,0Z"/>
  <path id="JO-L2-238" class="cls-1" d="M377.8,162.37l65.28-.96-.48,37.44-39.84-1.92-.48,16.32-25.44-.48.96-50.4h0Z"/>
  <path id="JO-L2-236" class="cls-1" d="M377.8,231.49h64.8l.48,30.24-40.8,2.4v16.32l-24.96-.48.48-48.48h0Z"/>
  <path id="JO-L2-235" class="cls-1" d="M377.8,293.89l-.48-16.8h24.96l.48-15.84h39.84l.96,32.64h-65.76,0Z"/>
  <path id="JO-L2-234" class="cls-1" d="M377.8,295.81h64.8l.48,30.24-40.8,2.4v16.32l-24.96-.48.48-48.48h0Z"/>
  <path id="JO-L2-233" class="cls-1" d="M377.8,358.69l-.48-16.8h24.96l.48-15.84h39.84l.96,32.64h-65.76,0Z"/>
  <path id="JO-L2-232" class="cls-1" d="M376.84,361.09l66.72.48v32.64l-66.24-1.44-.48-31.68h0Z"/>
  <path id="JO-L2-231" class="cls-1" d="M393.64,393.73h49.92l-.48,48h-49.44v-48Z"/>
  <path id="JO-L2-229" class="cls-1" d="M393.64,394.69l.48,47.52h-49.44l.96-24.96,14.88,1.44v-24.48l33.12.48Z"/>
  <path id="JO-L2-228" class="cls-1" d="M311.56,393.25l49.92.48v22.08l-16.32,2.4.48,24.48-34.08-.96v-48.48Z"/>
  <path id="JO-L2-227" class="cls-1" d="M311.08,393.73l.48,47.52h-49.44l.96-24.96,14.88,1.44v-24.48l33.12.48Z"/>
  <path id="JO-L2-226" class="cls-1" d="M229.96,393.73l49.92.48v22.08l-16.32,2.4.48,24.48-34.08-.96v-48.48Z"/>
  <path id="JO-L2-224" class="cls-1" d="M77.32,96.13v32.64l14.4.48.48,25.44,18.24.48.48-26.4,22.08.48-1.44-34.08-54.24.96Z"/>
  <path id="JO-L2-223" class="cls-1" d="M77.8,130.21l13.92.48v25.92h40.32l-.96,31.2-53.76,1.44s.48-59.04.48-59.04Z"/>
  <path id="JO-L2-222" class="cls-1" d="M76.84,188.77v32.64l14.4.48.48,25.44,18.24.48.48-26.4,22.08.48-1.44-34.08s-54.24.96-54.24.96Z"/>
  <path id="JO-L2-221" class="cls-1" d="M78.28,220.93l13.92.48v25.92h40.32l-.96,31.2-53.76,1.44s.48-59.04.48-59.04Z"/>
  <path id="JO-L2-220" class="cls-1" d="M76.84,279.01v32.64l14.4.48.48,25.44,18.24.48.48-26.4,22.08.48-1.44-34.08s-54.24.96-54.24.96Z"/>
  <path id="JO-L2-219" class="cls-1" d="M77.8,311.65l13.92.48v25.92h40.32l-.96,31.2-53.76,1.44.48-59.04h0Z"/>
  <path id="JO-L2-218" class="cls-1" d="M76.36,370.21l55.2-1.44.96,33.6-55.68.48-.48-32.64h0Z"/>
  <path id="JO-L2-217" class="cls-1" d="M76.36,403.33l.48,15.84,25.44.96-.48,15.36h29.76l.48-32.16h-55.68Z"/>
  <path id="JO-L2-216" class="cls-1" d="M76.36,421.09l.96,48.96,63.84,1.44.48-34.56-39.84.48-.48-15.84-24.96-.48Z"/>
  <path id="JO-L2-215" class="cls-1" d="M77.32,470.05l-.48,16.8,24,.96.48,15.36,40.8.48-.96-32.16-63.84-1.44h0Z"/>
  <path id="JO-L2-214" class="cls-1" d="M76.36,486.85l.96,48.96,63.84,1.44.48-34.56-39.84.48-.48-15.84-24.96-.48Z"/>
  <path id="JO-L2-213" class="cls-1" d="M77.32,535.33l-.48,16.8,24,.96.48,15.36,40.8.48-.96-32.16-63.84-1.44h0Z"/>
  <path id="JO-L2-212" class="cls-1" d="M76.36,552.61l.96,48.96,63.84,1.44.48-34.56-39.84.48-.48-15.84-24.96-.48h0Z"/>
  <path id="JO-L2-210" class="cls-1" d="M76.36,628.45l40.8-.96,1.44,63.84-41.76.48-.48-63.36Z"/>
  <path id="JO-L2-208" class="cls-1" d="M119.08,627.97l.48,62.4,48.96.96.48-64.32-49.92.96h0Z"/>
  <path id="JO-L2-207" class="cls-1" d="M168.52,627.49v62.88l16.8.48.48-23.52h15.84v-39.36l-33.12-.48h0Z"/>
  <path id="JO-L2-206" class="cls-1" d="M202.12,627.97v39.36l-15.36.48-.96,24.48,49.44.96-1.44-63.84-31.68-1.44h0Z"/>
  <path id="JO-L2-205" class="cls-1" d="M237.64,626.05v62.88l16.8.48.48-23.52h15.84v-39.36l-33.12-.48Z"/>
  <path id="JO-L2-204" class="cls-1" d="M270.28,626.05v39.36l-15.36.48-.96,24.48,49.44.96-1.44-63.84-31.68-1.44h0Z"/>
  <path id="JO-L2-203" class="cls-1" d="M303.4,626.05v62.88l16.8.48.48-23.52h15.84v-39.36l-33.12-.48h0Z"/>
  <path id="JO-L2-202" class="cls-1" d="M335.56,626.53v39.36l-15.36.48-.96,24.48,49.44.96-1.44-63.84-31.68-1.44h0Z"/>
  <path id="JO-GROUNDVO-N" class="cls-1" d="M873.34,199.01l21.38-11.92,21.62,37.82-21.38,11.92s-21.62-37.82-21.62-37.82Z"/>
  <path id="JO-GROUNDVO-M" class="cls-1" d="M872.86,251.33l21.38-11.92,21.62,37.82-21.38,11.92-21.62-37.82Z"/>
  <path id="JO-GROUNDVO-L" class="cls-1" d="M872.16,304.87l20.68-13.1,23.7,36.54-20.68,13.1-23.7-36.54h0Z"/>
  <path id="JO-GROUNDVO-K" class="cls-1" d="M872.58,357.89l22.2-13.26,24.02,39.26-22.2,13.26-24.02-39.26Z"/>
  <path id="JO-GROUNDVO-J" class="cls-1" d="M1034.32,471.67h25.86v25.86h-25.86v-25.86h0Z"/>
  <path id="JO-GROUNDVO-I" class="cls-1" d="M1084.24,472.15h25.86v25.86h-25.86v-25.86h0Z"/>
  <path id="JO-GROUNDVO-H" class="cls-1" d="M1217.68,449.59h25.86v25.86h-25.86v-25.86h0Z"/>
  <path id="DT-V-G" class="cls-1" d="M1212.34,408.23h22.14v22.14h-22.14v-22.14h0Z"/>
  <path id="DT-V-F" class="cls-1" d="M1212.34,382.51h22.14v22.14h-22.14v-22.14h0Z"/>
  <path id="DT-V-E" class="cls-1" d="M1212.34,356.79h22.14v22.14h-22.14v-22.14h0Z"/>
  <path id="DT-V-D" class="cls-1" d="M1212.34,331.07h22.14v22.14h-22.14v-22.14h0Z"/>
  <path id="DT-V-C" class="cls-1" d="M1212.34,305.33h22.14v22.14h-22.14v-22.14Z"/>
  <path id="DT-V-B" class="cls-1" d="M1212.34,279.61h22.14v22.14h-22.14v-22.14Z"/>
  <path id="DT-V-A" class="cls-1" d="M1212.34,253.89h22.14v22.14h-22.14v-22.14Z"/>
  <path id="DT-006" class="cls-1" d="M1261.96,399.97h26.4v26.4h-25.92l-.48-26.4Z"/>
  <path id="DT-005" class="cls-1" d="M1261.96,373.57h26.4v26.4h-25.92l-.48-26.4Z"/>
  <path id="DT-004" class="cls-1" d="M1261.96,347.17h26.4v26.4h-25.92l-.48-26.4Z"/>
  <path id="DT-003" class="cls-1" d="M1261.96,320.77h26.4v26.4h-25.92l-.48-26.4Z"/>
  <path id="DT-002" class="cls-1" d="M1261.96,294.37h26.4v26.4h-25.92l-.48-26.4Z"/>
  <path id="DT-001" class="cls-1" d="M1261.48,267.97h26.4v26.4h-25.92l-.48-26.4Z"/>
  <path id="JO-GROUND-138" class="cls-1" d="M1105,163.33l-.48,49.92,24.96,1.44.48-18.24,41.28.48-.96-34.56-65.28.96Z"/>
  <path id="JO-GROUND-137" class="cls-1" d="M1129.48,197.41l41.28-.96v34.56h-66.24v-16.8h25.44s-.48-16.8-.48-16.8Z"/>
  <path id="JO-GROUND-136" class="cls-1" d="M1104.52,230.53l-.48,48.96,25.92.96.48-17.28h40.32l.48-31.68-66.72-.96Z"/>
  <path id="JO-GROUND-135" class="cls-1" d="M1170.76,262.69l.48,34.08-66.72-.48v-16.8h25.44v-15.36l40.8-1.44Z"/>
  <path id="JO-GROUND-134" class="cls-1" d="M1171.24,328.93l-.48-32.16-65.76-.96-.48,49.92h25.92v-16.32l40.8-.48h0Z"/>
  <path id="JO-GROUND-133" class="cls-1" d="M1170.76,328.93h-40.8v16.32h-25.44v16.8h65.76l.48-33.12h0Z"/>
  <path id="JO-GROUND-131" class="cls-1" d="M1121.8,394.21l-.96,48.48,49.44.96.48-50.4-48.96.96Z"/>
  <path id="JO-GROUND-132" class="cls-1" d="M1170.76,394.21l-.48-31.68-65.28-.48-.48,31.68,66.24.48Z"/>
  <path id="JO-GROUND-129" class="cls-1" d="M1121.32,443.17v-48.96l-32.64-.48v25.92l-17.76-.48.48,23.52,49.92.48Z"/>
  <path id="JO-GROUND-128" class="cls-1" d="M1070.92,419.17l17.76.48v-25.92h-49.92l-.48,48.48h32.64v-23.04h0Z"/>
  <path id="JO-GROUND-127" class="cls-1" d="M1038.28,442.69l.96-48.96h-33.6l-.48,24.48h-15.36v24.48h48.48,0Z"/>
  <path id="JO-GROUND-126" class="cls-1" d="M1005.16,393.73v24.48h-15.36v24.48h-34.08l.48-48.96h48.96Z"/>
  <path id="JO-GROUND-124" class="cls-1" d="M858.76,95.17v48.96h-22.56v12.48h-16.8l-.48-26.88h-15.36v-34.56h55.2,0Z"/>
  <path id="JO-GROUND-123" class="cls-1" d="M836.2,143.65h23.04l-.48,45.6-54.72.48v-59.52l15.36-.48.48,26.88h16.32v-12.96Z"/>
  <path id="JO-GROUND-122" class="cls-1" d="M859.24,188.77h-55.68l.96,33.6,14.88.48.48,25.44,17.28.48.48-13.44,21.12-.48s.48-46.08.48-46.08Z"/>
  <path id="JO-GROUND-121" class="cls-1" d="M804.52,222.85h14.4v25.44h18.72v-13.44h21.6l-.96,44.64-54.24.48.48-57.12h0Z"/>
  <path id="JO-GROUND-120" class="cls-1" d="M804.52,279.97l54.24-.48v45.6h-22.08v14.4h-17.76v-26.88l-14.4.48v-33.12h0Z"/>
  <path id="JO-GROUND-119" class="cls-1" d="M804.04,312.61l14.88.96.48,24.96h16.8l.48-12.96,22.56-.48-.48,47.04-55.2-.96.48-58.56h0Z"/>
  <path id="JO-GROUND-118" class="cls-1" d="M804.04,371.17l54.72.48.48,32.64-55.2-.48v-32.64h0Z"/>
  <path id="JO-GROUND-116" class="cls-1" d="M803.56,420.61l.96,49.44h64.32l-.48-32.16-38.88-.96.48-16.32h-26.4Z"/>
  <path id="JO-GROUND-115" class="cls-1" d="M804.52,470.53l63.84-.48.96,34.08h-40.32l-.48-16.8-24.48.48.48-17.28h0Z"/>
  <path id="JO-GROUND-114" class="cls-1" d="M804.52,486.85v48.96l64.32-.96-.48-30.24-39.84-.48v-17.28h-24Z"/>
  <path id="JO-GROUND-113" class="cls-1" d="M804.52,553.57l24.48.48v16.32h40.32v-35.04l-64.8.96v17.28Z"/>
  <path id="JO-GROUND-112" class="cls-1" d="M804.04,553.57v50.4l64.32-.48v-33.12l-39.36-.48-.48-16.32h-24.48Z"/>
  <path id="JO-GROUND-108" class="cls-1" d="M895.24,628.93l.48,64.32-91.68-.96v-63.36h91.2Z"/>
  <path id="JO-GROUND-106" class="cls-1" d="M927.88,628.93l34.56.96.48,63.36h-49.44v-24.48h15.84l-1.44-39.84Z"/>
  <path id="JO-GROUND-104" class="cls-1" d="M995.56,627.97l1.44,39.84h-16.8v24.96h50.4l.48-63.84-35.52-.96Z"/>
  <path id="JO-GROUND-107" class="cls-1" d="M894.76,629.89l.48,62.88,18.24.48v-24.96h15.36l-.96-39.84-33.12,1.44h0Z"/>
  <path id="JO-GROUND-105" class="cls-1" d="M963.4,628.45l32.16-.48,1.44,40.32-17.76.48.48,24.96-16.8-.96.48-64.32h0Z"/>
  <path id="JO-GROUND-103" class="cls-1" d="M1031.08,628.45l.48,64.8,15.84-.48.48-25.44,15.36.48-.48-39.36h-31.68Z"/>
  <path id="JO-GROUND-117" class="cls-1" d="M804.04,404.29l.48,15.84,24,.96v17.28l30.72-1.44v-32.64h-55.2,0Z"/>
  <path id="JO-GROUND-140" class="cls-1" d="M1104.52,95.65l66.24.96-.48,34.56-40.32-.48-.48,16.32-24.96-.48v-50.88h0Z"/>
  <path id="JO-GROUND-139" class="cls-1" d="M1105,146.05v16.8l65.76.48.48-33.12-40.8.48-.48,15.36h-24.96Z"/>
  <path id="SF-S11-1" class="cls-1" d="M523.72,769.09l25.44.48v25.92h-25.44v-26.4h0Z"/>
  <path id="SF-S10-1" class="cls-1" d="M490.6,768.61l25.44.48v25.92h-25.44v-26.4h0Z"/>
  <path id="SF-S09-1" class="cls-1" d="M456.52,769.09l25.44.48v25.92h-25.44v-26.4h0Z"/>
  <path id="SF-S08-1" class="cls-1" d="M423.4,768.61l25.44.48v25.92h-25.44v-26.4h0Z"/>
  <path id="SF-S07-1" class="cls-1" d="M389.8,768.61l25.44.48v25.92h-25.44v-26.4h0Z"/>
  <path id="SF-S06-1" class="cls-1" d="M356.68,768.61l25.44.48v25.92h-25.44v-26.4h0Z"/>
  <path id="SF-S05-1" class="cls-1" d="M323.08,768.61l25.44.48v25.92h-25.44v-26.4h0Z"/>
  <path id="SF-S04-1" class="cls-1" d="M289,769.09l25.44.48v25.92h-25.44v-26.4h0Z"/>
  <path id="SF-S03-1" class="cls-1" d="M255.88,768.61l25.44.48v25.92h-25.44v-26.4h0Z"/>
  <path id="SF-S02-1" class="cls-1" d="M221.8,768.61l25.44.48v25.92h-25.44v-26.4h0Z"/>
  <path id="SF-S01-1" class="cls-1" d="M188.68,769.09l25.44.48v25.92h-25.44v-26.4h0Z"/>
  <path id="SF-S11" class="cls-1" d="M1243.72,769.09l25.44.48v25.92h-25.44v-26.4h0Z"/>
  <path id="SF-S10" class="cls-1" d="M1210.6,768.61l25.44.48v25.92h-25.44v-26.4h0Z"/>
  <path id="SF-S09" class="cls-1" d="M1176.52,769.09l25.44.48v25.92h-25.44v-26.4h0Z"/>
  <path id="SF-S08" class="cls-1" d="M1143.4,768.61l25.44.48v25.92h-25.44v-26.4h0Z"/>
  <path id="SF-S07" class="cls-1" d="M1109.8,768.61l25.44.48v25.92h-25.44v-26.4h0Z"/>
  <path id="SF-S06" class="cls-1" d="M1076.68,768.61l25.44.48v25.92h-25.44v-26.4h0Z"/>
  <path id="SF-S05" class="cls-1" d="M1043.08,768.61l25.44.48v25.92h-25.44v-26.4h0Z"/>
  <path id="SF-S04" class="cls-1" d="M1009,769.09l25.44.48v25.92h-25.44v-26.4h0Z"/>
  <path id="SF-S03" class="cls-1" d="M975.88,768.61l25.44.48v25.92h-25.44v-26.4h0Z"/>
  <path id="SF-S02" class="cls-1" d="M941.8,768.61l25.44.48v25.92h-25.44v-26.4h0Z"/>
  <path id="SF-S01" class="cls-1" d="M908.68,769.09l25.44.48v25.92h-25.44v-26.4h0Z"/>
  <path id="JN-V-II" class="cls-1" d="M384.52,976.93h25.92v25.92h-25.92v-25.92Z"/>
  <path id="JN-V-HH" class="cls-1" d="M349,976.93h25.92v25.92h-25.92v-25.92Z"/>
  <path id="JN-V-GG" class="cls-1" d="M311.56,976.93h25.92v25.92h-25.92v-25.92Z"/>
  <path id="JN-V-FF" class="cls-1" d="M384.52,943.33h25.92v25.92h-25.92v-25.92Z"/>
  <path id="JN-V-EE" class="cls-1" d="M349,943.33h25.92v25.92h-25.92v-25.92Z"/>
  <path id="JN-V-DD" class="cls-1" d="M311.56,943.33h25.92v25.92h-25.92v-25.92Z"/>
  <path id="JN-V-CC" class="cls-1" d="M384.52,909.73h25.92v25.92h-25.92v-25.92Z"/>
  <path id="JN-V-BB" class="cls-1" d="M349,909.73h25.92v25.92h-25.92v-25.92Z"/>
  <path id="JN-V-AA" class="cls-1" d="M311.56,909.73h25.92v25.92h-25.92v-25.92Z"/>
  <path id="JN-L2-A13" class="cls-1" d="M415.64,1189.79l52.82.9-.46,53.28-51.92-.46-.46-53.72h.02Z"/>
  <path id="JN-L2-A12" class="cls-1" d="M415.16,1244.03l52.82.9-.46,53.28-51.92-.46-.46-53.72h.02Z"/>
  <path id="JN-L2-A11" class="cls-1" d="M362.36,1244.03l52.82.9-.46,53.28-51.92-.46-.46-53.72h.02Z"/>
  <path id="JN-L2-A10" class="cls-1" d="M309.56,1243.55l52.82.9-.46,53.28-51.92-.46-.46-53.72h.02Z"/>
  <path id="JN-L2-A9" class="cls-1" d="M358.04,1394.75l52.82.9-.46,53.28-51.92-.46-.46-53.72h.02Z"/>
  <path id="JN-L2-A8" class="cls-1" d="M410.36,1394.75l52.82.9-.46,53.28-51.92-.46-.46-53.72h.02Z"/>
  <path id="JN-L2-A7" class="cls-1" d="M463.16,1394.75l52.82.9-.46,53.28-51.92-.46-.46-53.72h.02Z"/>
  <path id="JN-L2-A6" class="cls-1" d="M515.96,1394.75l52.82.9-.46,53.28-51.92-.46-.46-53.72h.02Z"/>
  <path id="JN-L2-A5" class="cls-1" d="M565.4,1297.79l52.82.9-.46,53.28-51.92-.46-.46-53.72h.02Z"/>
  <path id="JN-L2-A4" class="cls-1" d="M565.4,1243.55l52.82.9-.46,53.28-51.92-.46-.46-53.72h.02Z"/>
  <path id="JN-L2-A3" class="cls-1" d="M565.4,1189.31l52.82.9-.46,53.28-51.92-.46-.46-53.72h.02Z"/>
  <path id="JN-L2-A2" class="cls-1" d="M234.28,870.85l56.16.96-.48,56.64-55.2-.48-.48-57.12h0Z"/>
  <path id="JN-L2-A1" class="cls-1" d="M234.28,928.45l56.16.96-.48,56.64-55.2-.48-.48-57.12h0Z"/>


  <script><![CDATA[
(function(){
  // --- ID prefixes that belong to interactive shapes ---
  var PREFIXES = ['JO-GROUND-','JO-GROUNDVO-','JO-GROUNDO-','DT-','DT-V-','SF-S','JN-L2-','JN-V-'];

  function matchesPrefix(id){
    for (var i=0; i<PREFIXES.length; i++){
      if (id.indexOf(PREFIXES[i]) === 0) return true;
    }
    return false;
  }

  function slugify(id){
    return 'booth-' + (id || '').toLowerCase().replace(/[^a-z0-9-]+/g, '-').replace(/-+/g,'-').replace(/^-|-$/g,'');
  }

  // --- Color map (category x status) using Anna's hex palette ---
  var COLOR_MAP = {
    dark_blue:   { available: '#0099ff', partial: '#66ccff', full: '#99ccff' },
    green:       { available: '#669933', partial: '#99cc66', full: '#ccff99' },
    lavender:    { available: '#6666cc', partial: '#9999ff', full: '#ccccff' },
    light_blue:  { available: '#66cccc', partial: '#99ffff', full: '#ccffff' },
    orange:      { available: '#ff6600', partial: '#ff9933', full: '#ffcc99' },
    pink:        { available: '#ff3399', partial: '#ff99cc', full: '#ffcccc' },
    red:         { available: '#cc0000', partial: '#ff6666', full: '#ff9999' },
    inactive:    { available: '#999999', partial: '#999999', full: '#999999' }
  };

  function colorFor(category, status){
    var cat = (category || '').toLowerCase().replace(/\s+/g,'_');
    var st = (status || 'available').toLowerCase();
    if (!COLOR_MAP[cat]) cat = 'inactive';
    if (!COLOR_MAP[cat][st]) st = 'available';
    return COLOR_MAP[cat][st];
  }

  function hydratePalette(cfg){
    if (!cfg || !cfg.palette) return;
    try {
      var palette = cfg.palette;
      Object.keys(palette).forEach(function(statusKey){
        var status = (statusKey || '').toLowerCase();
        var byCategory = palette[statusKey] || {};
        Object.keys(byCategory).forEach(function(catKey){
          var cat = (catKey || '').toLowerCase().replace(/\s+/g,'_');
          if (!COLOR_MAP[cat]) COLOR_MAP[cat] = {};
          COLOR_MAP[cat][status] = byCategory[catKey];
        });
      });
    } catch(e){}
  }

  function getBoothMap(cfg){
    if (!cfg) return null;
    if (cfg.booths && typeof cfg.booths === 'object') return cfg.booths;
    if (cfg.data && cfg.data.booths && typeof cfg.data.booths === 'object') return cfg.data.booths;
    return cfg;
  }

  // --- Config loader: tries parent-provided object first, then URL fetch ---
  // Squarespace Code Block will set either:
  //   window.VOID_MAP_CONFIG = {...}
  //   window.MAP_CONFIG_URL = '/s/void_map_configv2.json'
  function loadConfig(done){
    try {
      if (window.VOID_MAP_CONFIG && typeof window.VOID_MAP_CONFIG === 'object') {
        return done(null, window.VOID_MAP_CONFIG);
      }
    } catch(e){}
    try {
      if (window.parent && window.parent.VOID_MAP_CONFIG) {
        return done(null, window.parent.VOID_MAP_CONFIG);
      }
    } catch(e){}
    var url = null;
    try { url = window.MAP_CONFIG_URL || (window.parent ? window.parent.MAP_CONFIG_URL : null); } catch(e){}
    if (!url) return done(new Error('No config present'));
    try {
      fetch(url, {cache: 'no-cache'})
        .then(function(r){ return r.json(); })
        .then(function(json){ done(null, json); })
        .catch(function(err){ done(err); });
    } catch(err){
      done(err);
    }
  }

  // --- Apply config to shapes (color, link, label, a11y) ---
  function clearOldLabels(){
    var old = document.getElementById('labels-layer');
    if (old && old.parentNode) old.parentNode.removeChild(old);
  }

  function addLabel(el, text){
    if (!text) return;
    var bbox;
    try { bbox = el.getBBox(); } catch(e){ return; }
    if (!bbox) return;

    // Auto font-size based on smallest dimension; clamp to [6,18] px
    var smallest = Math.min(bbox.width, bbox.height);
    var size = Math.max(8, Math.min(22, Math.round(smallest * 0.6)));

    var g = document.getElementById('labels-layer');
    if (!g){
      g = document.createElementNS('http://www.w3.org/2000/svg','g');
      g.setAttribute('id','labels-layer');
      document.documentElement.appendChild(g);
    }
    var tx = document.createElementNS('http://www.w3.org/2000/svg','text');
    tx.setAttribute('class','label');
    tx.setAttribute('x', (bbox.x + bbox.width/2).toFixed(2));
    tx.setAttribute('y', (bbox.y + bbox.height/2).toFixed(2));
    tx.setAttribute('font-size', String(size));
    tx.textContent = String(text);
    g.appendChild(tx);
  }

  function makeClickable(el, href){
    // enable keyboard and click only if we really have a link
    el.classList.add('clickable');
    el.setAttribute('tabindex','0');
    el.setAttribute('role','button');
    el.setAttribute('data-href', href);
    el.setAttribute('aria-label', el.getAttribute('aria-label') || el.id);

    el.addEventListener('click', function(ev){
      var t = ev.currentTarget;
      var detail = { id: t.id, slug: t.getAttribute('data-slug') };
      try { t.dispatchEvent(new CustomEvent('boothclick', { bubbles: true, detail: detail })); } catch(e){}
      try { if (window && window.parent) { window.parent.postMessage({ type: 'boothclick', detail: detail }, '*'); } } catch(e){}
      if (href) { try { window.open(href, '_blank', 'noopener'); } catch(e){} }
    });

    el.addEventListener('keydown', function(ev){
      if (ev.key === 'Enter' || ev.key === ' ') {
        ev.preventDefault();
        ev.currentTarget.click();
      }
    });
  }

  function makeInactive(el){
    el.classList.remove('clickable');
    el.removeAttribute('tabindex');
    el.removeAttribute('role');
    el.removeAttribute('data-href');
    el.setAttribute('aria-label', el.id);
  }

  function applyConfig(cfg){
    if (!cfg) return;
    hydratePalette(cfg);
    var boothMap = getBoothMap(cfg);
    if (!boothMap) return;
    clearOldLabels();

    var nodes = document.querySelectorAll('[id]');
    for (var i=0; i<nodes.length; i++){
      var el = nodes[i];
      var id = el.id || '';
      if (!matchesPrefix(id)) continue;

      // slugging for possible external mapping
      var slug = slugify(id);
      el.setAttribute('data-slug', slug);

      var c = boothMap[id] || boothMap[slug]; // allow either exact id or slug keys
      if (!c) continue;

      // paint
      var fill = colorFor(c.category, c.status);
      el.style.fill = fill;

      // label
      // a11y: prefer human label for screenreaders
      if (c.label) { try { el.setAttribute('aria-label', String(c.label)); } catch(e){} }
      addLabel(el, c.label);

      // clickability
      var link = (c.book_link === '-' || c.status === 'inactive') ? null : c.book_link;
      if (link) { makeClickable(el, link); } else { makeInactive(el); }
    }
  }

  // --- Initialize: prime base a11y/tap affordances then paint via config ---
  (function baseWireUp(){
    var nodes = document.querySelectorAll('[id]');
    for (var i=0; i<nodes.length; i++){
      var el = nodes[i];
      var id = el.id || '';
      if (!matchesPrefix(id)) continue;
      var slug = slugify(id);
      el.setAttribute('data-slug', slug);
    }
  })();

  // Listen for parent -> SVG postMessage with config
  try {
    window.addEventListener('message', function(ev){
      var d = ev && ev.data;
      if (!d || typeof d !== 'object') return;
      if (d.type === 'VOID_MAP_CONFIG' && d.payload) {
        try { applyConfig(d.payload); } catch(e){}
      }
    }, false);
  } catch(e){}

  loadConfig(function(err, cfg){
    if (err) {
      // As a safe fallback, mark everything inactive gray so the map is still readable.
      var nodes = document.querySelectorAll('[id]');
      for (var i=0; i<nodes.length; i++){
        var el = nodes[i];
        if (!matchesPrefix(el.id || '')) continue;
        el.style.fill = COLOR_MAP.inactive.available;
        makeInactive(el);
      }
      return;
    }
    applyConfig(cfg);
  });
})();
]]></script>
</svg>
