<?xml version="1.0" encoding="UTF-8"?>
<svg id="Layer_1" data-name="Layer 1" xmlns="http://www.w3.org/2000/svg" viewBox="0 0 606 677.6">
  <defs>
    <style>
      .cls-1 { fill: #f5fbfe; }
      .clickable { 
        cursor: pointer; 
        touch-action: manipulation; 
        -webkit-tap-highlight-color: transparent;
        transition: filter .15s ease;
      }
      .clickable:focus, .clickable:hover, .clickable:active {
        outline: 2px solid #000;
        outline-offset: 2px;
        filter: brightness(1.12); /* slight lightening = white overlay look */
      }
      .label {
        font-family: -apple-system, BlinkMacSystemFont, "Segoe UI", Roboto, Helvetica, Arial, sans-serif;
        font-size: 10px;
        font-weight: 700;
        fill: #111111;
        text-anchor: middle;
        dominant-baseline: central;
        pointer-events: none;
      }
    </style>
  </defs>
  <path id="JO-GROUNDVO-N1" data-name="Artboard 1 JO-GROUNDVO-N1" class="cls-1" d="M34.73,52.66l10.41-6.15,11.14,18.42-10.41,6.15-11.14-18.42Z"/>
  <path id="JO-GROUNDVO-M1" data-name="Artboard 1 JO-GROUNDVO-M1" class="cls-1" d="M34.98,78.96l10.43-6.13,11.1,18.44-10.43,6.13s-11.1-18.44-11.1-18.44Z"/>
  <path id="JO-GROUNDVO-L1" data-name="Artboard 1 JO-GROUNDVO-L1" class="cls-1" d="M33.97,104.66l10.32-6.31,11.43,18.24-10.32,6.31-11.43-18.24Z"/>
  <path id="JO-GROUNDVO-K1" data-name="Artboard 1 JO-GROUNDVO-K1" class="cls-1" d="M34.3,130.27l11.18-6.19,11.23,19.78-11.18,6.19-11.23-19.78Z"/>
  <path id="JO-GROUNDVO-J1" data-name="Artboard 1 JO-GROUNDVO-J1" class="cls-1" d="M115.93,187.46l12.78-.16.16,12.78-12.78.16s-.16-12.78-.16-12.78Z"/>
  <path id="JO-GROUNDVO-I1" data-name="Artboard 1 JO-GROUNDVO-I1" class="cls-1" d="M140.6,187.39l12.78-.16.16,12.78-12.78.16-.16-12.78Z"/>
  <path id="JO-GROUNDVO-H1" data-name="Artboard 1 JO-GROUNDVO-H1" class="cls-1" d="M206.88,173.99l12.78-.16.16,12.78-12.78.16-.16-12.78Z"/>
  <path id="JO-L2-254" data-name="Artboard 1 JO-L2-254" class="cls-1" d="M249.6,166.32l.24,17.52,32.4.24v-25.92h-13.92l.24,7.44-18.96.72h0Z"/>
  <path id="JO-L2-253" data-name="Artboard 1 JO-L2-253" class="cls-1" d="M249.84,166.08l18.24-.24.24-7.92,13.44.48.48-8.88h-32.4v16.56h0Z"/>
  <path id="JO-L2-252" data-name="Artboard 1 JO-L2-252" class="cls-1" d="M250.08,133.44h31.44l.24,16.32-32.16-.24.48-16.08h0Z"/>
  <path id="JO-L2-251" data-name="Artboard 1 JO-L2-251" class="cls-1" d="M249.84,132.72l-.72-17.28,18.96.48v7.68l13.68.48.24,8.88-32.16-.24h0Z"/>
  <path id="JO-L2-250" data-name="Artboard 1 JO-L2-250" class="cls-1" d="M250.08,100.32l31.44.24.48,24-13.68-.24-.24-7.92-18.96-.24.96-15.84h0Z"/>
  <path id="JO-L2-249" data-name="Artboard 1 JO-L2-249" class="cls-1" d="M250.08,99.84l-.72-17.28,18.96.48v7.68l13.68.48.24,8.88-32.16-.24h0Z"/>
  <path id="JO-L2-248" data-name="Artboard 1 JO-L2-248" class="cls-1" d="M250.08,67.68l31.44.24.48,24-13.68-.24-.24-7.92-18.96-.24.96-15.84h0Z"/>
  <path id="JO-L2-247" data-name="Artboard 1 JO-L2-247" class="cls-1" d="M249.84,67.68l-.72-17.28,18.96.48v7.68l13.68.48.24,8.88-32.16-.24h0Z"/>
  <path id="JO-L2-246" data-name="Artboard 1 JO-L2-246" class="cls-1" d="M250.08,34.56l31.44.24.48,24-13.68-.24-.24-7.92-18.96-.24.96-15.84h0Z"/>
  <path id="JO-L2-245" data-name="Artboard 1 JO-L2-245" class="cls-1" d="M281.76,34.56l-31.68-.48-.24-16.32,18.24-.48.24-7.68h12.96l.48,24.96Z"/>
  <path id="JO-L2-244" data-name="Artboard 1 JO-L2-244" class="cls-1" d="M281.76.24v9.36l-13.44-.24-.24,7.68h-31.44l.24-16.56s44.88-.24,44.88-.24Z"/>
  <path id="JO-L2-243" data-name="Artboard 1 JO-L2-243" class="cls-1" d="M236.64.72l.24,16.32,5.28.24-.48,7.2-21.6.24-.24-11.76-7.2-.24.24-12.72s23.76.72,23.76.72Z"/>
  <path id="JO-L2-242" data-name="Artboard 1 JO-L2-242" class="cls-1" d="M212.64.72v12.24l7.2.48-.24,11.52-31.44-.48v-5.76l7.2-.72-.24-17.52"/>
  <path id="JO-L2-240" data-name="Artboard 1 JO-L2-240" class="cls-1" d="M150.72.72l32.64-.48-.24,18.72-19.92-.96-.24,8.16-12.72-.24.48-25.2h0Z"/>
  <path id="JO-L2-239" data-name="Artboard 1 JO-L2-239" class="cls-1" d="M150.72,34.8l-.24-8.4h12.48l.24-7.92h19.92l.48,16.32h-32.88,0Z"/>
  <path id="JO-L2-237" data-name="Artboard 1 JO-L2-237" class="cls-1" d="M150.72,68.64l-.24-8.4h12.48l.24-7.92h19.92l.48,16.32h-32.88,0Z"/>
  <path id="JO-L2-238" data-name="Artboard 1 JO-L2-238" class="cls-1" d="M150.72,34.32l32.64-.48-.24,18.72-19.92-.96-.24,8.16-12.72-.24.48-25.2h0Z"/>
  <path id="JO-L2-236" data-name="Artboard 1 JO-L2-236" class="cls-1" d="M150.72,68.88h32.4l.24,15.12-20.4,1.2v8.16l-12.48-.24.24-24.24h0Z"/>
  <path id="JO-L2-235" data-name="Artboard 1 JO-L2-235" class="cls-1" d="M150.72,100.08l-.24-8.4h12.48l.24-7.92h19.92l.48,16.32h-32.88,0Z"/>
  <path id="JO-L2-234" data-name="Artboard 1 JO-L2-234" class="cls-1" d="M150.72,101.04h32.4l.24,15.12-20.4,1.2v8.16l-12.48-.24.24-24.24h0Z"/>
  <path id="JO-L2-233" data-name="Artboard 1 JO-L2-233" class="cls-1" d="M150.72,132.48l-.24-8.4h12.48l.24-7.92h19.92l.48,16.32h-32.88,0Z"/>
  <path id="JO-L2-232" data-name="Artboard 1 JO-L2-232" class="cls-1" d="M150.24,133.68l33.36.24v16.32l-33.12-.72-.24-15.84h0Z"/>
  <path id="JO-L2-231" data-name="Artboard 1 JO-L2-231" class="cls-1" d="M158.64,150h24.96l-.24,24h-24.72v-24Z"/>
  <path id="JO-L2-229" data-name="Artboard 1 JO-L2-229" class="cls-1" d="M158.64,150.48l.24,23.76h-24.72l.48-12.48,7.44.72v-12.24l16.56.24Z"/>
  <path id="JO-L2-228" data-name="Artboard 1 JO-L2-228" class="cls-1" d="M117.6,149.76l24.96.24v11.04l-8.16,1.2.24,12.24-17.04-.48v-24.24Z"/>
  <path id="JO-L2-227" data-name="Artboard 1 JO-L2-227" class="cls-1" d="M117.36,150l.24,23.76h-24.72l.48-12.48,7.44.72v-12.24l16.56.24Z"/>
  <path id="JO-L2-226" data-name="Artboard 1 JO-L2-226" class="cls-1" d="M76.8,150l24.96.24v11.04l-8.16,1.2.24,12.24-17.04-.48v-24.24Z"/>
  <path id="JO-L2-224" data-name="Artboard 1 JO-L2-224" class="cls-1" d="M.48,1.2v16.32l7.2.24.24,12.72,9.12.24.24-13.2,11.04.24-.72-17.04L.48,1.2Z"/>
  <path id="JO-L2-223" data-name="Artboard 1 JO-L2-223" class="cls-1" d="M.72,18.24l6.96.24v12.96h20.16l-.48,15.6-26.88.72s.24-29.52.24-29.52Z"/>
  <path id="JO-L2-222" data-name="Artboard 1 JO-L2-222" class="cls-1" d="M.24,47.52v16.32l7.2.24.24,12.72,9.12.24.24-13.2,11.04.24-.72-17.04s-27.12.48-27.12.48Z"/>
  <path id="JO-L2-221" data-name="Artboard 1 JO-L2-221" class="cls-1" d="M.96,63.6l6.96.24v12.96h20.16l-.48,15.6-26.88.72s.24-29.52.24-29.52Z"/>
  <path id="JO-L2-220" data-name="Artboard 1 JO-L2-220" class="cls-1" d="M.24,92.64v16.32l7.2.24.24,12.72,9.12.24.24-13.2,11.04.24-.72-17.04s-27.12.48-27.12.48Z"/>
  <path id="JO-L2-219" data-name="Artboard 1 JO-L2-219" class="cls-1" d="M.72,108.96l6.96.24v12.96h20.16l-.48,15.6-26.88.72s.24-29.52.24-29.52Z"/>
  <path id="JO-L2-218" data-name="Artboard 1 JO-L2-218" class="cls-1" d="M0,138.24l27.6-.72.48,16.8-27.84.24-.24-16.32h0Z"/>
  <path id="JO-L2-217" data-name="Artboard 1 JO-L2-217" class="cls-1" d="M0,154.8l.24,7.92,12.72.48-.24,7.68h14.88l.24-16.08H0Z"/>
  <path id="JO-L2-216" data-name="Artboard 1 JO-L2-216" class="cls-1" d="M0,163.68l.48,24.48,31.92.72.24-17.28-19.92.24-.24-7.92S0,163.68,0,163.68Z"/>
  <path id="JO-L2-215" data-name="Artboard 1 JO-L2-215" class="cls-1" d="M.48,188.16l-.24,8.4,12,.48.24,7.68,20.4.24-.48-16.08-31.92-.72h0Z"/>
  <path id="JO-L2-214" data-name="Artboard 1 JO-L2-214" class="cls-1" d="M0,196.56l.48,24.48,31.92.72.24-17.28-19.92.24-.24-7.92S0,196.56,0,196.56Z"/>
  <path id="JO-L2-213" data-name="Artboard 1 JO-L2-213" class="cls-1" d="M.48,220.8l-.24,8.4,12,.48.24,7.68,20.4.24-.48-16.08-31.92-.72h0Z"/>
  <path id="JO-L2-212" data-name="Artboard 1 JO-L2-212" class="cls-1" d="M0,229.44l.48,24.48,31.92.72.24-17.28-19.92.24-.24-7.92L0,229.44H0Z"/>
  <path id="JO-L2-210" data-name="Artboard 1 JO-L2-210" class="cls-1" d="M0,267.36l20.4-.48.72,31.92-20.88.24S0,267.36,0,267.36Z"/>
  <path id="JO-L2-208" data-name="Artboard 1 JO-L2-208" class="cls-1" d="M21.36,267.12l.24,31.2,24.48.48.24-32.16-24.96.48h0Z"/>
  <path id="JO-L2-207" data-name="Artboard 1 JO-L2-207" class="cls-1" d="M46.08,266.88v31.44l8.4.24.24-11.76h7.92v-19.68s-16.56-.24-16.56-.24Z"/>
  <path id="JO-L2-206" data-name="Artboard 1 JO-L2-206" class="cls-1" d="M62.88,267.12v19.68l-7.68.24-.48,12.24,24.72.48-.72-31.92-15.84-.72h0Z"/>
  <path id="JO-L2-205" data-name="Artboard 1 JO-L2-205" class="cls-1" d="M80.64,266.16v31.44l8.4.24.24-11.76h7.92v-19.68l-16.56-.24Z"/>
  <path id="JO-L2-204" data-name="Artboard 1 JO-L2-204" class="cls-1" d="M96.96,266.16v19.68l-7.68.24-.48,12.24,24.72.48-.72-31.92-15.84-.72h0Z"/>
  <path id="JO-L2-203" data-name="Artboard 1 JO-L2-203" class="cls-1" d="M113.52,266.16v31.44l8.4.24.24-11.76h7.92v-19.68s-16.56-.24-16.56-.24Z"/>
  <path id="JO-L2-202" data-name="Artboard 1 JO-L2-202" class="cls-1" d="M129.6,266.4v19.68l-7.68.24-.48,12.24,24.72.48-.72-31.92-15.84-.72h0Z"/>
  <path id="JO-GROUNDVO-N" data-name="Artboard 1 JO-GROUNDVO-N" class="cls-1" d="M398.49,52.64l10.69-5.96,10.81,18.91-10.69,5.96s-10.81-18.91-10.81-18.91Z"/>
  <path id="JO-GROUNDVO-M" data-name="Artboard 1 JO-GROUNDVO-M" class="cls-1" d="M398.25,78.8l10.69-5.96,10.81,18.91-10.69,5.96s-10.81-18.91-10.81-18.91Z"/>
  <path id="JO-GROUNDVO-L" data-name="Artboard 1 JO-GROUNDVO-L" class="cls-1" d="M397.9,105.57l10.34-6.55,11.85,18.27-10.34,6.55-11.85-18.27Z"/>
  <path id="JO-GROUNDVO-K" data-name="Artboard 1 JO-GROUNDVO-K" class="cls-1" d="M398.11,132.08l11.1-6.63,12.01,19.63-11.1,6.63-12.01-19.63Z"/>
  <path id="JO-GROUNDVO-J" data-name="Artboard 1 JO-GROUNDVO-J" class="cls-1" d="M478.98,188.97h12.93v12.93h-12.93v-12.93h0Z"/>
  <path id="JO-GROUNDVO-I" data-name="Artboard 1 JO-GROUNDVO-I" class="cls-1" d="M503.94,189.21h12.93v12.93h-12.93v-12.93h0Z"/>
  <path id="JO-GROUNDVO-H" data-name="Artboard 1 JO-GROUNDVO-H" class="cls-1" d="M570.66,177.93h12.93v12.93h-12.93v-12.93h0Z"/>
  <path id="DT-V-G" data-name="Artboard 1 DT-V-G" class="cls-1" d="M567.99,157.25h11.07v11.07h-11.07v-11.07h0Z"/>
  <path id="DT-V-F" data-name="Artboard 1 DT-V-F" class="cls-1" d="M567.99,144.39h11.07v11.07h-11.07v-11.07Z"/>
  <path id="DT-V-E" data-name="Artboard 1 DT-V-E" class="cls-1" d="M567.99,131.53h11.07v11.07h-11.07v-11.07h0Z"/>
  <path id="DT-V-D" data-name="Artboard 1 DT-V-D" class="cls-1" d="M567.99,118.67h11.07v11.07h-11.07v-11.07Z"/>
  <path id="DT-V-C" data-name="Artboard 1 DT-V-C" class="cls-1" d="M567.99,105.8h11.07v11.07h-11.07v-11.07Z"/>
  <path id="DT-V-B" data-name="Artboard 1 DT-V-B" class="cls-1" d="M567.99,92.94h11.07v11.07h-11.07v-11.07Z"/>
  <path id="DT-V-A" data-name="Artboard 1 DT-V-A" class="cls-1" d="M567.99,80.08h11.07v11.07h-11.07v-11.07Z"/>
  <path id="DT-006" data-name="Artboard 1 DT-006" class="cls-1" d="M592.8,153.12h13.2v13.2h-12.96l-.24-13.2Z"/>
  <path id="DT-005" data-name="Artboard 1 DT-005" class="cls-1" d="M592.8,139.92h13.2v13.2h-12.96l-.24-13.2Z"/>
  <path id="DT-004" data-name="Artboard 1 DT-004" class="cls-1" d="M592.8,126.72h13.2v13.2h-12.96l-.24-13.2Z"/>
  <path id="DT-003" data-name="Artboard 1 DT-003" class="cls-1" d="M592.8,113.52h13.2v13.2h-12.96s-.24-13.2-.24-13.2Z"/>
  <path id="DT-002" data-name="Artboard 1 DT-002" class="cls-1" d="M592.8,100.32h13.2v13.2h-12.96l-.24-13.2Z"/>
  <path id="DT-001" data-name="Artboard 1 DT-001" class="cls-1" d="M592.56,87.12h13.2v13.2h-12.96l-.24-13.2Z"/>
  <path id="JO-GROUND-138" data-name="Artboard 1 JO-GROUND-138" class="cls-1" d="M514.32,34.8l-.24,24.96,12.48.72.24-9.12,20.64.24-.48-17.28s-32.64.48-32.64.48Z"/>
  <path id="JO-GROUND-137" data-name="Artboard 1 JO-GROUND-137" class="cls-1" d="M526.56,51.84l20.64-.48v17.28h-33.12v-8.4h12.72l-.24-8.4Z"/>
  <path id="JO-GROUND-136" data-name="Artboard 1 JO-GROUND-136" class="cls-1" d="M514.08,68.4l-.24,24.48,12.96.48.24-8.64h20.16l.24-15.84s-33.36-.48-33.36-.48Z"/>
  <path id="JO-GROUND-135" data-name="Artboard 1 JO-GROUND-135" class="cls-1" d="M547.2,84.48l.24,17.04-33.36-.24v-8.4h12.72v-7.68l20.4-.72Z"/>
  <path id="JO-GROUND-134" data-name="Artboard 1 JO-GROUND-134" class="cls-1" d="M547.44,117.6l-.24-16.08-32.88-.48-.24,24.96h12.96v-8.16l20.4-.24h0Z"/>
  <path id="JO-GROUND-133" data-name="Artboard 1 JO-GROUND-133" class="cls-1" d="M547.2,117.6h-20.4v8.16h-12.72v8.4h32.88l.24-16.56Z"/>
  <path id="JO-GROUND-131" data-name="Artboard 1 JO-GROUND-131" class="cls-1" d="M522.72,150.24l-.48,24.24,24.72.48.24-25.2-24.48.48Z"/>
  <path id="JO-GROUND-132" data-name="Artboard 1 JO-GROUND-132" class="cls-1" d="M547.2,150.24l-.24-15.84-32.64-.24-.24,15.84,33.12.24Z"/>
  <path id="JO-GROUND-129" data-name="Artboard 1 JO-GROUND-129" class="cls-1" d="M522.48,174.72v-24.48l-16.32-.24v12.96l-8.88-.24.24,11.76,24.96.24Z"/>
  <path id="JO-GROUND-128" data-name="Artboard 1 JO-GROUND-128" class="cls-1" d="M497.28,162.72l8.88.24v-12.96h-24.96l-.24,24.24h16.32v-11.52h0Z"/>
  <path id="JO-GROUND-127" data-name="Artboard 1 JO-GROUND-127" class="cls-1" d="M480.96,174.48l.48-24.48h-16.8l-.24,12.24h-7.68v12.24h24.24,0Z"/>
  <path id="JO-GROUND-126" data-name="Artboard 1 JO-GROUND-126" class="cls-1" d="M464.4,150v12.24h-7.68v12.24h-17.04l.24-24.48h24.48Z"/>
  <path id="JO-GROUND-124" data-name="Artboard 1 JO-GROUND-124" class="cls-1" d="M391.2.72v24.48h-11.28v6.24h-8.4l-.24-13.44h-7.68V.72h27.6,0Z"/>
  <path id="JO-GROUND-123" data-name="Artboard 1 JO-GROUND-123" class="cls-1" d="M379.92,24.96h11.52l-.24,22.8-27.36.24v-29.76l7.68-.24.24,13.44h8.16v-6.48Z"/>
  <path id="JO-GROUND-122" data-name="Artboard 1 JO-GROUND-122" class="cls-1" d="M391.44,47.52h-27.84l.48,16.8,7.44.24.24,12.72,8.64.24.24-6.72,10.56-.24s.24-23.04.24-23.04Z"/>
  <path id="JO-GROUND-121" data-name="Artboard 1 JO-GROUND-121" class="cls-1" d="M364.08,64.56h7.2v12.72h9.36v-6.72h10.8l-.48,22.32-27.12.24.24-28.56h0Z"/>
  <path id="JO-GROUND-120" data-name="Artboard 1 JO-GROUND-120" class="cls-1" d="M364.08,93.12l27.12-.24v22.8h-11.04v7.2h-8.88v-13.44l-7.2.24v-16.56h0Z"/>
  <path id="JO-GROUND-119" data-name="Artboard 1 JO-GROUND-119" class="cls-1" d="M363.84,109.44l7.44.48.24,12.48h8.4l.24-6.48,11.28-.24-.24,23.52-27.6-.48.24-29.28h0Z"/>
  <path id="JO-GROUND-118" data-name="Artboard 1 JO-GROUND-118" class="cls-1" d="M363.84,138.72l27.36.24.24,16.32-27.6-.24v-16.32h0Z"/>
  <path id="JO-GROUND-116" data-name="Artboard 1 JO-GROUND-116" class="cls-1" d="M363.6,163.44l.48,24.72h32.16l-.24-16.08-19.44-.48.24-8.16h-13.2Z"/>
  <path id="JO-GROUND-115" data-name="Artboard 1 JO-GROUND-115" class="cls-1" d="M364.08,188.4l31.92-.24.48,17.04h-20.16l-.24-8.4-12.24.24.24-8.64h0Z"/>
  <path id="JO-GROUND-114" data-name="Artboard 1 JO-GROUND-114" class="cls-1" d="M364.08,196.56v24.48l32.16-.48-.24-15.12-19.92-.24v-8.64h-12Z"/>
  <path id="JO-GROUND-113" data-name="Artboard 1 JO-GROUND-113" class="cls-1" d="M364.08,229.92l12.24.24v8.16h20.16v-17.52l-32.4.48v8.64Z"/>
  <path id="JO-GROUND-112" data-name="Artboard 1 JO-GROUND-112" class="cls-1" d="M363.84,229.92v25.2l32.16-.24v-16.56l-19.68-.24-.24-8.16h-12.24Z"/>
  <path id="JO-GROUND-108" data-name="Artboard 1 JO-GROUND-108" class="cls-1" d="M409.44,267.6l.24,32.16-45.84-.48v-31.68h45.6Z"/>
  <path id="JO-GROUND-106" data-name="Artboard 1 JO-GROUND-106" class="cls-1" d="M425.76,267.6l17.28.48.24,31.68h-24.72v-12.24h7.92l-.72-19.92Z"/>
  <path id="JO-GROUND-104" data-name="Artboard 1 JO-GROUND-104" class="cls-1" d="M459.6,267.12l.72,19.92h-8.4v12.48h25.2l.24-31.92-17.76-.48Z"/>
  <path id="JO-GROUND-107" data-name="Artboard 1 JO-GROUND-107" class="cls-1" d="M409.2,268.08l.24,31.44,9.12.24v-12.48h7.68l-.48-19.92-16.56.72h0Z"/>
  <path id="JO-GROUND-105" data-name="Artboard 1 JO-GROUND-105" class="cls-1" d="M443.52,267.36l16.08-.24.72,20.16-8.88.24.24,12.48-8.4-.48.24-32.16h0Z"/>
  <path id="JO-GROUND-103" data-name="Artboard 1 JO-GROUND-103" class="cls-1" d="M477.36,267.36l.24,32.4,7.92-.24.24-12.72,7.68.24-.24-19.68h-15.84Z"/>
  <path id="JO-GROUND-117" data-name="Artboard 1 JO-GROUND-117" class="cls-1" d="M363.84,155.28l.24,7.92,12,.48v8.64l15.36-.72v-16.32h-27.6,0Z"/>
  <path id="JO-GROUND-140" data-name="Artboard 1 JO-GROUND-140" class="cls-1" d="M514.08.96l33.12.48-.24,17.28-20.16-.24-.24,8.16-12.48-.24V.96h0Z"/>
  <path id="JO-GROUND-139" data-name="Artboard 1 JO-GROUND-139" class="cls-1" d="M514.32,26.16v8.4l32.88.24.24-16.56-20.4.24-.24,7.68s-12.48,0-12.48,0Z"/>
  <path id="SF-S11-1" data-name="Artboard 1 SF-S11-1" class="cls-1" d="M223.68,337.68l12.72.24v12.96h-12.72v-13.2h0Z"/>
  <path id="SF-S10-1" data-name="Artboard 1 SF-S10-1" class="cls-1" d="M207.12,337.44l12.72.24v12.96h-12.72v-13.2h0Z"/>
  <path id="SF-S09-1" data-name="Artboard 1 SF-S09-1" class="cls-1" d="M190.08,337.68l12.72.24v12.96h-12.72v-13.2h0Z"/>
  <path id="SF-S08-1" data-name="Artboard 1 SF-S08-1" class="cls-1" d="M173.52,337.44l12.72.24v12.96h-12.72v-13.2h0Z"/>
  <path id="SF-S07-1" data-name="Artboard 1 SF-S07-1" class="cls-1" d="M156.72,337.44l12.72.24v12.96h-12.72v-13.2h0Z"/>
  <path id="SF-S06-1" data-name="Artboard 1 SF-S06-1" class="cls-1" d="M140.16,337.44l12.72.24v12.96h-12.72v-13.2h0Z"/>
  <path id="SF-S05-1" data-name="Artboard 1 SF-S05-1" class="cls-1" d="M123.36,337.44l12.72.24v12.96h-12.72v-13.2h0Z"/>
  <path id="SF-S04-1" data-name="Artboard 1 SF-S04-1" class="cls-1" d="M106.32,337.68l12.72.24v12.96h-12.72v-13.2h0Z"/>
  <path id="SF-S03-1" data-name="Artboard 1 SF-S03-1" class="cls-1" d="M89.76,337.44l12.72.24v12.96h-12.72v-13.2h0Z"/>
  <path id="SF-S02-1" data-name="Artboard 1 SF-S02-1" class="cls-1" d="M72.72,337.44l12.72.24v12.96h-12.72v-13.2h0Z"/>
  <path id="SF-S01-1" data-name="Artboard 1 SF-S01-1" class="cls-1" d="M56.16,337.68l12.72.24v12.96h-12.72v-13.2h0Z"/>
  <path id="SF-S11" data-name="Artboard 1 SF-S11" class="cls-1" d="M583.68,337.68l12.72.24v12.96h-12.72v-13.2h0Z"/>
  <path id="SF-S10" data-name="Artboard 1 SF-S10" class="cls-1" d="M567.12,337.44l12.72.24v12.96h-12.72v-13.2h0Z"/>
  <path id="SF-S09" data-name="Artboard 1 SF-S09" class="cls-1" d="M550.08,337.68l12.72.24v12.96h-12.72v-13.2h0Z"/>
  <path id="SF-S08" data-name="Artboard 1 SF-S08" class="cls-1" d="M533.52,337.44l12.72.24v12.96h-12.72v-13.2h0Z"/>
  <path id="SF-S07" data-name="Artboard 1 SF-S07" class="cls-1" d="M516.72,337.44l12.72.24v12.96h-12.72v-13.2h0Z"/>
  <path id="SF-S06" data-name="Artboard 1 SF-S06" class="cls-1" d="M500.16,337.44l12.72.24v12.96h-12.72v-13.2h0Z"/>
  <path id="SF-S05" data-name="Artboard 1 SF-S05" class="cls-1" d="M483.36,337.44l12.72.24v12.96h-12.72v-13.2h0Z"/>
  <path id="SF-S04" data-name="Artboard 1 SF-S04" class="cls-1" d="M466.32,337.68l12.72.24v12.96h-12.72v-13.2h0Z"/>
  <path id="SF-S03" data-name="Artboard 1 SF-S03" class="cls-1" d="M449.76,337.44l12.72.24v12.96h-12.72v-13.2h0Z"/>
  <path id="SF-S02" data-name="Artboard 1 SF-S02" class="cls-1" d="M432.72,337.44l12.72.24v12.96h-12.72v-13.2h0Z"/>
  <path id="SF-S01" data-name="Artboard 1 SF-S01" class="cls-1" d="M416.16,337.68l12.72.24v12.96h-12.72v-13.2h0Z"/>
  <path id="JN-V-II" data-name="Artboard 1 JN-V-II" class="cls-1" d="M154.08,441.6h12.96v12.96h-12.96v-12.96Z"/>
  <path id="JN-V-HH" data-name="Artboard 1 JN-V-HH" class="cls-1" d="M136.32,441.6h12.96v12.96h-12.96v-12.96Z"/>
  <path id="JN-V-GG" data-name="Artboard 1 JN-V-GG" class="cls-1" d="M117.6,441.6h12.96v12.96h-12.96v-12.96Z"/>
  <path id="JN-V-FF" data-name="Artboard 1 JN-V-FF" class="cls-1" d="M154.08,424.8h12.96v12.96h-12.96v-12.96Z"/>
  <path id="JN-V-EE" data-name="Artboard 1 JN-V-EE" class="cls-1" d="M136.32,424.8h12.96v12.96h-12.96v-12.96Z"/>
  <path id="JN-V-DD" data-name="Artboard 1 JN-V-DD" class="cls-1" d="M117.6,424.8h12.96v12.96h-12.96v-12.96Z"/>
  <path id="JN-V-CC" data-name="Artboard 1 JN-V-CC" class="cls-1" d="M154.08,408h12.96v12.96h-12.96v-12.96Z"/>
  <path id="JN-V-BB" data-name="Artboard 1 JN-V-BB" class="cls-1" d="M136.32,408h12.96v12.96h-12.96v-12.96Z"/>
  <path id="JN-V-AA" data-name="Artboard 1 JN-V-AA" class="cls-1" d="M117.6,408h12.96v12.96h-12.96v-12.96Z"/>
  <path id="JN-L2-A13" data-name="Artboard 1 JN-L2-A13" class="cls-1" d="M169.64,548.03l26.41.45-.23,26.64-25.96-.23-.23-26.86h0Z"/>
  <path id="JN-L2-A12" data-name="Artboard 1 JN-L2-A12" class="cls-1" d="M169.4,575.15l26.41.45-.23,26.64-25.96-.23-.23-26.86h0Z"/>
  <path id="JN-L2-A11" data-name="Artboard 1 JN-L2-A11" class="cls-1" d="M143,575.15l26.41.45-.23,26.64-25.96-.23-.23-26.86h0Z"/>
  <path id="JN-L2-A10" data-name="Artboard 1 JN-L2-A10" class="cls-1" d="M116.6,574.91l26.41.45-.23,26.64-25.96-.23-.23-26.86h.01Z"/>
  <path id="JN-L2-A9" data-name="Artboard 1 JN-L2-A9" class="cls-1" d="M140.84,650.51l26.41.45-.23,26.64-25.96-.23-.23-26.86h0Z"/>
  <path id="JN-L2-A8" data-name="Artboard 1 JN-L2-A8" class="cls-1" d="M167,650.51l26.41.45-.23,26.64-25.96-.23-.23-26.86h0Z"/>
  <path id="JN-L2-A7" data-name="Artboard 1 JN-L2-A7" class="cls-1" d="M193.4,650.51l26.41.45-.23,26.64-25.96-.23-.23-26.86h0Z"/>
  <path id="JN-L2-A6" data-name="Artboard 1 JN-L2-A6" class="cls-1" d="M219.8,650.51l26.41.45-.23,26.64-25.96-.23-.23-26.86h0Z"/>
  <path id="JN-L2-A5" data-name="Artboard 1 JN-L2-A5" class="cls-1" d="M244.52,602.03l26.41.45-.23,26.64-25.96-.23-.23-26.86h.01Z"/>
  <path id="JN-L2-A4" data-name="Artboard 1 JN-L2-A4" class="cls-1" d="M244.52,574.91l26.41.45-.23,26.64-25.96-.23-.23-26.86h.01Z"/>
  <path id="JN-L2-A3" data-name="Artboard 1 JN-L2-A3" class="cls-1" d="M244.52,547.79l26.41.45-.23,26.64-25.96-.23-.23-26.86h.01Z"/>
  <path id="JN-L2-A2" data-name="Artboard 1 JN-L2-A2" class="cls-1" d="M78.96,388.56l28.08.48-.24,28.32-27.6-.24-.24-28.56h0Z"/>
  <path id="JN-L2-A1" data-name="Artboard 1 JN-L2-A1" class="cls-1" d="M78.96,417.36l28.08.48-.24,28.32-27.6-.24-.24-28.56h0Z"/>
  <script><![CDATA[
(function(){
  // --- ID prefixes that belong to interactive shapes ---
  var PREFIXES = ['JO-GROUND-','JO-GROUNDVO-','JO-GROUNDO-','DT-','DT-V-','SF-S','JN-L2-','JN-V-'];

  function matchesPrefix(id){
    for (var i=0; i<PREFIXES.length; i++){
      if (id.indexOf(PREFIXES[i]) === 0) return true;
    }
    return false;
  }

  function slugify(id){
    return 'booth-' + (id || '').toLowerCase().replace(/[^a-z0-9-]+/g, '-').replace(/-+/g,'-').replace(/^-|-$/g,'');
  }

  // --- Color map (category x status) using Anna's hex palette ---
  var COLOR_MAP = {
    dark_blue:   { available: '#0099ff', partial: '#66ccff', full: '#99ccff' },
    green:       { available: '#669933', partial: '#99cc66', full: '#ccff99' },
    lavender:    { available: '#6666cc', partial: '#9999ff', full: '#ccccff' },
    light_blue:  { available: '#66cccc', partial: '#99ffff', full: '#ccffff' },
    orange:      { available: '#ff6600', partial: '#ff9933', full: '#ffcc99' },
    pink:        { available: '#ff3399', partial: '#ff99cc', full: '#ffcccc' },
    red:         { available: '#cc0000', partial: '#ff6666', full: '#ff9999' },
    inactive:    { available: '#999999', partial: '#999999', full: '#999999' }
  };

  function colorFor(category, status){
    var cat = (category || '').toLowerCase().replace(/\s+/g,'_');
    var st = (status || 'available').toLowerCase();
    if (!COLOR_MAP[cat]) cat = 'inactive';
    if (!COLOR_MAP[cat][st]) st = 'available';
    return COLOR_MAP[cat][st];
  }

  // --- Config loader: tries parent-provided object first, then URL fetch ---
  // Squarespace Code Block will set either:
  //   window.VOID_MAP_CONFIG = {...}
  //   window.MAP_CONFIG_URL = '/s/void_map_configv2.json'
  function loadConfig(done){
    try {
      if (window.VOID_MAP_CONFIG && typeof window.VOID_MAP_CONFIG === 'object') {
        return done(null, window.VOID_MAP_CONFIG);
      }
    } catch(e){}
    try {
      if (window.parent && window.parent.VOID_MAP_CONFIG) {
        return done(null, window.parent.VOID_MAP_CONFIG);
      }
    } catch(e){}
    var url = null;
    try { url = window.MAP_CONFIG_URL || (window.parent ? window.parent.MAP_CONFIG_URL : null); } catch(e){}
    if (!url) return done(new Error('No config present'));
    try {
      fetch(url, {cache: 'no-cache'})
        .then(function(r){ return r.json(); })
        .then(function(json){ done(null, json); })
        .catch(function(err){ done(err); });
    } catch(err){
      done(err);
    }
  }

  // --- Apply config to shapes (color, link, label, a11y) ---
  function clearOldLabels(){
    var old = document.getElementById('labels-layer');
    if (old && old.parentNode) old.parentNode.removeChild(old);
  }

  function addLabel(el, text){
    if (!text) return;
    var bbox;
    try { bbox = el.getBBox(); } catch(e){ return; }
    if (!bbox) return;

    // Auto font-size based on smallest dimension; clamp to [6,18] px
    var smallest = Math.min(bbox.width, bbox.height);
    var size = Math.max(6, Math.min(18, Math.round(smallest * 0.5)));

    var g = document.getElementById('labels-layer');
    if (!g){
      g = document.createElementNS('http://www.w3.org/2000/svg','g');
      g.setAttribute('id','labels-layer');
      document.documentElement.appendChild(g);
    }
    var tx = document.createElementNS('http://www.w3.org/2000/svg','text');
    tx.setAttribute('class','label');
    tx.setAttribute('x', (bbox.x + bbox.width/2).toFixed(2));
    tx.setAttribute('y', (bbox.y + bbox.height/2).toFixed(2));
    tx.setAttribute('font-size', String(size));
    tx.textContent = String(text);
    g.appendChild(tx);
  }

  function makeClickable(el, href){
    // enable keyboard and click only if we really have a link
    el.classList.add('clickable');
    el.setAttribute('tabindex','0');
    el.setAttribute('role','button');
    el.setAttribute('data-href', href);
    el.setAttribute('aria-label', el.getAttribute('aria-label') || el.id);

    el.addEventListener('click', function(ev){
      var t = ev.currentTarget;
      var detail = { id: t.id, slug: t.getAttribute('data-slug') };
      try { t.dispatchEvent(new CustomEvent('boothclick', { bubbles: true, detail: detail })); } catch(e){}
      try { if (window && window.parent) { window.parent.postMessage({ type: 'boothclick', detail: detail }, '*'); } } catch(e){}
      if (href) { try { window.open(href, '_blank', 'noopener'); } catch(e){} }
    });

    el.addEventListener('keydown', function(ev){
      if (ev.key === 'Enter' || ev.key === ' ') {
        ev.preventDefault();
        ev.currentTarget.click();
      }
    });
  }

  function makeInactive(el){
    el.classList.remove('clickable');
    el.removeAttribute('tabindex');
    el.removeAttribute('role');
    el.removeAttribute('data-href');
    el.setAttribute('aria-label', el.id);
  }

  function applyConfig(cfg){
    if (!cfg) return;
    clearOldLabels();

    var nodes = document.querySelectorAll('[id]');
    for (var i=0; i<nodes.length; i++){
      var el = nodes[i];
      var id = el.id || '';
      if (!matchesPrefix(id)) continue;

      // slugging for possible external mapping
      var slug = slugify(id);
      el.setAttribute('data-slug', slug);

      var c = cfg[id] || cfg[slug]; // allow either exact id or slug keys
      if (!c) continue;

      // paint
      var fill = colorFor(c.category, c.status);
      el.style.fill = fill;

      // label
      // a11y: prefer human label for screenreaders
      if (c.label) { try { el.setAttribute('aria-label', String(c.label)); } catch(e){} }
      addLabel(el, c.label);

      // clickability
      var link = (c.book_link === '-' || c.status === 'inactive') ? null : c.book_link;
      if (link) { makeClickable(el, link); } else { makeInactive(el); }
    }
  }

  // --- Initialize: prime base a11y/tap affordances then paint via config ---
  (function baseWireUp(){
    var nodes = document.querySelectorAll('[id]');
    for (var i=0; i<nodes.length; i++){
      var el = nodes[i];
      var id = el.id || '';
      if (!matchesPrefix(id)) continue;
      var slug = slugify(id);
      el.setAttribute('data-slug', slug);
    }
  })();

  // Listen for parent -> SVG postMessage with config
  try {
    window.addEventListener('message', function(ev){
      var d = ev && ev.data;
      if (!d || typeof d !== 'object') return;
      if (d.type === 'VOID_MAP_CONFIG' && d.payload) {
        try { applyConfig(d.payload); } catch(e){}
      }
    }, false);
  } catch(e){}

  loadConfig(function(err, cfg){
    if (err) {
      // As a safe fallback, mark everything inactive gray so the map is still readable.
      var nodes = document.querySelectorAll('[id]');
      for (var i=0; i<nodes.length; i++){
        var el = nodes[i];
        if (!matchesPrefix(el.id || '')) continue;
        el.style.fill = COLOR_MAP.inactive.available;
        makeInactive(el);
      }
      return;
    }
    applyConfig(cfg);
  });
})();
]]></script>
</svg>
